<svg width="36" height="36" viewBox="0 0 36 36" fill="none" xmlns="http://www.w3.org/2000/svg">
<path fill-rule="evenodd" clip-rule="evenodd" d="M0 1.97072C0 0.882319 0.895666 0 2.00053 0H33.9995C35.1043 0 36 0.882322 36 1.97072V34.0293C36 35.1177 35.1043 36 33.9995 36H2.00053C0.895669 36 0 35.1177 0 34.0293V1.97072Z" fill="#F7DF1E"/>
<path d="M15.9718 15.9753H18.7356V26.7502C18.7306 27.7379 18.5203 28.5884 18.1047 29.3017C17.6891 30.0101 17.1084 30.5563 16.3623 30.9404C15.6213 31.3195 14.7577 31.5091 13.7713 31.5091C12.8701 31.5091 12.059 31.3495 11.338 31.0302C10.6221 30.706 10.0538 30.2271 9.63322 29.5935C9.21265 28.96 9.00237 28.1719 9.00237 27.2291H11.7736C11.7786 27.6431 11.8688 27.9998 12.044 28.2991C12.2242 28.5984 12.4721 28.8278 12.7875 28.9875C13.1029 29.1471 13.4659 29.2269 13.8765 29.2269C14.3221 29.2269 14.7001 29.1346 15.0105 28.95C15.3209 28.7605 15.5563 28.4811 15.7165 28.112C15.8817 27.7429 15.9668 27.2889 15.9718 26.7502V15.9753Z" fill="#222222"/>
<path d="M30.1173 20.188C30.0472 19.5345 29.7518 19.0257 29.2311 18.6615C28.7154 18.2974 28.0444 18.1153 27.2183 18.1153C26.6375 18.1153 26.1394 18.2026 25.7238 18.3772C25.3082 18.5518 24.9903 18.7887 24.77 19.088C24.5497 19.3873 24.437 19.729 24.432 20.1131C24.432 20.4324 24.5046 20.7092 24.6498 20.9437C24.8 21.1782 25.0028 21.3777 25.2582 21.5423C25.5135 21.7019 25.7964 21.8366 26.1068 21.9464C26.4172 22.0561 26.7302 22.1484 27.0456 22.2232L28.4875 22.5824C29.0683 22.7171 29.6266 22.8991 30.1623 23.1286C30.703 23.3581 31.1862 23.6474 31.6118 23.9966C32.0424 24.3458 32.3828 24.7673 32.6332 25.2611C32.8835 25.755 33.0087 26.3336 33.0087 26.9971C33.0087 27.895 32.7784 28.6857 32.3177 29.3691C31.8571 30.0475 31.1912 30.5787 30.32 30.9629C29.4539 31.342 28.4049 31.5315 27.1733 31.5315C25.9766 31.5315 24.9377 31.347 24.0565 30.9778C23.1803 30.6087 22.4944 30.0699 21.9987 29.3616C21.5081 28.6532 21.2427 27.7902 21.2027 26.7726H23.9439C23.9839 27.3064 24.1492 27.7503 24.4396 28.1045C24.7299 28.4587 25.108 28.7231 25.5736 28.8977C26.0442 29.0723 26.5699 29.1596 27.1507 29.1596C27.7566 29.1596 28.2873 29.0698 28.7429 28.8902C29.2035 28.7056 29.564 28.4512 29.8244 28.127C30.0847 27.7977 30.2174 27.4136 30.2224 26.9746C30.2174 26.5756 30.0997 26.2463 29.8694 25.9869C29.6391 25.7226 29.3162 25.5031 28.9006 25.3285C28.49 25.1489 28.0094 24.9893 27.4586 24.8496L25.7088 24.4006C24.4421 24.0764 23.4407 23.585 22.7047 22.9266C21.9737 22.2631 21.6082 21.3827 21.6082 20.2852C21.6082 19.3823 21.8535 18.5917 22.3442 17.9133C22.8399 17.2348 23.5133 16.7086 24.3645 16.3344C25.2156 15.9553 26.1794 15.7658 27.2559 15.7658C28.3474 15.7658 29.3037 15.9553 30.1248 16.3344C30.9509 16.7086 31.5993 17.2299 32.0699 17.8983C32.5405 18.5617 32.7834 19.325 32.7984 20.188H30.1173Z" fill="#222222"/>
</svg>
