<svg width="63" height="39" viewBox="0 0 63 39" fill="none" xmlns="http://www.w3.org/2000/svg">
<path d="M8.31894 0.103516L9.3215 2.00956C9.5393 2.35381 9.79308 2.67333 10.0785 2.96257C10.9176 3.81197 11.715 4.70225 12.4311 5.65527C14.1296 7.91305 15.2753 10.408 16.0934 13.1316C16.5841 14.7881 16.8508 16.4869 16.8705 18.2052C16.9527 23.342 15.2129 27.7525 11.7056 31.4182C11.135 31.9995 10.5186 32.5329 9.86246 33.0129C9.51497 33.0129 9.35062 32.7434 9.20739 32.4948C8.94067 32.0399 8.77773 31.5204 8.69555 31.0037C8.57252 30.3824 8.49128 29.7607 8.53119 29.119V28.8291C8.50302 28.7554 8.19732 0.238032 8.31894 0.103516Z" fill="#599636"/>
<path d="M8.31917 0.0408334C8.27832 -0.0423479 8.23699 0.0208698 8.19614 0.0607968C8.21586 0.476703 8.07311 0.847454 7.84865 1.20157C7.61386 1.55331 7.27576 1.82281 6.94846 2.11276C5.12882 3.70746 3.69659 5.63394 2.54987 7.7881C1.02373 10.6871 0.237175 13.7943 0.0141233 17.0654C-0.0877763 18.2452 0.382746 22.409 0.74996 23.6101C1.75252 26.7991 3.55337 29.4718 5.88579 31.7909C6.45868 32.3494 7.05975 32.8675 7.70542 33.3651C7.8895 33.3651 7.90969 33.1988 7.94022 33.0752C8.02093 32.8107 8.08245 32.5407 8.12429 32.2672L8.53518 29.1609L8.31917 0.0408334Z" fill="#6CAC48"/>
<path d="M9.32138 34.2745C9.36224 33.7991 9.58764 33.4046 9.83323 33.0115C9.59844 32.9084 9.40356 32.7026 9.26034 32.4735C9.13731 32.2667 9.03494 32.0186 8.95511 31.7904C8.66866 30.9206 8.60762 30.008 8.52544 29.1191V28.5811C8.42354 28.6642 8.40241 29.3677 8.40241 29.4723C8.34277 30.4115 8.21974 31.346 8.03379 32.2681C7.97274 32.6413 7.93189 33.013 7.70508 33.3447C7.70508 33.3861 7.70508 33.4279 7.7248 33.4897C8.09342 34.5877 8.19438 35.7056 8.25637 36.845V37.2609C8.25637 37.7576 8.23665 37.653 8.64377 37.8194C8.80813 37.8812 8.99127 37.9026 9.15562 38.0262C9.27865 38.0262 9.29884 37.923 9.29884 37.8398L9.2378 37.1568V35.2508C9.21808 34.918 9.27865 34.5877 9.31997 34.2764L9.32138 34.2745Z" fill="#C2BFBF"/>
<path d="M24.1291 7.39121C24.1291 7.71478 24.1368 7.969 24.152 8.1539C24.1673 8.33879 24.2054 8.48131 24.2665 8.58146C24.3352 8.67391 24.4306 8.73554 24.5527 8.76636C24.6748 8.79717 24.8465 8.82028 25.0678 8.83569V9.24015H22.0229V8.83569C22.2442 8.82028 22.4197 8.79717 22.5495 8.76636C22.6792 8.73554 22.7784 8.67391 22.8471 8.58146C22.9158 8.48902 22.9577 8.35805 22.973 8.18857C22.9959 8.01138 23.0073 7.77641 23.0073 7.48366V6.00451C23.0073 5.56539 22.9997 5.19946 22.9844 4.90671C22.9768 4.61396 22.9577 4.41366 22.9272 4.30581C22.9043 4.20566 22.8776 4.12862 22.8471 4.07469C22.8165 4.01306 22.7669 3.96684 22.6983 3.93602C22.6296 3.8975 22.538 3.87439 22.4235 3.86669C22.3167 3.85128 22.1755 3.84358 22 3.84358V3.43912L23.8659 3L24.0147 4.15558H24.0719C24.4153 3.76268 24.774 3.47379 25.1479 3.2889C25.5295 3.0963 25.9492 3 26.4071 3C26.8878 3 27.2923 3.10015 27.6204 3.30045C27.9486 3.49305 28.1775 3.77424 28.3073 4.14403H28.3531C28.6354 3.78194 28.9788 3.50075 29.3833 3.30045C29.7877 3.10015 30.2189 3 30.6768 3C31.0355 3 31.3598 3.06163 31.6498 3.18489C31.9474 3.30045 32.1725 3.46223 32.3251 3.67024C32.4625 3.84743 32.5579 4.0824 32.6113 4.37514C32.6724 4.66019 32.7029 5.05308 32.7029 5.55384V7.39121C32.7029 7.70707 32.7105 7.95745 32.7258 8.14234C32.7487 8.32723 32.7907 8.46976 32.8517 8.56991C32.9128 8.67006 33.0043 8.73554 33.1264 8.76636C33.2562 8.79717 33.4317 8.82028 33.653 8.83569V9.24015H30.6081V8.83569C30.8218 8.82799 30.9935 8.80873 31.1232 8.77791C31.2529 8.73939 31.3522 8.67391 31.4208 8.58146C31.4895 8.48131 31.5315 8.34649 31.5468 8.17701C31.5696 8.00752 31.5811 7.77641 31.5811 7.48366V6.02763C31.5811 5.5885 31.5582 5.21872 31.5124 4.91827C31.4666 4.61011 31.3903 4.36359 31.2835 4.17869C31.1766 3.9861 31.0355 3.84743 30.8599 3.76268C30.692 3.67794 30.486 3.63557 30.2418 3.63557C29.906 3.63557 29.5893 3.73187 29.2917 3.92447C29.0017 4.10936 28.7728 4.35974 28.6049 4.67559C28.5667 4.75263 28.5324 4.82967 28.5019 4.90671C28.479 4.97605 28.4599 5.05694 28.4446 5.14938C28.4294 5.23413 28.4179 5.33813 28.4103 5.46139C28.4103 5.58465 28.4103 5.73873 28.4103 5.92362V7.39121C28.4103 7.70707 28.4179 7.95745 28.4332 8.14234C28.4484 8.32723 28.4866 8.46976 28.5477 8.56991C28.6163 8.67006 28.7155 8.73554 28.8453 8.76636C28.975 8.79717 29.1505 8.82028 29.3718 8.83569V9.24015H26.3269V8.83569C26.5406 8.82028 26.7123 8.79717 26.8421 8.76636C26.9718 8.73554 27.0672 8.67391 27.1282 8.58146C27.1969 8.48902 27.2389 8.35805 27.2541 8.18857C27.277 8.01138 27.2885 7.77641 27.2885 7.48366V6.02763C27.2885 5.5808 27.2656 5.20716 27.2198 4.90671C27.174 4.59856 27.0977 4.35203 26.9909 4.16714C26.8917 3.97454 26.7581 3.83972 26.5902 3.76268C26.4223 3.67794 26.2163 3.63557 25.9721 3.63557C25.6287 3.63557 25.3044 3.73187 24.9991 3.92447C24.7015 4.10936 24.4764 4.35974 24.3237 4.67559C24.2856 4.75263 24.2512 4.82967 24.2207 4.90671C24.1978 4.97605 24.1787 5.05694 24.1635 5.14938C24.1482 5.23413 24.1368 5.33813 24.1291 5.46139C24.1291 5.58465 24.1291 5.73873 24.1291 5.92362V7.39121Z" fill="#4D3528"/>
<path d="M37.605 3C38.0399 3 38.452 3.08089 38.8412 3.24267C39.2304 3.39675 39.57 3.61246 39.86 3.8898C40.1576 4.16714 40.3904 4.49841 40.5583 4.8836C40.7338 5.26109 40.8215 5.6771 40.8215 6.13163C40.8215 6.60157 40.7338 7.03298 40.5583 7.42588C40.3904 7.81878 40.1576 8.15775 39.86 8.44279C39.57 8.72784 39.2304 8.95125 38.8412 9.11303C38.452 9.27481 38.0399 9.3557 37.605 9.3557C37.1776 9.3557 36.7693 9.27866 36.3801 9.12459C35.9986 8.96281 35.6628 8.73939 35.3728 8.45435C35.0828 8.16931 34.8539 7.83034 34.686 7.43744C34.5181 7.03684 34.4342 6.60157 34.4342 6.13163C34.4342 5.6771 34.5181 5.25724 34.686 4.87204C34.8539 4.48685 35.0828 4.15558 35.3728 3.87824C35.6628 3.6009 35.9986 3.38519 36.3801 3.23112C36.7693 3.07704 37.1776 3 37.605 3ZM37.605 3.55468C37.3226 3.55468 37.0631 3.61631 36.8266 3.73957C36.5976 3.86284 36.3992 4.04002 36.2313 4.27114C36.0711 4.49455 35.9451 4.76804 35.8536 5.0916C35.7696 5.40746 35.7277 5.75799 35.7277 6.14318C35.7277 6.54379 35.7696 6.90587 35.8536 7.22943C35.9451 7.55299 36.0711 7.83033 36.2313 8.06145C36.3992 8.28486 36.5976 8.4582 36.8266 8.58146C37.0555 8.70473 37.315 8.76636 37.605 8.76636C37.8949 8.76636 38.1582 8.70473 38.3948 8.58146C38.6314 8.4582 38.8336 8.28101 39.0015 8.0499C39.1694 7.81878 39.2991 7.54144 39.3907 7.21788C39.4823 6.89431 39.528 6.53608 39.528 6.14318C39.528 5.75799 39.4823 5.40746 39.3907 5.0916C39.2991 4.77574 39.1694 4.50611 39.0015 4.2827C38.8336 4.05158 38.6314 3.87439 38.3948 3.75113C38.1582 3.62016 37.8949 3.55468 37.605 3.55468Z" fill="#4D3528"/>
<path d="M43.8469 7.42588C43.8469 7.74174 43.8546 7.99212 43.8698 8.17701C43.8851 8.3542 43.9233 8.49287 43.9843 8.59302C44.053 8.68547 44.1484 8.7471 44.2705 8.77791C44.4002 8.80873 44.5757 8.83184 44.797 8.84725V9.24015H41.7979V8.84725C42.0116 8.83184 42.1795 8.80873 42.3016 8.77791C42.4313 8.7471 42.5305 8.68547 42.5992 8.59302C42.6679 8.50057 42.7099 8.36961 42.7251 8.20012C42.748 8.03064 42.7595 7.79952 42.7595 7.50677V5.96985C42.7595 5.05309 42.7366 4.49455 42.6908 4.29425C42.6679 4.1941 42.6374 4.11321 42.5992 4.05158C42.5687 3.98224 42.5191 3.93217 42.4504 3.90135C42.3817 3.86284 42.294 3.83972 42.1871 3.83202C42.0803 3.81661 41.9429 3.80891 41.775 3.80891V3.43912L43.6066 3L43.7439 4.14403H43.7897C44.0797 3.78194 44.4193 3.50075 44.8085 3.30045C45.1977 3.10015 45.6212 3 46.0791 3C46.4301 3 46.7506 3.05778 47.0406 3.17334C47.3306 3.2889 47.5519 3.44682 47.7046 3.64713C47.8343 3.82432 47.9259 4.05543 47.9793 4.34048C48.0327 4.61782 48.0594 5.00301 48.0594 5.49606V7.42588C48.0594 7.74174 48.067 7.99212 48.0823 8.17701C48.1052 8.3542 48.1472 8.49287 48.2082 8.59302C48.2693 8.68547 48.3608 8.7471 48.4829 8.77791C48.6127 8.80873 48.7806 8.83184 48.9866 8.84725V9.24015H46.0219V8.84725C46.2355 8.83954 46.4034 8.82028 46.5255 8.78947C46.6553 8.75095 46.7506 8.68547 46.8117 8.59302C46.8804 8.50057 46.9223 8.36961 46.9376 8.20012C46.9605 8.02293 46.972 7.79182 46.972 7.50677V5.9814C46.972 5.54228 46.9491 5.1725 46.9033 4.87204C46.8575 4.57159 46.7812 4.32892 46.6743 4.14403C46.5751 3.95913 46.4416 3.82817 46.2737 3.75113C46.1058 3.66639 45.9036 3.62401 45.667 3.62401C45.3236 3.62401 45.0069 3.71646 44.7169 3.90135C44.4345 4.07854 44.2132 4.32507 44.053 4.64093C44.0148 4.71797 43.9805 4.79115 43.95 4.86049C43.9271 4.92982 43.908 5.01071 43.8927 5.10316C43.8775 5.19561 43.866 5.30346 43.8584 5.42672C43.8508 5.54228 43.8469 5.69251 43.8469 5.8774V7.42588Z" fill="#4D3528"/>
<path d="M52.403 6.75564C52.7235 6.75564 52.9715 6.60927 53.147 6.31652C53.3302 6.02377 53.4218 5.61162 53.4218 5.08005C53.4218 4.55618 53.3302 4.15173 53.147 3.86669C52.9715 3.57394 52.7197 3.42757 52.3915 3.42757C52.0634 3.42757 51.8001 3.57394 51.6017 3.86669C51.4109 4.15943 51.3155 4.56004 51.3155 5.06849C51.3155 5.57695 51.4147 5.98525 51.6132 6.29341C51.8116 6.60157 52.0748 6.75564 52.403 6.75564ZM51.7734 8.10767C51.9566 8.12308 52.1244 8.13849 52.2771 8.1539C52.4297 8.16931 52.5785 8.18471 52.7235 8.20012C52.8761 8.21553 53.0249 8.23479 53.1699 8.2579C53.3226 8.28101 53.4866 8.30412 53.6622 8.32724C54.2116 8.41198 54.6504 8.62769 54.9786 8.97436C55.3143 9.31333 55.4822 9.7409 55.4822 10.2571C55.4822 10.9042 55.2266 11.3972 54.7153 11.7362C54.2116 12.0752 53.479 12.2447 52.5175 12.2447C52.0901 12.2447 51.6971 12.2061 51.3384 12.1291C50.9874 12.0521 50.6859 11.9404 50.4341 11.794C50.1823 11.6553 49.9839 11.4858 49.8389 11.2855C49.7015 11.0852 49.6328 10.8657 49.6328 10.6268C49.6328 10.4651 49.6595 10.3148 49.713 10.1762C49.7664 10.0375 49.8389 9.91424 49.9305 9.80638C50.022 9.70623 50.1289 9.62534 50.251 9.56371C50.3807 9.50208 50.5142 9.47126 50.6516 9.47126C50.9111 9.47126 51.1438 9.55215 51.3499 9.71393C51.1438 9.76016 50.9759 9.87186 50.8462 10.0491C50.7165 10.2339 50.6516 10.442 50.6516 10.6731C50.6516 11.012 50.8157 11.274 51.1438 11.4589C51.4796 11.6438 51.9527 11.7362 52.5633 11.7362C53.8682 11.7362 54.5207 11.3317 54.5207 10.5228C54.5207 10.2147 54.4177 9.95661 54.2116 9.7486C54.0056 9.5483 53.7614 9.42889 53.479 9.39037C53.2959 9.36726 53.1051 9.3403 52.9067 9.30948C52.7159 9.28637 52.5251 9.26326 52.3343 9.24015C52.1512 9.21703 51.9795 9.19777 51.8192 9.18237C51.6589 9.16696 51.5292 9.15155 51.43 9.13614C51.0026 9.08992 50.6783 8.97436 50.457 8.78947C50.2357 8.60457 50.125 8.35035 50.125 8.02678C50.125 7.75715 50.2357 7.51833 50.457 7.31032C50.6783 7.10232 50.9569 6.97135 51.2926 6.91742V6.8712C51.1247 6.80187 50.9683 6.70557 50.8233 6.58231C50.6783 6.45134 50.5524 6.30497 50.4456 6.14318C50.3464 5.9814 50.2662 5.80807 50.2052 5.62317C50.1441 5.43057 50.1136 5.23413 50.1136 5.03383C50.1136 4.74108 50.167 4.47144 50.2739 4.22492C50.3883 3.97839 50.5448 3.76654 50.7432 3.58935C50.9492 3.40445 51.1896 3.26193 51.4643 3.16178C51.7391 3.05393 52.0405 3 52.3686 3C52.7044 3 53.0211 3.05393 53.3187 3.16178C53.6164 3.26193 53.872 3.41216 54.0857 3.61246C54.3452 3.39675 54.5741 3.24267 54.7725 3.15023C54.9709 3.05008 55.1579 3 55.3334 3C55.6081 3 55.8256 3.06548 55.9859 3.19645C56.1538 3.31971 56.2377 3.4892 56.2377 3.70491C56.2377 3.83587 56.1919 3.93987 56.1004 4.01691C56.0164 4.09395 55.9096 4.13247 55.7798 4.13247C55.673 4.13247 55.5852 4.11321 55.5166 4.07469C55.4479 4.03617 55.383 3.99765 55.322 3.95913C55.2685 3.91291 55.2113 3.87054 55.1503 3.83202C55.0892 3.7935 55.0129 3.77424 54.9213 3.77424C54.7382 3.77424 54.5512 3.83972 54.3604 3.97069C54.5436 4.25573 54.6351 4.61396 54.6351 5.04538C54.6351 5.70021 54.4329 6.21637 54.0285 6.59386C53.624 6.96365 53.0173 7.17936 52.2084 7.24099C51.7429 7.27951 51.4186 7.32958 51.2354 7.39121C51.0523 7.45284 50.9607 7.56455 50.9607 7.72633C50.9607 7.84959 51.0294 7.94204 51.1667 8.00367C51.3041 8.0576 51.5063 8.09227 51.7734 8.10767Z" fill="#4D3528"/>
<path d="M59.7834 3C60.2184 3 60.6305 3.08089 61.0197 3.24267C61.4089 3.39675 61.7485 3.61246 62.0385 3.8898C62.3361 4.16714 62.5688 4.49841 62.7367 4.8836C62.9122 5.26109 63 5.6771 63 6.13163C63 6.60157 62.9122 7.03298 62.7367 7.42588C62.5688 7.81878 62.3361 8.15775 62.0385 8.44279C61.7485 8.72784 61.4089 8.95125 61.0197 9.11303C60.6305 9.27481 60.2184 9.3557 59.7834 9.3557C59.3561 9.3557 58.9478 9.27866 58.5586 9.12459C58.177 8.96281 57.8412 8.73939 57.5513 8.45435C57.2613 8.16931 57.0323 7.83034 56.8644 7.43744C56.6965 7.03684 56.6126 6.60157 56.6126 6.13163C56.6126 5.6771 56.6965 5.25724 56.8644 4.87204C57.0323 4.48685 57.2613 4.15558 57.5513 3.87824C57.8412 3.6009 58.177 3.38519 58.5586 3.23112C58.9478 3.07704 59.3561 3 59.7834 3ZM59.7834 3.55468C59.5011 3.55468 59.2416 3.61631 59.005 3.73957C58.7761 3.86284 58.5777 4.04002 58.4098 4.27114C58.2495 4.49455 58.1236 4.76804 58.032 5.0916C57.9481 5.40746 57.9061 5.75799 57.9061 6.14318C57.9061 6.54379 57.9481 6.90587 58.032 7.22943C58.1236 7.55299 58.2495 7.83033 58.4098 8.06145C58.5777 8.28486 58.7761 8.4582 59.005 8.58146C59.234 8.70473 59.4934 8.76636 59.7834 8.76636C60.0734 8.76636 60.3367 8.70473 60.5732 8.58146C60.8098 8.4582 61.012 8.28101 61.1799 8.0499C61.3478 7.81878 61.4776 7.54144 61.5691 7.21788C61.6607 6.89431 61.7065 6.53608 61.7065 6.14318C61.7065 5.75799 61.6607 5.40746 61.5691 5.0916C61.4776 4.77574 61.3478 4.50611 61.1799 4.2827C61.012 4.05158 60.8098 3.87439 60.5732 3.75113C60.3367 3.62016 60.0734 3.55468 59.7834 3.55468Z" fill="#4D3528"/>
<path d="M22.5826 35V34.0074C23.2381 33.99 23.7642 33.9465 24.161 33.8768C24.575 33.7897 24.8941 33.6417 25.1183 33.4327C25.3426 33.2064 25.4892 32.9103 25.5582 32.5446C25.6445 32.1615 25.6876 31.6565 25.6876 31.0296V18.8572C25.6876 18.2477 25.6531 17.7602 25.5841 17.3945C25.5323 17.0114 25.4116 16.7153 25.2218 16.5064C25.0493 16.28 24.7906 16.1319 24.4456 16.0623C24.1006 15.9752 23.6521 15.9143 23.1001 15.8794V14.8868H32.1822C33.7347 14.8868 35.1664 15.1481 36.4774 15.6705C37.8056 16.1929 38.9441 16.9156 39.8929 17.8385C40.8589 18.7615 41.6092 19.8585 42.144 21.1298C42.6787 22.401 42.9461 23.7854 42.9461 25.283C42.9461 26.7109 42.696 28.0257 42.1957 29.2273C41.6955 30.4114 40.9883 31.4301 40.074 32.2834C39.177 33.1367 38.0989 33.8071 36.8397 34.2947C35.5804 34.7649 34.2004 35 32.6997 35H22.5826ZM28.8443 16.1668C28.5511 16.1668 28.4044 16.3148 28.4044 16.6108V30.7423C28.4044 32.7275 29.6896 33.7201 32.2598 33.7201C34.623 33.7201 36.4343 33.0148 37.6935 31.6043C38.9528 30.1763 39.5824 28.0866 39.5824 25.3352C39.5824 23.8899 39.4099 22.6012 39.0649 21.4693C38.7199 20.3374 38.2196 19.3797 37.5641 18.596C36.9259 17.8124 36.1497 17.2116 35.2354 16.7937C34.3212 16.3757 33.2862 16.1668 32.1304 16.1668H28.8443Z" fill="#94795D"/>
<path d="M45.122 35V34.0074C45.7948 33.99 46.3295 33.9377 46.7263 33.8507C47.1403 33.7636 47.4508 33.6156 47.6578 33.4066C47.882 33.1977 48.0286 32.9016 48.0976 32.5185C48.1839 32.1354 48.227 31.6391 48.227 31.0296V18.8572C48.227 18.2477 48.1925 17.7602 48.1235 17.3945C48.0718 17.0114 47.951 16.7153 47.7613 16.5064C47.5888 16.28 47.33 16.1319 46.985 16.0623C46.64 15.9752 46.1915 15.9143 45.6395 15.8794V14.8868H53.3761C55.7048 14.8868 57.5161 15.3048 58.8098 16.1407C60.1036 16.9765 60.7504 18.152 60.7504 19.667C60.7504 20.8163 60.3882 21.7567 59.6637 22.4881C58.9565 23.2194 57.8266 23.8202 56.2741 24.2904V24.3949C56.8088 24.4471 57.2746 24.5081 57.6713 24.5777C58.0681 24.6474 58.4217 24.7345 58.7322 24.8389C59.0427 24.926 59.3273 25.0392 59.5861 25.1785C59.8621 25.3178 60.1295 25.4746 60.3882 25.6487C61.9234 26.7458 62.6911 28.1215 62.6911 29.7758C62.6911 30.6987 62.4323 31.5607 61.9148 32.3618C61.4146 33.1454 60.7073 33.7636 59.7931 34.2164C59.4998 34.3731 59.198 34.5037 58.8875 34.6082C58.577 34.6953 58.2147 34.7736 57.8007 34.8433C57.3867 34.8955 56.9037 34.9391 56.3517 34.9739C55.817 34.9913 55.1787 35 54.437 35H45.122ZM54.5146 33.8768C57.6368 33.8768 59.198 32.5272 59.198 29.828C59.198 27.8603 58.3958 26.4846 56.7916 25.7009C56.5156 25.579 56.2482 25.4746 55.9895 25.3875C55.7307 25.3004 55.4289 25.2395 55.0839 25.2046C54.7389 25.1524 54.3249 25.1176 53.8419 25.1002C53.3761 25.0827 52.7982 25.074 52.1082 25.074H50.9439V30.899C50.9439 31.9613 51.2199 32.7275 51.7719 33.1977C52.3239 33.6504 53.2381 33.8768 54.5146 33.8768ZM52.3929 23.768C52.9276 23.768 53.3761 23.7593 53.7384 23.7419C54.1006 23.7244 54.4111 23.6983 54.6699 23.6635C54.9286 23.6113 55.1529 23.5503 55.3426 23.4807C55.5496 23.3936 55.7566 23.2804 55.9636 23.1411C56.5156 22.7928 56.9037 22.3749 57.128 21.8873C57.3695 21.3997 57.4902 20.7641 57.4902 19.9804C57.4902 18.6047 57.1538 17.6208 56.4811 17.0288C55.8256 16.4193 54.7906 16.1145 53.3761 16.1145H51.3837C51.0905 16.1145 50.9439 16.2626 50.9439 16.5586V23.768H52.3929Z" fill="#94795D"/>
</svg>
