<svg width="31" height="30" viewBox="0 0 31 30" fill="none" xmlns="http://www.w3.org/2000/svg">
<path fill-rule="evenodd" clip-rule="evenodd" d="M14.4656 0.0127433C14.3734 0.0216827 14.0903 0.0489169 13.8366 0.0732821C12.7857 0.174111 11.5491 0.443583 10.5028 0.799748C8.17306 1.5927 6.25185 2.78397 4.50542 4.51852C1.98693 7.0199 0.48063 10.1367 0.0536895 13.73C-0.0173483 14.3278 -0.0180612 16.408 0.0525573 17.0147C0.345683 19.5329 1.20963 21.8891 2.59097 23.9376C3.872 25.8373 5.74385 27.5688 7.75601 28.7153C8.666 29.2338 10.2914 29.9337 10.7211 29.9921C11.0708 30.0396 11.4243 29.8693 11.5828 29.577C11.646 29.4604 11.652 29.2881 11.6403 27.9292C11.6331 27.0945 11.6207 26.4049 11.6128 26.3969C11.6049 26.3888 11.4321 26.4043 11.2288 26.4313C9.72876 26.6305 8.69448 26.5343 7.82173 26.1144C7.4943 25.9569 7.36795 25.8658 7.08786 25.5857C6.74073 25.2385 6.71565 25.198 6.27269 24.2702C5.87439 23.436 5.30038 22.6932 4.80744 22.3742C4.41354 22.1192 4.20571 21.9359 4.14361 21.7885C4.02657 21.5107 4.2115 21.401 4.79536 21.4018C5.39654 21.4026 5.8322 21.5701 6.35585 22.0018C6.68327 22.2716 6.8737 22.4952 7.2689 23.0734C7.99781 24.1397 8.82905 24.6156 9.9576 24.6125C10.4603 24.6111 10.925 24.5258 11.3834 24.3505L11.6979 24.2303L11.8073 23.7825C11.9397 23.2409 12.1595 22.7817 12.4584 22.4224L12.6812 22.1545L12.4831 22.1277C10.1316 21.8106 8.66957 21.2084 7.54437 20.0933C6.40218 18.9613 5.81774 17.4733 5.67461 15.3327C5.54583 13.406 5.9664 11.9637 7.03616 10.6635L7.23287 10.4243L7.14829 10.1645C6.83793 9.21123 6.87613 7.84038 7.2429 6.7701C7.37835 6.37489 7.37889 6.37406 7.54357 6.34021C7.63876 6.32063 7.84689 6.32508 8.03572 6.35069C9.01838 6.48412 10.0208 6.90294 11.2969 7.71323L11.6506 7.93788L11.9049 7.87177C12.3871 7.74637 12.916 7.64334 13.564 7.54854C14.131 7.46554 14.3801 7.45328 15.514 7.45249C16.3576 7.45191 16.9538 7.47066 17.2124 7.50588C17.8675 7.59519 18.5497 7.71955 18.9878 7.82953L19.4004 7.93306L19.9104 7.61577C20.5349 7.22722 21.5482 6.73089 22.0558 6.56486C22.5383 6.40711 23.2353 6.29015 23.478 6.32624C23.6529 6.35223 23.6666 6.3645 23.7503 6.56998C23.8739 6.87355 24.0373 7.53527 24.0884 7.93946C24.1797 8.66135 24.1255 9.4422 23.9401 10.0766L23.835 10.4363L24.0036 10.6345C24.2611 10.9373 24.6481 11.5315 24.8194 11.8871C25.2993 12.8829 25.4739 13.919 25.3914 15.2807C25.2606 17.4395 24.6756 18.947 23.5236 20.093C22.4655 21.1457 20.9942 21.776 18.8702 22.0866C18.6172 22.1236 18.4025 22.1615 18.393 22.1709C18.3836 22.1803 18.4636 22.2848 18.5708 22.4031C18.8106 22.6675 19.1152 23.2699 19.2219 23.6905C19.3836 24.3283 19.4028 24.7298 19.3871 27.1392C19.3727 29.342 19.3757 29.454 19.4519 29.6064C19.4959 29.6942 19.6078 29.8158 19.7005 29.8767C19.8444 29.9711 19.9126 29.987 20.1657 29.9851C20.416 29.9834 20.5442 29.9519 20.9865 29.7838C21.6199 29.543 22.7198 29.0212 23.2809 28.6953C27.7333 26.1095 30.5792 21.5944 30.9708 16.495C31.0244 15.7966 31.001 14.3202 30.9263 13.6884C30.338 8.71453 27.5166 4.46871 23.1467 1.98142C21.4192 0.998162 19.4088 0.342796 17.3382 0.0879178C16.8444 0.0271296 14.8546 -0.0249272 14.4656 0.0127433Z" fill="#F3F3F3"/>
</svg>
