<svg width="23" height="34" viewBox="0 0 23 34" fill="none" xmlns="http://www.w3.org/2000/svg">
<path d="M5.75 34C8.924 34 11.5 31.4613 11.5 28.3333V22.6667H5.75C2.576 22.6667 0 25.2053 0 28.3333C0 31.4613 2.576 34 5.75 34Z" fill="#0ACF83"/>
<path d="M0 17C0 13.872 2.576 11.3333 5.75 11.3333H11.5V22.6667H5.75C2.576 22.6667 0 20.128 0 17Z" fill="#A259FF"/>
<path d="M0 5.66667C0 2.53867 2.576 0 5.75 0H11.5V11.3333H5.75C2.576 11.3333 0 8.79467 0 5.66667Z" fill="#F24E1E"/>
<path d="M11.5 0H17.25C20.424 0 23 2.53867 23 5.66667C23 8.79467 20.424 11.3333 17.25 11.3333H11.5V0Z" fill="#FF7262"/>
<path d="M23 17C23 20.128 20.424 22.6667 17.25 22.6667C14.076 22.6667 11.5 20.128 11.5 17C11.5 13.872 14.076 11.3333 17.25 11.3333C20.424 11.3333 23 13.872 23 17Z" fill="#1ABCFE"/>
</svg>
