<svg width="30" height="30" viewBox="0 0 30 30" fill="none" xmlns="http://www.w3.org/2000/svg">
<path d="M5.3125 0H24.6875C27.625 0 30 2.4359 30 5.44872V24.5513C30 27.5641 27.625 30 24.6875 30H5.3125C2.375 30 0 27.5641 0 24.5513V5.44872C0 2.4359 2.375 0 5.3125 0Z" fill="#330000"/>
<path d="M14.5 17.9487H9.85L8.9 20.9615C8.875 21.0769 8.775 21.1538 8.6625 21.141H6.3125C6.175 21.141 6.1375 21.0641 6.175 20.9103L10.2 9.02564C10.2375 8.89744 10.275 8.75641 10.325 8.60256C10.375 8.33333 10.4 8.05128 10.4 7.76923C10.3875 7.70513 10.4375 7.64103 10.5 7.6282H13.7375C13.8375 7.6282 13.8875 7.66667 13.9 7.73077L18.4625 20.9359C18.5 21.0769 18.4625 21.141 18.3375 21.141H15.725C15.6375 21.1538 15.55 21.0897 15.525 21L14.5 17.9487ZM10.575 15.3462H13.75C13.675 15.0769 13.575 14.7564 13.4625 14.4231C13.35 14.0769 13.2375 13.7051 13.125 13.3205C13 12.9231 12.8875 12.5385 12.7625 12.141C12.6375 11.7436 12.525 11.3718 12.425 11C12.325 10.641 12.2375 10.3077 12.15 10H12.125C12.0125 10.5513 11.875 11.1026 11.7 11.6538C11.5125 12.2692 11.325 12.9103 11.125 13.5513C10.95 14.2051 10.7625 14.8077 10.575 15.3462ZM21.25 9.87179C20.8375 9.88462 20.4375 9.71795 20.1375 9.42308C19.85 9.10256 19.7 8.67949 19.7125 8.24359C19.7 7.80769 19.8625 7.39744 20.1625 7.10256C20.4625 6.80769 20.8625 6.65385 21.275 6.65385C21.7625 6.65385 22.1375 6.80769 22.4125 7.10256C22.6875 7.41026 22.8375 7.82051 22.825 8.24359C22.8375 8.67949 22.6875 9.10256 22.3875 9.42308C22.1 9.73077 21.675 9.89744 21.25 9.87179ZM19.85 21V11.1282C19.85 11 19.9 10.9487 20.0125 10.9487H22.4875C22.6 10.9487 22.65 11.0128 22.65 11.1282V21C22.65 21.141 22.6 21.2051 22.4875 21.2051H20.0375C19.9125 21.2051 19.85 21.1282 19.85 21Z" fill="#FF9A00"/>
</svg>
