<svg width="30" height="30" viewBox="0 0 30 30" fill="none" xmlns="http://www.w3.org/2000/svg">
<path d="M5.3125 0H24.6875C27.625 0 30 2.4359 30 5.44872V24.5513C30 27.5641 27.625 30 24.6875 30H5.3125C2.375 30 0 27.5641 0 24.5513V5.44872C0 2.4359 2.375 0 5.3125 0Z" fill="#001E36"/>
<path d="M6.74997 21.0385V7.84616C6.74997 7.75642 6.78747 7.70513 6.87497 7.70513C7.08747 7.70513 7.28747 7.70513 7.57497 7.69231C7.87497 7.67949 8.18747 7.67949 8.52497 7.66667C8.86247 7.65385 9.22497 7.65385 9.61247 7.64103C9.99997 7.62821 10.375 7.62821 10.75 7.62821C11.775 7.62821 12.625 7.75642 13.325 8.02565C13.95 8.2436 14.525 8.60257 15 9.07693C15.4 9.48719 15.7125 9.98718 15.9125 10.5385C16.1 11.0769 16.2 11.6282 16.2 12.2051C16.2 13.3077 15.95 14.218 15.45 14.9359C14.95 15.6539 14.25 16.1923 13.4375 16.5C12.5875 16.8205 11.65 16.9359 10.625 16.9359C10.325 16.9359 10.125 16.9359 9.99997 16.9231C9.87497 16.9103 9.69997 16.9103 9.46247 16.9103V21.0256C9.47497 21.1154 9.41247 21.1923 9.32497 21.2051C9.31247 21.2051 9.29997 21.2051 9.27497 21.2051H6.89997C6.79997 21.2051 6.74997 21.1539 6.74997 21.0385ZM9.47497 10.1795V14.4872C9.64997 14.5 9.81247 14.5128 9.96247 14.5128H10.625C11.1125 14.5128 11.6 14.4359 12.0625 14.2821C12.4625 14.1667 12.8125 13.9231 13.0875 13.6026C13.35 13.2821 13.475 12.8462 13.475 12.2821C13.4875 11.8846 13.3875 11.4872 13.1875 11.141C12.975 10.8077 12.675 10.5513 12.3125 10.4103C11.85 10.218 11.35 10.141 10.8375 10.1539C10.5125 10.1539 10.225 10.1539 9.98747 10.1667C9.73747 10.1539 9.56247 10.1667 9.47497 10.1795Z" fill="#31A8FF"/>
<path d="M24 13.7051C23.625 13.5 23.225 13.359 22.8 13.2692C22.3375 13.1667 21.875 13.1026 21.4 13.1026C21.15 13.0897 20.8875 13.1282 20.65 13.1923C20.4875 13.2308 20.35 13.3205 20.2625 13.4487C20.2 13.5513 20.1625 13.6795 20.1625 13.7949C20.1625 13.9103 20.2125 14.0256 20.2875 14.1282C20.4 14.2692 20.55 14.3846 20.7125 14.4744C21 14.6282 21.3 14.7692 21.6 14.8974C22.275 15.1282 22.925 15.4487 23.525 15.8333C23.9375 16.1026 24.275 16.4615 24.5125 16.8974C24.7125 17.3077 24.8125 17.7564 24.8 18.218C24.8125 18.8205 24.6375 19.4231 24.3125 19.9231C23.9625 20.4359 23.475 20.8333 22.9125 21.0641C22.3 21.3333 21.55 21.4744 20.65 21.4744C20.075 21.4744 19.5125 21.4231 18.95 21.3077C18.5125 21.2308 18.075 21.0897 17.675 20.8974C17.5875 20.8462 17.525 20.7564 17.5375 20.6539V18.4231C17.5375 18.3846 17.55 18.3333 17.5875 18.3077C17.625 18.2821 17.6625 18.2949 17.7 18.3205C18.1875 18.6154 18.7 18.8205 19.25 18.9487C19.725 19.0769 20.225 19.141 20.725 19.141C21.2 19.141 21.5375 19.0769 21.7625 18.9615C21.9625 18.8718 22.1 18.6539 22.1 18.4231C22.1 18.2436 22 18.0769 21.8 17.9103C21.6 17.7436 21.1875 17.5513 20.575 17.3077C19.9375 17.0769 19.35 16.7692 18.8 16.3846C18.4125 16.1026 18.0875 15.7308 17.85 15.2949C17.65 14.8846 17.55 14.4359 17.5625 13.9872C17.5625 13.4359 17.7125 12.9103 17.9875 12.4359C18.3 11.9231 18.7625 11.5128 19.3 11.2564C19.8875 10.9487 20.625 10.8077 21.5125 10.8077C22.025 10.8077 22.55 10.8462 23.0625 10.9231C23.4375 10.9744 23.8 11.0769 24.1375 11.218C24.1875 11.2308 24.2375 11.2821 24.2625 11.3333C24.275 11.3846 24.2875 11.4359 24.2875 11.4872V13.5769C24.2875 13.6282 24.2625 13.6795 24.225 13.7051C24.1125 13.7308 24.05 13.7308 24 13.7051Z" fill="#31A8FF"/>
</svg>
