<svg width="30" height="31" viewBox="0 0 30 31" fill="none" xmlns="http://www.w3.org/2000/svg">
<mask id="mask0_478_213" style="mask-type:alpha" maskUnits="userSpaceOnUse" x="0" y="0" width="30" height="31">
<path fill-rule="evenodd" clip-rule="evenodd" d="M21.2736 30.8675C21.7461 31.0587 22.2848 31.0465 22.7618 30.8081L28.9382 27.7211C29.5873 27.3967 30 26.7144 30 25.966V5.03414C30 4.28566 29.5873 3.60339 28.9383 3.27901L22.7618 0.191913C22.1359 -0.120904 21.4034 -0.0442837 20.854 0.370524C20.7756 0.429779 20.7008 0.495939 20.6307 0.568849L8.80653 11.7736L3.65616 7.7128C3.1767 7.33479 2.50609 7.36576 2.0608 7.78649L0.408909 9.34727C-0.135765 9.86189 -0.13639 10.7519 0.407559 11.2674L4.87413 15.5L0.407559 19.7326C-0.13639 20.248 -0.135765 21.1381 0.408909 21.6527L2.0608 23.2135C2.50609 23.6342 3.1767 23.6652 3.65616 23.2872L8.80653 19.2264L20.6307 30.4311C20.8177 30.6255 21.0374 30.7719 21.2736 30.8675ZM22.5046 8.42616L13.5327 15.5L22.5046 22.5738V8.42616Z" fill="white"/>
</mask>
<g mask="url(#mask0_478_213)">
<path d="M28.9381 3.28404L22.7567 0.192701C22.0412 -0.165121 21.1862 -0.0141841 20.6247 0.569056L0.389254 19.7328C-0.155028 20.2482 -0.154402 21.1383 0.390604 21.6529L2.0435 23.2137C2.48906 23.6344 3.16009 23.6654 3.63982 23.2874L28.0079 4.08602C28.8255 3.44184 29.9997 4.04748 29.9997 5.11333V5.03879C29.9997 4.29062 29.5871 3.60861 28.9381 3.28404Z" fill="#0065A9"/>
<g filter="url(#filter0_d_478_213)">
<path d="M28.9391 27.7161L22.7577 30.8074C22.0422 31.1653 21.1872 31.0143 20.6257 30.431L0.39023 11.2673C-0.154052 10.7519 -0.153426 9.86178 0.39158 9.34717L2.04447 7.78639C2.49003 7.36566 3.16107 7.33469 3.6408 7.7127L28.0089 26.9141C28.8265 27.5583 30.0007 26.9526 30.0007 25.8868V25.9613C30.0007 26.7095 29.588 27.3915 28.9391 27.7161Z" fill="#007ACC"/>
</g>
<g filter="url(#filter1_d_478_213)">
<path d="M22.7573 30.8081C22.0416 31.1657 21.1866 31.0144 20.625 30.4311C21.3169 31.1498 22.5 30.6408 22.5 29.6244V1.37555C22.5 0.35917 21.3169 -0.149838 20.625 0.56885C21.1866 -0.0144427 22.0416 -0.165593 22.7573 0.191913L28.9376 3.27902C29.587 3.6034 30 4.28566 30 5.03414V25.966C30 26.7144 29.587 27.3967 28.9376 27.7211L22.7573 30.8081Z" fill="#1F9CF0"/>
</g>
<g style="mix-blend-mode:overlay" opacity="0.25">
<path fill-rule="evenodd" clip-rule="evenodd" d="M21.256 30.8675C21.7285 31.0587 22.2673 31.0464 22.7442 30.8081L28.9207 27.7211C29.5697 27.3967 29.9824 26.7145 29.9824 25.9659V5.03415C29.9824 4.28564 29.5697 3.60338 28.9207 3.279L22.7442 0.191913C22.1183 -0.120904 21.3858 -0.0442835 20.8365 0.370521C20.758 0.429779 20.6833 0.49594 20.6131 0.568849L8.78895 11.7736L3.63858 7.71282C3.15915 7.33478 2.48851 7.36578 2.04322 7.78648L0.391331 9.34726C-0.153344 9.8619 -0.153968 10.7519 0.389981 11.2674L4.85655 15.5L0.389981 19.7326C-0.153968 20.2481 -0.153344 21.1381 0.391331 21.6527L2.04322 23.2135C2.48851 23.6342 3.15915 23.6652 3.63858 23.2872L8.78895 19.2264L20.6131 30.4311C20.8002 30.6255 21.0198 30.7719 21.256 30.8675ZM22.487 8.42618L13.5151 15.5L22.487 22.5738V8.42618Z" fill="url(#paint0_linear_478_213)"/>
</g>
</g>
<defs>
<filter id="filter0_d_478_213" x="-8.35092" y="-0.884609" width="46.6852" height="40.2176" filterUnits="userSpaceOnUse" color-interpolation-filters="sRGB">
<feFlood flood-opacity="0" result="BackgroundImageFix"/>
<feColorMatrix in="SourceAlpha" type="matrix" values="0 0 0 0 0 0 0 0 0 0 0 0 0 0 0 0 0 0 127 0" result="hardAlpha"/>
<feOffset/>
<feGaussianBlur stdDeviation="4.16667"/>
<feColorMatrix type="matrix" values="0 0 0 0 0 0 0 0 0 0 0 0 0 0 0 0 0 0 0.25 0"/>
<feBlend mode="overlay" in2="BackgroundImageFix" result="effect1_dropShadow_478_213"/>
<feBlend mode="normal" in="SourceGraphic" in2="effect1_dropShadow_478_213" result="shape"/>
</filter>
<filter id="filter1_d_478_213" x="12.2917" y="-8.33334" width="26.0417" height="47.6667" filterUnits="userSpaceOnUse" color-interpolation-filters="sRGB">
<feFlood flood-opacity="0" result="BackgroundImageFix"/>
<feColorMatrix in="SourceAlpha" type="matrix" values="0 0 0 0 0 0 0 0 0 0 0 0 0 0 0 0 0 0 127 0" result="hardAlpha"/>
<feOffset/>
<feGaussianBlur stdDeviation="4.16667"/>
<feColorMatrix type="matrix" values="0 0 0 0 0 0 0 0 0 0 0 0 0 0 0 0 0 0 0.25 0"/>
<feBlend mode="overlay" in2="BackgroundImageFix" result="effect1_dropShadow_478_213"/>
<feBlend mode="normal" in="SourceGraphic" in2="effect1_dropShadow_478_213" result="shape"/>
</filter>
<linearGradient id="paint0_linear_478_213" x1="14.9824" y1="-1.7669e-07" x2="14.9824" y2="31" gradientUnits="userSpaceOnUse">
<stop stop-color="white"/>
<stop offset="1" stop-color="white" stop-opacity="0"/>
</linearGradient>
</defs>
</svg>
