<svg width="39" height="36" viewBox="0 0 39 36" fill="none" xmlns="http://www.w3.org/2000/svg">
<path fill-rule="evenodd" clip-rule="evenodd" d="M20.5791 5.52086C21.7119 6.74107 22.8379 8.13658 23.9219 9.67906C25.7793 9.8607 27.5332 10.1532 29.1406 10.5384C30.2393 6.29088 30.0303 3.03014 28.2852 2.00719C26.54 0.984238 23.6533 2.43102 20.5791 5.52086ZM19.4355 6.73668C20.1855 7.5775 20.9404 8.50816 21.6855 9.51695C20.9473 9.4818 20.1963 9.46373 19.4346 9.46373C18.6738 9.46373 17.9238 9.4818 17.1865 9.51695C17.9316 8.50816 18.6855 7.5775 19.4355 6.73668ZM18.293 5.52086C17.1602 6.74107 16.0342 8.13658 14.9502 9.67857C13.0918 9.86021 11.3379 10.1527 9.73047 10.5379C8.63184 6.29039 8.84082 3.03014 10.5859 2.00719C12.3311 0.98375 15.2178 2.43053 18.293 5.52086ZM19.4365 4.34996C15.7129 0.735703 12.0508 -0.884903 9.71875 0.481308C7.38672 1.84801 6.93848 5.8773 8.16016 10.9574C3.21484 12.4232 0 14.8329 0 17.5663C0 20.3002 3.21387 22.7093 8.15918 24.1756C6.9375 29.2562 7.38574 33.287 9.71777 34.6537C12.0498 36.0204 15.7129 34.3988 19.4365 30.784C23.1602 34.3983 26.8223 36.0189 29.1543 34.6527C31.4863 33.286 31.9336 29.2557 30.7119 24.1752C35.6562 22.7088 38.8701 20.2997 38.8701 17.5663C38.8701 14.8334 35.6562 12.4247 30.7119 10.9584C31.9336 5.87828 31.4854 1.8485 29.1533 0.481796C26.8213 -0.884414 23.1592 0.736191 19.4365 4.34996ZM28.6758 12.1512C27.583 11.912 26.4111 11.7142 25.1777 11.5638C25.3994 11.9134 25.6182 12.2689 25.833 12.6302C26.0068 12.9217 26.1787 13.2167 26.3486 13.5155C26.7295 14.1849 27.0889 14.8539 27.4277 15.5199C27.916 14.3602 28.333 13.2313 28.6758 12.1512ZM28.4082 17.5672C29.1826 15.8426 29.8105 14.1546 30.2852 12.5487C34.458 13.7064 37.1348 15.5204 37.1348 17.5663C37.1348 19.6122 34.457 21.4256 30.2842 22.5838C29.8096 20.9784 29.1816 19.2909 28.4082 17.5672ZM26.5068 17.5668C26.0059 16.5218 25.4512 15.4608 24.8457 14.3959C24.2402 13.3309 23.6113 12.3129 22.9707 11.3504C21.8281 11.2679 20.6465 11.225 19.4346 11.225C18.2236 11.225 17.043 11.2684 15.9014 11.3504C15.2598 12.3133 14.6318 13.3314 14.0254 14.3968C13.4199 15.4618 12.8662 16.5228 12.3652 17.5677C12.8662 18.6122 13.4199 19.6727 14.0254 20.7372C14.249 21.1302 14.4756 21.5174 14.7051 21.8973C15.0967 22.5462 15.4961 23.1752 15.9004 23.7826C17.042 23.8646 18.2236 23.9081 19.4346 23.9081C20.6465 23.9081 21.8291 23.8651 22.9717 23.7826C23.6123 22.8202 24.2402 21.8026 24.8457 20.7381C25.4512 19.6732 26.0059 18.6117 26.5068 17.5668ZM25.1787 23.5692C25.5771 22.9383 25.9678 22.2875 26.3486 21.6185C26.7295 20.9491 27.0898 20.2806 27.4287 19.6141C27.917 20.7733 28.333 21.9017 28.6758 22.9818C27.583 23.2211 26.4121 23.4188 25.1787 23.5692ZM21.6855 25.6166C20.9473 25.6517 20.1963 25.6698 19.4346 25.6698C19.0938 25.6698 18.7549 25.6659 18.418 25.659C18.0039 25.6503 17.5928 25.6361 17.1865 25.6166C17.9316 26.6254 18.6865 27.5565 19.4365 28.3973C20.1865 27.5565 20.9404 26.6254 21.6855 25.6166ZM20.5801 29.6127C21.7129 28.3924 22.8379 26.9969 23.9219 25.4545C25.7803 25.2728 27.5342 24.9803 29.1416 24.5951C30.2402 28.8431 30.0312 32.1039 28.2861 33.1268C26.541 34.1503 23.6553 32.7025 20.5801 29.6127ZM18.293 29.6131C17.1602 28.3929 16.0342 26.9974 14.9502 25.4549C13.0918 25.2733 11.3379 24.9808 9.73047 24.5956C8.63184 28.8436 8.84082 32.1048 10.5859 33.1278C12.332 34.1512 15.2178 32.7035 18.293 29.6131ZM10.1963 22.9823C11.2891 23.2215 12.46 23.4193 13.6934 23.5697C13.2949 22.9388 12.9043 22.2875 12.5234 21.6185C12.1426 20.9491 11.7822 20.2801 11.4434 19.6136C10.9551 20.7733 10.5391 21.9022 10.1963 22.9823ZM11.4434 15.5204C11.7822 14.8544 12.1416 14.1854 12.5225 13.5165C12.9033 12.8465 13.2949 12.1952 13.6943 11.5633C12.46 11.7137 11.2881 11.9115 10.1953 12.1507C10.4395 12.9208 10.7217 13.7157 11.04 14.5287C11.1689 14.8563 11.3027 15.1874 11.4434 15.5204ZM10.4639 17.5663C9.68945 19.2909 9.0625 20.9789 8.58691 22.5848C4.41309 21.4266 1.73535 19.6122 1.73535 17.5663C1.73535 15.5199 4.41309 13.7064 8.58691 12.5482C9.00293 13.9535 9.53516 15.4217 10.1807 16.9222C10.2725 17.1361 10.3672 17.3509 10.4639 17.5663ZM22.8838 17.5404C22.8838 19.4925 21.3252 21.0755 19.4023 21.0755C17.4785 21.0755 15.9199 19.4925 15.9199 17.5404C15.9199 15.5882 17.4785 14.0057 19.4023 14.0057C21.3252 14.0057 22.8838 15.5882 22.8838 17.5404Z" fill="#00D8FF"/>
</svg>
