<svg width="74" height="15" viewBox="0 0 74 15" fill="none" xmlns="http://www.w3.org/2000/svg">
<path d="M49.1929 0.00624525H62.0824V2.39826H56.9693V14.9823H54.4125V2.39826H49.1929V0.00624525Z" fill="white"/>
<path d="M27.9945 0.00624525V2.39826H17.6627V6.24628H25.9716V8.63829H17.6627V12.5903H27.9945V14.9823H15.1061V2.39826H15.1051V0.00624525H27.9945Z" fill="white"/>
<path d="M34.4307 0.0124914H31.0849L43.0688 14.9886H46.4243L40.4316 7.50568L46.4147 0.0239172L43.0688 0.0291159L38.7565 5.41397L34.4307 0.0124914Z" fill="white"/>
<path d="M37.864 10.71L36.1884 8.6154L31.0753 15H34.4307L37.864 10.71Z" fill="white"/>
<path fill-rule="evenodd" clip-rule="evenodd" d="M15.1957 14.9823L3.19573 0H0V14.9761H2.55659V3.20113L11.984 14.9823H15.1957Z" fill="white"/>
<path d="M62.6572 14.8911C62.4699 14.8911 62.3107 14.8259 62.1773 14.6955C62.0439 14.565 61.978 14.4071 61.9797 14.22C61.978 14.038 62.0439 13.8818 62.1773 13.7513C62.3107 13.6208 62.4699 13.5556 62.6572 13.5556C62.8373 13.5556 62.9949 13.6208 63.1283 13.7513C63.2635 13.8818 63.331 14.038 63.3328 14.22C63.331 14.3435 63.2998 14.4568 63.2374 14.5581C63.1734 14.6611 63.092 14.7418 62.9897 14.8002C62.8892 14.8603 62.7784 14.8911 62.6572 14.8911Z" fill="white"/>
<path d="M67.0207 8.58186H68.1536V12.9704C68.1519 13.3737 68.0652 13.7186 67.8956 14.0087C67.7241 14.2987 67.4867 14.5201 67.1819 14.6763C66.8787 14.8308 66.5236 14.9097 66.1199 14.9097C65.7509 14.9097 65.4201 14.8428 65.1256 14.7124C64.8311 14.5819 64.5973 14.3863 64.4258 14.1288C64.2525 13.8714 64.1676 13.5504 64.1676 13.166H65.3024C65.3041 13.3342 65.3422 13.4801 65.4149 13.6019C65.4876 13.7238 65.588 13.8164 65.7163 13.8817C65.8461 13.9469 65.9952 13.9795 66.1631 13.9795C66.3451 13.9795 66.501 13.9417 66.6274 13.8645C66.7538 13.789 66.8509 13.6757 66.9185 13.5247C66.9843 13.3754 67.019 13.19 67.0207 12.9704V8.58186Z" fill="white"/>
<path d="M72.8151 10.2981C72.7875 10.0321 72.6661 9.82444 72.4548 9.67685C72.2417 9.52753 71.9663 9.45373 71.6284 9.45373C71.3912 9.45373 71.1869 9.48978 71.0171 9.56014C70.8473 9.63222 70.7156 9.72832 70.6255 9.85018C70.5355 9.97204 70.4905 10.1111 70.4869 10.2673C70.4869 10.3977 70.5181 10.5109 70.5787 10.6053C70.6394 10.7015 70.7207 10.7821 70.8265 10.8473C70.9303 10.9143 71.0464 10.9692 71.173 11.0138C71.3011 11.0584 71.4294 11.0962 71.5574 11.1271L72.1481 11.273C72.3855 11.3279 72.616 11.4017 72.8359 11.4961C73.0558 11.5888 73.2551 11.7072 73.43 11.8496C73.605 11.9921 73.7436 12.1637 73.8458 12.3645C73.948 12.5653 74 12.8004 74 13.0716C74 13.4372 73.9065 13.7581 73.7175 14.0361C73.5288 14.3125 73.2568 14.5287 72.9 14.6849C72.5448 14.8394 72.1153 14.9183 71.6095 14.9183C71.121 14.9183 70.6948 14.8428 70.3363 14.6918C69.976 14.5425 69.6952 14.3228 69.4926 14.0344C69.2899 13.7461 69.1808 13.3943 69.1652 12.9806H70.2878C70.3034 13.1969 70.3727 13.3771 70.4904 13.523C70.6099 13.6672 70.7658 13.7736 70.9564 13.8456C71.1488 13.916 71.3634 13.9521 71.6008 13.9521C71.8486 13.9521 72.0668 13.9143 72.2556 13.8405C72.4426 13.7667 72.5899 13.6637 72.6956 13.5299C72.803 13.3977 72.8568 13.2415 72.8585 13.063C72.8568 12.9 72.8081 12.7644 72.7146 12.658C72.6194 12.5516 72.4877 12.4623 72.3196 12.3903C72.15 12.3182 71.9524 12.253 71.7272 12.1963L71.0101 12.0144C70.4921 11.8822 70.0816 11.6815 69.7818 11.412C69.4806 11.1425 69.3314 10.7856 69.3314 10.3376C69.3314 9.97034 69.4319 9.64769 69.6348 9.37136C69.8355 9.09505 70.1111 8.88051 70.4593 8.72776C70.8092 8.57331 71.2042 8.49777 71.644 8.49777C72.091 8.49777 72.4824 8.57331 72.8203 8.72776C73.158 8.88051 73.4232 9.09333 73.6154 9.36449C73.8077 9.63566 73.9082 9.9463 73.9134 10.2981H72.8151Z" fill="white"/>
</svg>
