<svg width="36" height="36" viewBox="0 0 36 36" fill="none" xmlns="http://www.w3.org/2000/svg">
<path fill-rule="evenodd" clip-rule="evenodd" d="M0 1.97072C0 0.882319 0.895666 0 2.00053 0H33.9995C35.1043 0 36 0.882322 36 1.97072V34.0293C36 35.1177 35.1043 36 33.9995 36H2.00053C0.895669 36 0 35.1177 0 34.0293V1.97072Z" fill="#007ACC"/>
<path d="M8.0021 18.1438V15.9622H19.8561V18.1438H15.2639V30.3287H12.5943V18.1438H8.0021Z" fill="#F3F3F3"/>
<path d="M30.2157 19.9116C30.1479 19.2989 29.8626 18.8219 29.3596 18.4805C28.8615 18.1391 28.2134 17.9684 27.4154 17.9684C26.8544 17.9684 26.3731 18.0503 25.9717 18.214C25.5703 18.3776 25.2632 18.5998 25.0504 18.8804C24.8376 19.161 24.7288 19.4813 24.7239 19.8414C24.7239 20.1407 24.7941 20.4003 24.9343 20.6201C25.0794 20.8399 25.2753 21.0269 25.5219 21.1813C25.7686 21.3309 26.0418 21.4572 26.3417 21.5601C26.6416 21.663 26.9438 21.7495 27.2485 21.8196L28.6414 22.1563C29.2024 22.2826 29.7417 22.4533 30.2592 22.6684C30.7815 22.8836 31.2482 23.1548 31.6593 23.4822C32.0753 23.8095 32.4041 24.2047 32.6459 24.6677C32.8878 25.1307 33.0087 25.6731 33.0087 26.2951C33.0087 27.1369 32.7862 27.8782 32.3413 28.5189C31.8963 29.1549 31.2531 29.6529 30.4115 30.013C29.5748 30.3685 28.5616 30.5462 27.3719 30.5462C26.216 30.5462 25.2124 30.3731 24.3612 30.0271C23.5148 29.681 22.8522 29.1759 22.3734 28.5118C21.8995 27.8478 21.6432 27.0387 21.6045 26.0847H24.2524C24.2911 26.5851 24.4507 27.0013 24.7312 27.3333C25.0117 27.6654 25.3768 27.9132 25.8266 28.0769C26.2813 28.2406 26.7891 28.3224 27.3501 28.3224C27.9353 28.3224 28.448 28.2383 28.8881 28.0699C29.333 27.8969 29.6812 27.6584 29.9327 27.3544C30.1842 27.0457 30.3124 26.6856 30.3172 26.2741C30.3124 25.9 30.1987 25.5913 29.9763 25.3481C29.7538 25.1003 29.4418 24.8945 29.0404 24.7308C28.6438 24.5625 28.1795 24.4128 27.6475 24.2819L25.9572 23.861C24.7336 23.557 23.7663 23.0963 23.0554 22.479C22.3493 21.857 21.9962 21.0316 21.9962 20.0028C21.9962 19.1563 22.2332 18.4151 22.7072 17.779C23.186 17.143 23.8365 16.6496 24.6586 16.2989C25.4808 15.9435 26.4118 15.7658 27.4517 15.7658C28.506 15.7658 29.4297 15.9435 30.2229 16.2989C31.0209 16.6496 31.6472 17.1383 32.1019 17.765C32.5565 18.387 32.791 19.1025 32.8055 19.9116H30.2157Z" fill="#F3F3F3"/>
</svg>
