<svg width="32" height="32" viewBox="0 0 32 32" fill="none" xmlns="http://www.w3.org/2000/svg">
<path fill-rule="evenodd" clip-rule="evenodd" d="M15.885 0C7.76131 0 8.26851 3.54121 8.26851 3.54121L8.27771 7.21001H16.0302V8.31161H5.19847C5.19847 8.31161 0 7.71921 0 15.9584C0 24.1976 4.53726 23.906 4.53726 23.906H7.2453V20.0824C7.2453 20.0824 7.09929 15.5216 11.7102 15.5216H19.3991C19.3991 15.5216 23.7187 15.5916 23.7187 11.3248V4.26961C23.7187 4.26961 24.3747 0 15.885 0ZM11.6102 2.4672C11.9802 2.4668 12.335 2.6144 12.5966 2.8776C12.8592 3.14081 13.0066 3.49742 13.0066 3.86921C13.0066 4.24099 12.8592 4.5976 12.5966 4.86081C12.335 5.12361 11.9802 5.27121 11.6102 5.27121C11.2402 5.27121 10.8853 5.12401 10.6237 4.86081C10.3612 4.5976 10.2137 4.24099 10.2137 3.86921C10.2137 3.49742 10.3612 3.14081 10.6237 2.8776C10.8853 2.6148 11.2402 2.4672 11.6102 2.4672Z" fill="url(#paint0_linear_483_31)"/>
<path fill-rule="evenodd" clip-rule="evenodd" d="M16.1154 32C24.2391 32 23.7319 28.4588 23.7319 28.4588L23.7227 24.79H15.9702V23.6884H26.8015C26.8015 23.6884 32 24.2812 32 16.0416C32 7.80197 27.4627 8.09397 27.4627 8.09397H24.7547V11.9176C24.7547 11.9176 24.9007 16.4784 20.2898 16.4784H12.6013C12.6013 16.4784 8.28128 16.4084 8.28128 20.6752V27.7304C8.28128 27.7304 7.62567 32 16.1154 32ZM20.3898 29.5328C20.0198 29.5332 19.665 29.3856 19.4034 29.1224C19.1408 28.8592 18.9934 28.5026 18.9934 28.1308C18.9934 27.759 19.1408 27.4024 19.4034 27.1392C19.665 26.8764 20.0198 26.7288 20.3898 26.7288C20.7598 26.7288 21.1147 26.876 21.3763 27.1392C21.6388 27.4024 21.7863 27.759 21.7863 28.1308C21.7863 28.5026 21.6388 28.8592 21.3763 29.1224C21.1147 29.3852 20.7598 29.5328 20.3898 29.5328Z" fill="url(#paint1_linear_483_31)"/>
<defs>
<linearGradient id="paint0_linear_483_31" x1="1664" y1="5.36442e-07" x2="1536" y2="3200" gradientUnits="userSpaceOnUse">
<stop stop-color="#387EB8"/>
<stop offset="1" stop-color="#366994"/>
</linearGradient>
<linearGradient id="paint1_linear_483_31" x1="1194.79" y1="8.09269" x2="1194.79" y2="2398.82" gradientUnits="userSpaceOnUse">
<stop stop-color="#FFE052"/>
<stop offset="1" stop-color="#FFC331"/>
</linearGradient>
</defs>
</svg>
