<svg width="38" height="38" viewBox="0 0 38 38" fill="none" xmlns="http://www.w3.org/2000/svg">
<path d="M38 19C38 29.4934 29.4934 38 19 38C8.50659 38 0 29.4934 0 19C0 8.50659 8.50659 0 19 0C29.4934 0 38 8.50659 38 19Z" fill="#5C2D91"/>
<path d="M16.7652 20.1112V12.2588H15.8184V18.4395H15.7408L11.3948 12.2588H10.4635V20.1112H11.4258V13.9458H11.5034L15.8339 20.1112H16.7652Z" fill="white"/>
<path d="M7.50467 19.9694C7.64178 20.1048 7.80605 20.1726 7.99748 20.1726C8.12683 20.1726 8.24324 20.1419 8.34672 20.0806C8.45278 20.0167 8.53686 19.9323 8.59894 19.8275C8.66362 19.7227 8.69595 19.6077 8.69595 19.4824C8.69595 19.2933 8.6274 19.131 8.49029 18.9955C8.35319 18.86 8.18892 18.7923 7.99748 18.7923C7.80605 18.7923 7.64178 18.86 7.50467 18.9955C7.36757 19.131 7.29901 19.2933 7.29901 19.4824C7.29901 19.6716 7.36757 19.8339 7.50467 19.9694Z" fill="white"/>
<path d="M18.6909 20.1112V12.2588H23.4871V13.1023H19.6532V15.7556H23.2387V16.5991H19.6532V19.2677H23.5491V20.1112H18.6909Z" fill="white"/>
<path d="M24.787 12.2588V13.1023H27.286V20.1112H28.2483V13.1023H30.7473V12.2588H24.787Z" fill="white"/>
<path d="M9.36023 24.452H8.71578C8.6974 24.3495 8.66351 24.2586 8.61412 24.1795C8.56472 24.0993 8.50326 24.0313 8.42974 23.9756C8.35622 23.9199 8.27237 23.8781 8.17817 23.8502C8.08512 23.8212 7.98461 23.8067 7.87662 23.8067C7.68478 23.8067 7.51477 23.8535 7.36658 23.9472C7.21839 24.0397 7.10237 24.1756 7.01851 24.355C6.93465 24.5334 6.89272 24.7512 6.89272 25.0087C6.89272 25.2706 6.93465 25.4912 7.01851 25.6707C7.10352 25.849 7.21954 25.9838 7.36658 26.0752C7.51477 26.1655 7.68421 26.2106 7.8749 26.2106C7.98059 26.2106 8.07938 26.1973 8.17128 26.1705C8.26433 26.1426 8.34761 26.102 8.42113 26.0485C8.4958 25.995 8.5584 25.9292 8.60895 25.8512C8.66064 25.7732 8.69625 25.684 8.71578 25.5837L9.36023 25.5871C9.33611 25.7498 9.28384 25.9025 9.20343 26.0451C9.12416 26.1878 9.0202 26.3137 8.89154 26.4229C8.76288 26.531 8.6124 26.6157 8.44008 26.677C8.26777 26.7372 8.07651 26.7673 7.86629 26.7673C7.55612 26.7673 7.27928 26.6976 7.03574 26.5583C6.79221 26.419 6.60037 26.2179 6.46022 25.9549C6.32007 25.6918 6.25 25.3765 6.25 25.0087C6.25 24.6398 6.32065 24.3244 6.46194 24.0625C6.60324 23.7995 6.79565 23.5983 7.03919 23.459C7.28272 23.3197 7.55842 23.2501 7.86629 23.2501C8.06272 23.2501 8.24537 23.2768 8.41424 23.3303C8.5831 23.3838 8.73359 23.4624 8.86569 23.566C8.9978 23.6685 9.10636 23.7945 9.19136 23.9438C9.27752 24.092 9.33381 24.2614 9.36023 24.452Z" fill="white"/>
<path fill-rule="evenodd" clip-rule="evenodd" d="M13.099 25.0087C13.099 25.3776 13.0277 25.6935 12.8853 25.9565C12.744 26.2184 12.551 26.419 12.3063 26.5583C12.0628 26.6976 11.7865 26.7673 11.4775 26.7673C11.1685 26.7673 10.8917 26.6976 10.647 26.5583C10.4034 26.4179 10.2104 26.2168 10.068 25.9549C9.9267 25.6918 9.85606 25.3765 9.85606 25.0087C9.85606 24.6398 9.9267 24.3244 10.068 24.0625C10.2104 23.7995 10.4034 23.5983 10.647 23.459C10.8917 23.3197 11.1685 23.2501 11.4775 23.2501C11.7865 23.2501 12.0628 23.3197 12.3063 23.459C12.551 23.5983 12.744 23.7995 12.8853 24.0625C13.0277 24.3244 13.099 24.6398 13.099 25.0087ZM12.4562 25.0087C12.4562 24.749 12.4143 24.53 12.3305 24.3517C12.2477 24.1723 12.1329 24.0369 11.9858 23.9455C11.8388 23.853 11.6694 23.8067 11.4775 23.8067C11.2857 23.8067 11.1162 23.853 10.9692 23.9455C10.8222 24.0369 10.7067 24.1723 10.6228 24.3517C10.5401 24.53 10.4988 24.749 10.4988 25.0087C10.4988 25.2684 10.5401 25.4879 10.6228 25.6673C10.7067 25.8456 10.8222 25.9811 10.9692 26.0736C11.1162 26.1649 11.2857 26.2106 11.4775 26.2106C11.6694 26.2106 11.8388 26.1649 11.9858 26.0736C12.1329 25.9811 12.2477 25.8456 12.3305 25.6673C12.4143 25.4879 12.4562 25.2684 12.4562 25.0087Z" fill="white"/>
<path fill-rule="evenodd" clip-rule="evenodd" d="M15.0267 23.2969H13.7034V26.7205H14.3426V25.4667H14.9931L15.6867 26.7205H16.4L15.6367 25.3651C15.6597 25.3561 15.6821 25.3465 15.7039 25.3363C15.89 25.2483 16.0307 25.124 16.1261 24.9635C16.2225 24.802 16.2708 24.6114 16.2708 24.3918C16.2708 24.1734 16.2231 23.9823 16.1278 23.8184C16.0336 23.6535 15.894 23.5253 15.7091 23.4339C15.5253 23.3426 15.2978 23.2969 15.0267 23.2969ZM14.3426 24.9518H14.9319C15.0905 24.9518 15.2203 24.9307 15.3214 24.8883C15.4224 24.8449 15.4971 24.7819 15.5454 24.6994C15.5948 24.6158 15.6195 24.5133 15.6195 24.3918C15.6195 24.2703 15.5948 24.1667 15.5454 24.0809C15.496 23.994 15.4207 23.9282 15.3196 23.8836C15.2185 23.8379 15.0882 23.8151 14.9285 23.8151H14.3426V24.9518Z" fill="white"/>
<path d="M16.8592 23.2969H19.1544V23.8168H17.4985V24.7462H19.0355V25.2661H17.4985V26.2006H19.1682V26.7205H16.8592V23.2969Z" fill="white"/>
<path d="M21.7925 23.2969H21.0102V26.7205H21.6237V24.3634H21.6564L22.6317 26.7105H23.09L24.0653 24.3684H24.0981V26.7205H24.7115V23.2969H23.9292L22.8815 25.7777H22.8402L21.7925 23.2969Z" fill="white"/>
<path d="M25.8798 23.2969L26.7982 25.9916H26.8344L27.7511 23.2969H28.4541L27.21 26.7205H26.4208L25.1785 23.2969H25.8798Z" fill="white"/>
<path d="M31.1056 24.452H31.75C31.7236 24.2614 31.6673 24.092 31.5811 23.9438C31.4961 23.7945 31.3876 23.6685 31.2555 23.566C31.1234 23.4624 30.9729 23.3838 30.804 23.3303C30.6351 23.2768 30.4525 23.2501 30.2561 23.2501C29.9482 23.2501 29.6725 23.3197 29.429 23.459C29.1854 23.5983 28.993 23.7995 28.8517 24.0625C28.7104 24.3244 28.6398 24.6398 28.6398 25.0087C28.6398 25.3765 28.7098 25.6918 28.85 25.9549C28.9901 26.2179 29.182 26.419 29.4255 26.5583C29.669 26.6976 29.9459 26.7673 30.2561 26.7673C30.4663 26.7673 30.6575 26.7372 30.8299 26.677C31.0022 26.6157 31.1527 26.531 31.2813 26.4229C31.41 26.3137 31.5139 26.1878 31.5932 26.0451C31.6736 25.9025 31.7259 25.7498 31.75 25.5871L31.1056 25.5837C31.086 25.684 31.0504 25.7732 30.9987 25.8512C30.9482 25.9292 30.8856 25.995 30.8109 26.0485C30.7374 26.102 30.6541 26.1426 30.561 26.1705C30.4691 26.1973 30.3704 26.2106 30.2647 26.2106C30.074 26.2106 29.9045 26.1655 29.7564 26.0752C29.6093 25.9838 29.4933 25.849 29.4083 25.6707C29.3244 25.4912 29.2825 25.2706 29.2825 25.0087C29.2825 24.7512 29.3244 24.5334 29.4083 24.355C29.4921 24.1756 29.6082 24.0397 29.7564 23.9472C29.9045 23.8535 30.0746 23.8067 30.2664 23.8067C30.3744 23.8067 30.4749 23.8212 30.5679 23.8502C30.6621 23.8781 30.746 23.9199 30.8195 23.9756C30.893 24.0313 30.9545 24.0993 31.0039 24.1795C31.0533 24.2586 31.0872 24.3495 31.1056 24.452Z" fill="white"/>
</svg>
