<svg width="24" height="33" viewBox="0 0 24 33" fill="none" xmlns="http://www.w3.org/2000/svg">
<path d="M15.1289 11.7016L11.9352 14.7189L8.97168 8.64954L10.5053 5.15874C10.9043 4.4502 11.5263 4.45831 11.9153 5.15874L15.1289 11.7016Z" fill="#FFA000"/>
<path d="M8.97168 8.64954L11.9352 14.7189L0 25.992L8.97168 8.64954Z" fill="#F57F17"/>
<path d="M18.6214 7.08954C19.1919 6.53252 19.782 6.72292 19.9324 7.51166L23.0392 25.8415L12.7414 32.1187C12.3824 32.3212 11.4252 32.4083 11.4252 32.4083C11.4252 32.4083 10.5539 32.303 10.2219 32.1045L0 25.992L18.6214 7.08954Z" fill="#FFCA28"/>
<path d="M8.97168 8.64954L0.000976562 25.9916L3.99624 0.645626C4.14385 -0.143928 4.58671 -0.220088 4.98129 0.476697L8.97168 8.64954Z" fill="#FFA000"/>
</svg>
