<svg width="69" height="19" viewBox="0 0 69 19" fill="none" xmlns="http://www.w3.org/2000/svg">
<path d="M12.4046 5.18727C12.2984 5.18727 12.1921 5.19742 12.0868 5.19742C9.94075 5.31214 8.49335 6.25948 7.64707 8.10949C6.92327 9.78266 7.0023 11.9697 7.65519 13.6532C8.41441 15.2981 9.64121 16.1662 11.6889 16.4941C12.1222 16.5652 12.4127 16.8038 13.2519 17.7866L14.2844 19H16.157L14.9119 17.7409C14.2235 17.0505 13.6668 16.4493 13.6668 16.3965C13.6668 16.3438 13.9301 16.228 14.2488 16.1306C15.2996 15.8116 16.1721 14.9974 16.7825 13.7495C17.2765 12.7475 17.3474 12.4377 17.4182 11.1909C17.6035 7.47984 15.6528 5.15969 12.4045 5.18619L12.4046 5.18727ZM14.0464 14.892C13.1354 15.3346 11.8126 15.4229 10.949 15.1052C10.0562 14.7762 9.1918 13.8462 8.80301 12.7932C8.37082 11.6419 8.43253 9.51779 8.92652 8.56123C9.72113 7.03821 10.7719 6.33767 12.3074 6.33767C14.585 6.33767 15.8806 7.73689 16.0497 10.3666C16.1833 12.5618 15.4504 14.2087 14.0474 14.891L14.0464 14.892ZM46.3957 8.35718C45.6102 8.35718 45.0089 8.67608 44.6039 9.30442L44.2861 9.802V8.50841H42.9267V16.2657H44.2852V13.7862C44.2852 11.5189 44.3134 11.2539 44.6293 10.6335C45.0646 9.78266 45.8136 9.35836 46.5375 9.56143L47.0233 9.70358V8.35924H46.3957V8.35718ZM38.4091 8.28606C38.1428 8.28606 37.8604 8.32164 37.5791 8.38363C35.76 8.86075 34.7346 10.6071 34.7974 12.4043C34.7974 13.9091 35.0888 14.6614 35.8127 15.4504C37.2957 16.6708 38.6369 16.7682 40.4467 16.1134C40.7555 15.9815 41.0915 15.8291 41.0915 15.8291V14.6087L40.4467 14.9438C38.982 15.5834 37.8787 15.5834 36.9949 14.83C36.4312 14.2543 36.1831 13.5639 36.0688 12.7761H41.5501V11.7301C41.5501 9.59791 40.2706 8.25155 38.408 8.28606H38.4091ZM36.1923 11.6875C36.1923 11.6875 36.3948 10.3574 37.1458 9.83552C37.5073 9.5796 37.9222 9.4558 38.3281 9.4558C38.7351 9.4558 39.1409 9.58774 39.476 9.8447C40.1644 10.3757 40.2798 11.6774 40.2798 11.6774H36.1923V11.6875H36.1923ZM3.4189 10.2884C1.94512 9.39283 1.29121 8.74702 1.37117 7.98551C1.59989 5.87868 4.19535 6.1701 5.63267 6.96719L5.64289 5.5498C5.64289 5.5498 4.84824 5.20459 3.70942 5.18628C1.9623 5.15987 0.832639 5.73451 0.303307 6.90421C-0.474168 8.63029 0.214244 9.93193 2.70239 11.384C4.09924 12.1992 4.71665 12.907 4.71665 13.6786C4.71665 15.2727 2.8005 15.8292 0.82363 14.829C0.416782 14.6259 0.0725757 14.4563 0.0543711 14.4563C-0.0165332 14.9082 0.0200159 15.9895 0.0200159 15.9895C0.0200159 15.9895 0.627394 16.2454 1.53832 16.422C3.79755 16.8738 5.8535 15.8108 6.04782 14.0847C6.21689 12.4642 5.63271 11.6143 3.41899 10.2873L3.4189 10.2884ZM58.4272 8.26784C58.1619 8.26784 57.8805 8.30437 57.587 8.36631C55.7701 8.84352 54.7466 10.59 54.8164 12.3872C54.8164 13.8899 55.107 14.6351 55.8307 15.423C57.3137 16.6445 58.6549 16.7429 60.4739 16.0871C60.7816 15.9551 61.1167 15.8049 61.1167 15.8049V14.5825L60.4729 14.9195C59.0052 15.5571 57.9018 15.5571 57.0212 14.8038C56.4543 14.2291 56.2084 13.5467 56.094 12.7496H61.5661V11.7038C61.5661 9.58184 60.2866 8.23441 58.4241 8.27L58.4272 8.26784ZM56.2103 11.6692C56.2103 11.6692 56.4148 10.3411 57.1648 9.80907C57.5253 9.55225 57.9402 9.42832 58.3461 9.42832C58.751 9.42832 59.159 9.56031 59.4941 9.8182C60.1825 10.3492 60.2979 11.6601 60.2979 11.6601H56.2114L56.2103 11.6692ZM31.293 10.3057C29.8192 9.41216 29.1673 8.76429 29.2463 8.00274C29.475 5.89483 32.0705 6.18733 33.5078 6.98442L33.518 5.56704C33.518 5.56704 32.7233 5.22177 31.5845 5.20548C29.8374 5.17912 28.7077 5.75381 28.1774 6.92346C27.401 8.64948 28.0984 9.95122 30.5784 11.4032C31.9733 12.2176 32.5908 12.9161 32.5908 13.6877C32.5908 15.2819 30.6756 15.8474 28.6987 14.8381C28.2938 14.635 27.9497 14.4674 27.9294 14.4674C27.8585 14.9192 27.8951 16.0007 27.8951 16.0007C27.8951 16.0007 28.4952 16.2474 29.4032 16.4331C31.6646 16.886 33.7214 15.8239 33.9148 14.0978C34.0829 12.4854 33.4998 11.6356 31.2931 10.3075V10.3057H31.293ZM66.4148 8.33892C65.6293 8.33892 65.021 8.65866 64.6231 9.28724L64.3052 9.78271V8.49123H62.9458V16.2464H64.3042V13.767C64.3042 11.5007 64.3315 11.2347 64.6485 10.6153C65.0837 9.76553 65.8326 9.34015 66.5564 9.54415L67.0423 9.68626V8.33896L66.4148 8.33892ZM20.4823 10.2609V5.32019H19.1118V16.2637H24.8755V14.9712H20.4824V10.2609H20.4823ZM52.1776 11.8012L51.0479 14.7498L49.9617 11.7849L48.8584 8.49933H47.4555C48.3645 11.0844 49.3533 13.7141 50.3505 16.2637C50.7827 16.2738 51.2159 16.2637 51.6481 16.2637L53.1736 12.4216L54.7274 8.50031H53.3862C53.3862 8.50031 52.794 10.0579 52.1766 11.8022L52.1776 11.8012ZM23.6405 2.33813C23.8612 2.33813 24.0454 2.26715 24.1972 2.11483C24.3469 1.96449 24.4259 1.78783 24.4259 1.56651C24.4259 1.34514 24.3469 1.16033 24.1972 1.01818C24.0454 0.876077 23.8702 0.804908 23.6505 0.804908C23.4279 0.804908 23.2437 0.876076 23.0938 1.02628C22.942 1.17662 22.8732 1.36143 22.8732 1.57466C22.8732 1.79804 22.9441 1.98275 23.0938 2.12298C23.2356 2.26504 23.4198 2.33616 23.6405 2.33616V2.33813ZM23.1546 1.07914C23.2862 0.947199 23.4461 0.886192 23.6506 0.886192C23.843 0.886192 24.0029 0.947199 24.1366 1.07914C24.2682 1.21113 24.339 1.37154 24.339 1.56651C24.339 1.76143 24.2682 1.93003 24.1366 2.06197C24.003 2.19387 23.843 2.25689 23.6506 2.25689C23.4552 2.25689 23.2963 2.19598 23.1648 2.06197C23.0332 1.93003 22.9623 1.76143 22.9623 1.56651C22.9623 1.37154 23.0231 1.21118 23.1546 1.07914ZM23.4815 1.63763H23.5706C23.6334 1.63763 23.6951 1.6985 23.7477 1.81429L23.8541 2.05383H24.0211L23.8895 1.78774C23.8359 1.68122 23.7833 1.61927 23.7215 1.6019C23.7995 1.58364 23.8612 1.55728 23.9057 1.50442C23.9502 1.45882 23.9664 1.39683 23.9664 1.32674C23.9664 1.24555 23.9411 1.18468 23.8875 1.13996C23.8268 1.08921 23.7296 1.06182 23.604 1.06182H23.3227V2.05383H23.4644V1.63754L23.4815 1.63763ZM23.4815 1.17662H23.6051C23.6941 1.17662 23.7569 1.19488 23.7913 1.22124C23.8248 1.24765 23.8339 1.28226 23.8339 1.34514C23.8339 1.45985 23.7629 1.51374 23.6314 1.51374H23.4796V1.17662H23.4815ZM0.841695 1.54923C0.841695 1.20401 0.831612 0.9472 0.82349 0.795872H0.831612C0.866994 0.97445 0.910545 1.10756 0.945974 1.19587L2.26184 4.14446H2.48253L3.79839 1.16951C3.83392 1.08837 3.86934 0.966443 3.91285 0.796855H3.92293C3.89665 1.09136 3.88755 1.3472 3.88755 1.55124V4.15363H4.3379V0.285142H3.77309L2.56352 2.97579C2.51894 3.08236 2.45719 3.24188 2.37825 3.45304H2.35995C2.33367 3.34844 2.27192 3.18902 2.18388 2.99405L1.00152 0.275917H0.401331V4.14436H0.834553V1.55115L0.841695 1.54923ZM5.32492 1.55644H5.7137V3.96578H5.32492V1.55644ZM5.51928 0.673011C5.60032 0.673011 5.66912 0.645527 5.72173 0.591822C5.77541 0.538961 5.81088 0.469947 5.81088 0.388758C5.81088 0.309536 5.78451 0.238416 5.7228 0.185694C5.66814 0.13185 5.59826 0.104365 5.5183 0.104365C5.43942 0.104365 5.36856 0.13185 5.31581 0.185694C5.26232 0.238416 5.2268 0.309536 5.2268 0.388758C5.2268 0.477111 5.25415 0.538961 5.31581 0.591822C5.37668 0.645527 5.43937 0.673011 5.5183 0.673011H5.51928ZM8.48523 4.01865V3.59416C8.27261 3.75359 8.04384 3.83286 7.80699 3.83286C7.52365 3.83286 7.29376 3.73542 7.12572 3.54865C6.95875 3.36385 6.86969 3.10684 6.86969 2.78705C6.86969 2.452 6.95875 2.18586 7.14294 1.9828C7.32009 1.78788 7.54993 1.6904 7.83135 1.6904C8.06111 1.6904 8.28166 1.76157 8.48527 1.90376V1.45193C8.30005 1.35445 8.08851 1.30974 7.84956 1.30974C7.40817 1.30974 7.0641 1.45194 6.807 1.72617C6.55186 2.00026 6.42027 2.37292 6.42027 2.82273C6.42027 3.22273 6.53463 3.55886 6.7726 3.81577C7.02055 4.0797 7.3375 4.21375 7.72614 4.21375C8.02666 4.20542 8.27261 4.14244 8.48523 4.01865ZM9.59762 2.73419C9.59762 2.41637 9.66847 2.15955 9.80006 1.98275C9.92362 1.82342 10.0734 1.74321 10.2505 1.74321C10.4003 1.74321 10.5066 1.7706 10.5845 1.83255V1.37154C10.5238 1.34518 10.4357 1.33605 10.3214 1.33605C10.1624 1.33605 10.0208 1.38971 9.89626 1.48836C9.76468 1.59282 9.65942 1.75234 9.59766 1.95541H9.58758V1.3898H9.14726V4.15157H9.58856V2.73419H9.59762ZM12.1313 4.2064C12.5463 4.2064 12.8804 4.07235 13.1283 3.8064C13.3752 3.54228 13.4988 3.187 13.4988 2.74421C13.4988 2.29252 13.3855 1.94726 13.1546 1.69026C12.9259 1.43353 12.608 1.3095 12.1929 1.3095C11.7779 1.3095 11.4438 1.43344 11.1959 1.67303C10.9307 1.93715 10.791 2.30975 10.791 2.78799C10.791 3.20428 10.9044 3.54954 11.1433 3.8064C11.3903 4.07235 11.7172 4.20537 12.1313 4.20537V4.2064ZM11.5037 1.95639C11.6717 1.7787 11.8925 1.6903 12.1657 1.6903C12.4492 1.6903 12.6617 1.7787 12.8196 1.95639C12.9785 2.14223 13.0576 2.40728 13.0576 2.76158C13.0576 3.0986 12.9867 3.36366 12.8368 3.54135C12.6871 3.72718 12.4664 3.8256 12.1748 3.8256C11.8914 3.8256 11.6717 3.72709 11.5037 3.54135C11.3367 3.35453 11.2567 3.0986 11.2567 2.76158C11.2395 2.42653 11.3276 2.15243 11.5037 1.95639ZM15.4312 3.96578C15.5992 3.81558 15.6884 3.63078 15.6884 3.39915C15.6884 3.19608 15.6174 3.02758 15.4859 2.89455C15.3785 2.78804 15.2126 2.69149 14.9727 2.59401C14.7601 2.50477 14.6285 2.42545 14.5576 2.36351C14.4868 2.29248 14.4432 2.20422 14.4432 2.07925C14.4432 1.96454 14.4878 1.87619 14.5749 1.80511C14.664 1.73413 14.7774 1.69962 14.9292 1.69962C15.1671 1.69962 15.3705 1.7625 15.5567 1.89557V1.45283C15.3786 1.36358 15.1852 1.32093 14.9646 1.32093C14.6812 1.32093 14.4423 1.39917 14.2661 1.55031C14.0808 1.7007 13.9928 1.89562 13.9928 2.12499C13.9928 2.32806 14.0535 2.49667 14.1688 2.62046C14.266 2.72609 14.4321 2.83378 14.6628 2.93014C14.8836 3.02767 15.0334 3.11593 15.1133 3.18696C15.1922 3.25812 15.2276 3.34638 15.2276 3.45108C15.2276 3.70887 15.0516 3.84199 14.7074 3.84199C14.4421 3.84199 14.2043 3.75462 13.9916 3.57801V4.05507C14.184 4.17096 14.4148 4.22368 14.6699 4.22368C14.9969 4.20645 15.2529 4.12624 15.429 3.96682L15.4312 3.96578ZM17.5327 1.3096C17.1175 1.3096 16.7836 1.43353 16.5356 1.67312C16.2724 1.93724 16.1307 2.30985 16.1307 2.78808C16.1307 3.20437 16.2451 3.54963 16.483 3.8065C16.731 4.07244 17.0569 4.20546 17.4719 4.20546C17.897 4.20546 18.221 4.07151 18.469 3.80537C18.717 3.54144 18.8404 3.18607 18.8404 2.74332C18.8404 2.29149 18.7251 1.94632 18.4962 1.68941C18.2575 1.4325 17.9395 1.30861 17.5346 1.30861L17.5327 1.3096ZM18.389 2.76163C18.389 3.09865 18.3181 3.36371 18.1683 3.5414C18.0185 3.72723 17.7978 3.82565 17.5062 3.82565C17.2227 3.82565 17.0031 3.72714 16.835 3.5414C16.6681 3.35458 16.5881 3.09865 16.5881 2.76163C16.5881 2.40625 16.6762 2.13216 16.8534 1.94726C17.0203 1.7706 17.2411 1.68122 17.5154 1.68122C17.7886 1.68122 18.0084 1.77051 18.1672 1.94726C18.309 2.14218 18.3879 2.40724 18.3879 2.76163H18.389ZM19.5815 4.14347H20.0218V1.75239H20.6665V1.38072H20.0217V0.954269C20.0217 0.566493 20.1715 0.371529 20.4813 0.371529C20.5856 0.371529 20.6918 0.39789 20.7708 0.442604V0.0436352C20.6918 0.00809759 20.5856 0 20.4528 0C20.215 0 20.0207 0.0711215 19.8617 0.221325C19.6765 0.397983 19.5783 0.627456 19.5783 0.938257V1.39112H19.1126V1.76269H19.5783V4.14478L19.5815 4.14347ZM21.3902 3.39007C21.3902 3.93029 21.6282 4.20542 22.114 4.20542C22.2902 4.20542 22.4228 4.17705 22.5291 4.11407V3.73435C22.4481 3.79531 22.3519 3.82378 22.2457 3.82378C22.0959 3.82378 21.9906 3.7881 21.9288 3.70789C21.866 3.62881 21.8307 3.49467 21.8307 3.30986V1.75136H22.529V1.37969H21.8307V0.565462C21.6788 0.61823 21.53 0.662945 21.3893 0.707519V1.37964H20.9135V1.75131H21.3893V3.38908L21.3902 3.39007ZM68.7632 8.48098C68.6134 8.33892 68.4362 8.2678 68.2166 8.2678C67.9939 8.2678 67.8096 8.33892 67.6598 8.49118C67.51 8.64045 67.4391 8.82619 67.4391 9.03951C67.4391 9.26088 67.51 9.44569 67.6587 9.58774C67.8086 9.72989 67.9927 9.80106 68.2155 9.80106C68.4351 9.80106 68.6204 9.72989 68.7723 9.57964C68.9211 9.42733 69 9.2517 69 9.03141C68.9919 8.80802 68.9119 8.62317 68.7621 8.48107L68.7632 8.48098ZM68.6923 9.52688C68.5607 9.65882 68.4008 9.71973 68.2064 9.71973C68.0142 9.71973 67.8542 9.65882 67.7206 9.52688C67.5891 9.39283 67.5181 9.2253 67.5181 9.0293C67.5181 8.83635 67.5788 8.67603 67.7125 8.54198C67.844 8.41009 68.003 8.34903 68.2064 8.34903C68.3988 8.34903 68.5588 8.41009 68.6923 8.54198C68.8239 8.67603 68.8947 8.83635 68.8947 9.0293C68.8947 9.23447 68.834 9.39283 68.6923 9.52688ZM68.2955 9.075C68.3744 9.05674 68.4372 9.0212 68.4807 8.97757C68.5253 8.93182 68.5416 8.86983 68.5416 8.79894C68.5416 8.71972 68.5162 8.65674 68.4626 8.61311C68.4019 8.56231 68.3037 8.53487 68.1793 8.53487H67.8979V9.5258H68.0396V9.10951H68.1276C68.1884 9.10951 68.2492 9.17038 68.3037 9.28617L68.409 9.52477H68.5771L68.4456 9.25868C68.3999 9.14294 68.3473 9.09008 68.2938 9.0728L68.2955 9.075ZM68.1983 8.98571H68.0465V8.6507H68.171C68.2591 8.6507 68.3208 8.66686 68.3563 8.69434C68.3917 8.7207 68.3998 8.75526 68.3998 8.81823C68.3998 8.93294 68.329 8.9858 68.1974 8.9858L68.1983 8.98571ZM43.5716 1.26601H43.6951V0.273999H44.0219V0.15011H43.2446V0.273999H43.5717V1.26601H43.5716ZM44.3206 0.520747C44.3206 0.424201 44.3206 0.345028 44.3135 0.300454C44.3216 0.353175 44.3398 0.388806 44.348 0.415167L44.7276 1.26601H44.7883L45.1688 0.406971C45.1791 0.38061 45.1872 0.346058 45.2043 0.300454C45.1962 0.388806 45.1962 0.459693 45.1962 0.513631V1.26502H45.3278V0.15011H45.1688L44.8248 0.919762C44.8167 0.947246 44.7892 1.00095 44.7721 1.06196H44.7619C44.7549 1.02633 44.7367 0.990837 44.7113 0.930016L44.3672 0.150201H44.1891V1.26708H44.3135V0.521824L44.3206 0.520747Z" fill="white"/>
</svg>
