<svg width="292" height="148" viewBox="0 0 292 148" fill="none" xmlns="http://www.w3.org/2000/svg">
<path d="M134.884 18.5407C134.884 20.4929 133.325 22.0755 131.402 22.0755C129.479 22.0755 127.92 20.4929 127.92 18.5407C127.92 16.5884 129.479 15.0059 131.402 15.0059C133.325 15.0059 134.884 16.5884 134.884 18.5407Z" fill="white"/>
<path fill-rule="evenodd" clip-rule="evenodd" d="M131.436 5.3502C127.713 1.73592 124.051 0.114819 121.719 1.4815C119.387 2.84809 118.939 6.87779 120.16 11.9577C115.215 13.4237 112 15.8328 112 18.5666C112 21.3003 115.214 23.7096 120.159 25.1757C118.937 30.2564 119.386 34.2869 121.718 35.6536C124.05 37.0204 127.713 35.3987 131.436 31.7839C135.16 35.3982 138.822 37.0194 141.154 35.6527C143.486 34.286 143.934 30.2556 142.712 25.175C147.656 23.7087 150.87 21.2997 150.87 18.5666C150.87 15.8335 147.656 13.4247 142.712 11.9585C143.933 6.87849 143.485 2.84853 141.153 1.48193C138.821 0.115376 135.159 1.73644 131.436 5.3502ZM132.58 6.52092C133.712 7.7413 134.838 9.13672 135.922 10.6792C137.78 10.8609 139.533 11.1532 141.141 11.5386C142.239 7.29099 142.031 4.03054 140.285 3.00756C138.54 1.98459 135.654 3.43137 132.58 6.52092ZM131.436 7.73649C132.186 8.5774 132.941 9.50818 133.686 10.5172C132.947 10.482 132.196 10.4639 131.435 10.4639C130.674 10.4639 129.924 10.4819 129.186 10.517C129.932 9.50808 130.686 8.57735 131.436 7.73649ZM130.293 6.52115C129.161 7.74139 128.035 9.13662 126.951 10.6788C125.092 10.8605 123.338 11.1527 121.731 11.5381C120.632 7.2905 120.841 4.03013 122.586 3.00713C124.332 1.98407 127.218 3.43118 130.293 6.52115ZM140.675 13.1515C139.583 12.9124 138.412 12.7146 137.178 12.564C137.577 13.1953 137.968 13.8464 138.349 14.5157C138.729 15.1847 139.089 15.8534 139.428 16.5195C139.916 15.36 140.333 14.2314 140.675 13.1515ZM140.408 18.5666C141.182 16.8425 141.81 15.1548 142.285 13.5491C146.457 14.7071 149.134 16.5207 149.134 18.5666C149.134 20.6124 146.457 22.426 142.285 23.5841C141.81 21.9783 141.182 20.2907 140.408 18.5666ZM138.507 18.5664C138.006 17.5217 137.452 16.4609 136.846 15.3961C136.24 14.3311 135.612 13.3134 134.971 12.3507C133.829 12.2684 132.647 12.2252 131.435 12.2252C130.224 12.2252 129.042 12.2683 127.901 12.3505C127.26 13.3135 126.632 14.3316 126.026 15.3971C125.42 16.4618 124.866 17.5224 124.365 18.5671C124.866 19.6119 125.42 20.6727 126.026 21.7375C126.631 22.8024 127.259 23.8201 127.9 24.7826C129.042 24.8649 130.224 24.908 131.435 24.908C132.647 24.908 133.829 24.8648 134.972 24.7824C135.612 23.8202 136.24 22.803 136.845 21.7385C137.451 20.6731 138.006 19.6117 138.507 18.5664ZM137.178 24.5692C137.577 23.9383 137.968 23.2877 138.348 22.6189C138.729 21.9494 139.089 21.2801 139.428 20.6135C139.917 21.773 140.333 22.9016 140.676 23.9816C139.583 24.2208 138.412 24.4186 137.178 24.5692ZM133.686 26.6166C132.948 26.6518 132.196 26.6699 131.435 26.6699C130.674 26.6699 129.924 26.6518 129.186 26.6167C129.931 27.6258 130.686 28.5567 131.436 29.3977C132.186 28.5566 132.941 27.6257 133.686 26.6166ZM132.579 30.613C133.712 29.3925 134.838 27.997 135.922 26.4546C137.78 26.2728 139.534 25.9804 141.141 25.5949C142.24 29.843 142.031 33.104 140.286 34.127C138.541 35.1501 135.654 33.703 132.579 30.613ZM130.293 30.6131C129.16 29.3927 128.034 27.9973 126.95 26.4548C125.092 26.2732 123.338 25.981 121.731 25.5956C120.632 29.8439 120.84 33.1049 122.586 34.128C124.331 35.1511 127.218 33.7037 130.293 30.6131ZM122.196 23.9822C123.289 24.2212 124.46 24.419 125.694 24.5695C125.295 23.9384 124.904 23.2876 124.523 22.6185C124.143 21.9492 123.783 21.2801 123.444 20.6137C122.955 21.7734 122.539 22.9021 122.196 23.9822ZM123.444 16.5201C123.782 15.8541 124.142 15.1855 124.523 14.5167C124.904 13.8468 125.295 13.1953 125.694 12.5636C124.46 12.7141 123.289 12.9119 122.196 13.1511C122.538 14.2313 122.955 15.3602 123.444 16.5201ZM122.464 18.5666C121.69 20.2909 121.062 21.9788 120.587 23.5847C116.413 22.4267 113.735 20.6128 113.735 18.5666C113.735 16.5203 116.413 14.7064 120.587 13.5484C121.062 15.1544 121.69 16.8422 122.464 18.5666Z" fill="white"/>
<path d="M214.193 11.0062H227.082V13.3983H221.969V25.9823H219.413V13.3983H214.193V11.0062Z" fill="white"/>
<path d="M192.995 11.0062V13.3983H182.663V17.2463H190.972V19.6383H182.663V23.5903H192.995V25.9823H180.106V13.3983H180.105V11.0062H192.995Z" fill="white"/>
<path d="M199.431 11.0125H196.085L208.069 25.9886H211.424L205.432 18.5057L211.415 11.0239L208.069 11.0291L203.756 16.414L199.431 11.0125Z" fill="white"/>
<path d="M202.864 21.71L201.188 19.6154L196.075 26H199.431L202.864 21.71Z" fill="white"/>
<path fill-rule="evenodd" clip-rule="evenodd" d="M180.196 25.9823L168.196 11H165V25.9761H167.557V14.2011L176.984 25.9823H180.196Z" fill="white"/>
<path d="M227.657 25.8911C227.47 25.8911 227.311 25.8259 227.177 25.6955C227.044 25.565 226.978 25.4071 226.98 25.22C226.978 25.038 227.044 24.8818 227.177 24.7513C227.311 24.6208 227.47 24.5556 227.657 24.5556C227.837 24.5556 227.995 24.6208 228.128 24.7513C228.264 24.8818 228.331 25.038 228.333 25.22C228.331 25.3435 228.3 25.4568 228.237 25.5581C228.173 25.6611 228.092 25.7418 227.99 25.8002C227.889 25.8603 227.778 25.8911 227.657 25.8911Z" fill="white"/>
<path d="M232.021 19.5819H233.154V23.9704C233.152 24.3737 233.065 24.7186 232.896 25.0087C232.724 25.2987 232.487 25.5201 232.182 25.6763C231.879 25.8308 231.524 25.9097 231.12 25.9097C230.751 25.9097 230.42 25.8428 230.126 25.7124C229.831 25.5819 229.597 25.3863 229.426 25.1288C229.252 24.8714 229.168 24.5504 229.168 24.166H230.302C230.304 24.3342 230.342 24.4801 230.415 24.6019C230.488 24.7238 230.588 24.8164 230.716 24.8817C230.846 24.9469 230.995 24.9795 231.163 24.9795C231.345 24.9795 231.501 24.9417 231.627 24.8645C231.754 24.789 231.851 24.6757 231.919 24.5247C231.984 24.3754 232.019 24.19 232.021 23.9704V19.5819Z" fill="white"/>
<path d="M237.815 21.2981C237.787 21.0321 237.666 20.8244 237.455 20.6768C237.242 20.5275 236.966 20.4537 236.628 20.4537C236.391 20.4537 236.187 20.4898 236.017 20.5601C235.847 20.6322 235.716 20.7283 235.625 20.8502C235.536 20.972 235.49 21.1111 235.487 21.2673C235.487 21.3977 235.518 21.5109 235.579 21.6054C235.639 21.7015 235.721 21.7821 235.826 21.8473C235.93 21.9143 236.046 21.9692 236.173 22.0138C236.301 22.0584 236.429 22.0962 236.557 22.1271L237.148 22.273C237.386 22.3279 237.616 22.4017 237.836 22.4961C238.056 22.5888 238.255 22.7072 238.43 22.8496C238.605 22.9921 238.744 23.1637 238.846 23.3645C238.948 23.5653 239 23.8004 239 24.0716C239 24.4372 238.906 24.7581 238.718 25.0361C238.529 25.3125 238.257 25.5287 237.9 25.6849C237.545 25.8394 237.115 25.9183 236.609 25.9183C236.121 25.9183 235.695 25.8428 235.336 25.6918C234.976 25.5425 234.695 25.3228 234.493 25.0344C234.29 24.7461 234.181 24.3943 234.165 23.9806H235.288C235.303 24.1969 235.373 24.3771 235.49 24.523C235.61 24.6672 235.766 24.7736 235.956 24.8456C236.149 24.916 236.363 24.9521 236.601 24.9521C236.849 24.9521 237.067 24.9143 237.256 24.8405C237.443 24.7667 237.59 24.6637 237.696 24.5299C237.803 24.3977 237.857 24.2415 237.858 24.063C237.857 23.9 237.808 23.7644 237.715 23.658C237.619 23.5516 237.488 23.4623 237.32 23.3903C237.15 23.3182 236.952 23.253 236.727 23.1963L236.01 23.0144C235.492 22.8822 235.082 22.6814 234.782 22.412C234.481 22.1425 234.331 21.7856 234.331 21.3376C234.331 20.9703 234.432 20.6477 234.635 20.3714C234.836 20.095 235.111 19.8805 235.459 19.7278C235.809 19.5733 236.204 19.4978 236.644 19.4978C237.091 19.4978 237.482 19.5733 237.82 19.7278C238.158 19.8805 238.423 20.0933 238.615 20.3645C238.808 20.6357 238.908 20.9463 238.913 21.2981H237.815Z" fill="white"/>
<path fill-rule="evenodd" clip-rule="evenodd" d="M26.885 59C18.7613 59 19.2685 62.5412 19.2685 62.5412L19.2777 66.21H27.0302V67.3116H16.1985C16.1985 67.3116 11 66.7192 11 74.9584C11 83.1976 15.5373 82.906 15.5373 82.906H18.2453V79.0824C18.2453 79.0824 18.0993 74.5216 22.7102 74.5216H30.3991C30.3991 74.5216 34.7187 74.5916 34.7187 70.3248V63.2696C34.7187 63.2696 35.3747 59 26.885 59ZM22.6102 61.4672C22.9802 61.4668 23.335 61.6144 23.5966 61.8776C23.8592 62.1408 24.0066 62.4974 24.0066 62.8692C24.0066 63.241 23.8592 63.5976 23.5966 63.8608C23.335 64.1236 22.9802 64.2712 22.6102 64.2712C22.2402 64.2712 21.8853 64.124 21.6237 63.8608C21.3612 63.5976 21.2137 63.241 21.2137 62.8692C21.2137 62.4974 21.3612 62.1408 21.6237 61.8776C21.8853 61.6148 22.2402 61.4672 22.6102 61.4672Z" fill="white"/>
<path fill-rule="evenodd" clip-rule="evenodd" d="M27.1154 91C35.2391 91 34.7319 87.4588 34.7319 87.4588L34.7227 83.79H26.9702V82.6884H37.8015C37.8015 82.6884 43 83.2812 43 75.0416C43 66.802 38.4627 67.094 38.4627 67.094H35.7547V70.9176C35.7547 70.9176 35.9007 75.4784 31.2898 75.4784H23.6013C23.6013 75.4784 19.2813 75.4084 19.2813 79.6752V86.7304C19.2813 86.7304 18.6257 91 27.1154 91ZM31.3898 88.5328C31.0198 88.5332 30.665 88.3856 30.4034 88.1224C30.1408 87.8592 29.9934 87.5026 29.9934 87.1308C29.9934 86.759 30.1408 86.4024 30.4034 86.1392C30.665 85.8764 31.0198 85.7288 31.3898 85.7288C31.7598 85.7288 32.1147 85.876 32.3763 86.1392C32.6388 86.4024 32.7863 86.759 32.7863 87.1308C32.7863 87.5026 32.6388 87.8592 32.3763 88.1224C32.1147 88.3852 31.7598 88.5328 31.3898 88.5328Z" fill="white"/>
<path d="M124.129 69.7016L120.935 72.7189L117.972 66.6495L119.505 63.1587C119.904 62.4502 120.526 62.4583 120.915 63.1587L124.129 69.7016Z" fill="white"/>
<path d="M117.972 66.6495L120.935 72.7189L109 83.992L117.972 66.6495Z" fill="white"/>
<path d="M127.621 65.0895C128.192 64.5325 128.782 64.7229 128.932 65.5117L132.039 83.8415L121.741 90.1187C121.382 90.3212 120.425 90.4083 120.425 90.4083C120.425 90.4083 119.554 90.303 119.222 90.1045L109 83.992L127.621 65.0895Z" fill="white"/>
<path d="M117.972 66.6495L109.001 83.9916L112.996 58.6456C113.144 57.8561 113.587 57.7799 113.981 58.4767L117.972 66.6495Z" fill="white"/>
<path d="M158.405 69.1873C158.298 69.1873 158.192 69.1974 158.087 69.1974C155.941 69.3121 154.493 70.2595 153.647 72.1095C152.923 73.7827 153.002 75.9697 153.655 77.6532C154.414 79.2981 155.641 80.1662 157.689 80.4941C158.122 80.5652 158.413 80.8038 159.252 81.7866L160.284 83H162.157L160.912 81.7409C160.224 81.0505 159.667 80.4493 159.667 80.3965C159.667 80.3438 159.93 80.228 160.249 80.1306C161.3 79.8116 162.172 78.9974 162.782 77.7495C163.276 76.7475 163.347 76.4377 163.418 75.1909C163.603 71.4798 161.653 69.1597 158.405 69.1862L158.405 69.1873ZM160.046 78.892C159.135 79.3346 157.813 79.4229 156.949 79.1051C156.056 78.7762 155.192 77.8462 154.803 76.7932C154.371 75.6419 154.433 73.5178 154.927 72.5612C155.721 71.0382 156.772 70.3377 158.307 70.3377C160.585 70.3377 161.881 71.7369 162.05 74.3666C162.183 76.5618 161.45 78.2087 160.047 78.891L160.046 78.892ZM192.396 72.3572C191.61 72.3572 191.009 72.6761 190.604 73.3044L190.286 73.802V72.5084H188.927V80.2657H190.285V77.7862C190.285 75.5189 190.313 75.2539 190.629 74.6335C191.065 73.7827 191.814 73.3584 192.537 73.5614L193.023 73.7036V72.3592H192.396V72.3572ZM184.409 72.2861C184.143 72.2861 183.86 72.3216 183.579 72.3836C181.76 72.8607 180.735 74.6071 180.797 76.4043C180.797 77.9091 181.089 78.6614 181.813 79.4504C183.296 80.6708 184.637 80.7682 186.447 80.1134C186.755 79.9815 187.092 79.8291 187.092 79.8291V78.6087L186.447 78.9438C184.982 79.5834 183.879 79.5834 182.995 78.83C182.431 78.2543 182.183 77.5639 182.069 76.7761H187.55V75.7301C187.55 73.5979 186.271 72.2515 184.408 72.2861H184.409ZM182.192 75.6875C182.192 75.6875 182.395 74.3574 183.146 73.8355C183.507 73.5796 183.922 73.4558 184.328 73.4558C184.735 73.4558 185.141 73.5877 185.476 73.8447C186.164 74.3757 186.28 75.6774 186.28 75.6774H182.192L182.192 75.6875ZM149.419 74.2884C147.945 73.3928 147.291 72.747 147.371 71.9855C147.6 69.8787 150.195 70.1701 151.633 70.9672L151.643 69.5498C151.643 69.5498 150.848 69.2046 149.709 69.1863C147.962 69.1599 146.833 69.7345 146.303 70.9042C145.526 72.6303 146.214 73.9319 148.702 75.384C150.099 76.1992 150.717 76.907 150.717 77.6786C150.717 79.2727 148.8 79.8292 146.824 78.829C146.417 78.6259 146.073 78.4563 146.054 78.4563C145.983 78.9082 146.02 79.9895 146.02 79.9895C146.02 79.9895 146.627 80.2454 147.538 80.422C149.798 80.8738 151.853 79.8107 152.048 78.0847C152.217 76.4642 151.633 75.6143 149.419 74.2873L149.419 74.2884ZM204.427 72.2678C204.162 72.2678 203.881 72.3044 203.587 72.3663C201.77 72.8435 200.747 74.59 200.816 76.3872C200.816 77.8899 201.107 78.6351 201.831 79.423C203.314 80.6445 204.655 80.7429 206.474 80.0871C206.782 79.9551 207.117 79.8049 207.117 79.8049V78.5825L206.473 78.9195C205.005 79.5571 203.902 79.5571 203.021 78.8038C202.454 78.2291 202.208 77.5467 202.094 76.7496H207.566V75.7038C207.566 73.5818 206.287 72.2344 204.424 72.27L204.427 72.2678ZM202.21 75.6692C202.21 75.6692 202.415 74.3411 203.165 73.8091C203.525 73.5523 203.94 73.4283 204.346 73.4283C204.751 73.4283 205.159 73.5603 205.494 73.8182C206.182 74.3492 206.298 75.6601 206.298 75.6601H202.211L202.21 75.6692ZM177.293 74.3057C175.819 73.4122 175.167 72.7643 175.246 72.0027C175.475 69.8948 178.07 70.1873 179.508 70.9844L179.518 69.567C179.518 69.567 178.723 69.2218 177.585 69.2055C175.837 69.1791 174.708 69.7538 174.177 70.9235C173.401 72.6495 174.098 73.9512 176.578 75.4032C177.973 76.2176 178.591 76.9161 178.591 77.6877C178.591 79.2819 176.676 79.8474 174.699 78.8381C174.294 78.635 173.95 78.4674 173.929 78.4674C173.859 78.9192 173.895 80.0007 173.895 80.0007C173.895 80.0007 174.495 80.2474 175.403 80.4332C177.665 80.886 179.721 79.8239 179.915 78.0978C180.083 76.4854 179.5 75.6356 177.293 74.3075L177.293 74.3057ZM212.415 72.3389C211.629 72.3389 211.021 72.6587 210.623 73.2872L210.305 73.7827V72.4912H208.946V80.2464H210.304V77.767C210.304 75.5007 210.331 75.2347 210.648 74.6153C211.084 73.7655 211.833 73.3402 212.556 73.5442L213.042 73.6863V72.339L212.415 72.3389ZM166.482 69.3202H165.112V80.2637H170.876V78.9712H166.482L166.482 69.3202ZM198.178 75.8012L197.048 78.7498L195.962 75.7849L194.858 72.4993H193.455C194.365 75.0844 195.353 77.7141 196.35 80.2637C196.783 80.2738 197.216 80.2637 197.648 80.2637L200.727 72.5003H199.386C199.386 72.5003 198.794 74.0579 198.177 75.8022L198.178 75.8012ZM169.64 64.3381C169.861 64.3381 170.045 64.2671 170.197 64.1148C170.347 63.9645 170.426 63.7878 170.426 63.5665C170.426 63.3451 170.347 63.1603 170.197 63.0182C170.045 62.8761 169.87 62.8049 169.651 62.8049C169.428 62.8049 169.244 62.8761 169.094 63.0263C168.942 63.1766 168.873 63.3614 168.873 63.5747C168.873 63.798 168.944 63.9828 169.094 64.123C169.236 64.265 169.42 64.3362 169.64 64.3362V64.3381ZM169.155 63.0791C169.286 62.9472 169.446 62.8862 169.651 62.8862C169.843 62.8862 170.003 62.9472 170.137 63.0791C170.268 63.2111 170.339 63.3715 170.339 63.5665C170.339 63.7614 170.268 63.93 170.137 64.062C170.003 64.1939 169.843 64.2569 169.651 64.2569C169.455 64.2569 169.296 64.196 169.165 64.062C169.033 63.93 168.962 63.7614 168.962 63.5665C168.962 63.3715 169.023 63.2112 169.155 63.0791ZM169.482 63.6376H169.571C169.633 63.6376 169.695 63.6985 169.748 63.8143L169.854 64.0538H170.021L169.89 63.7877C169.836 63.6812 169.783 63.6193 169.721 63.6019C169.799 63.5836 169.861 63.5573 169.906 63.5044C169.95 63.4588 169.966 63.3968 169.966 63.3267C169.966 63.2455 169.941 63.1847 169.888 63.14C169.827 63.0892 169.73 63.0618 169.604 63.0618H169.323V64.0538H169.464V63.6375L169.482 63.6376ZM169.605 63.1766C169.694 63.1766 169.757 63.1949 169.791 63.2212C169.825 63.2477 169.834 63.2823 169.834 63.3451C169.834 63.4599 169.763 63.5137 169.631 63.5137H169.48V63.1766H169.605ZM146.842 63.5492C146.842 63.204 146.832 62.9472 146.823 62.7959H146.832C146.867 62.9744 146.911 63.1076 146.946 63.1959L148.262 66.1445H148.483L149.798 63.1695C149.834 63.0884 149.869 62.9664 149.913 62.7969H149.923C149.897 63.0914 149.888 63.3472 149.888 63.5512V66.1536H150.338V62.2851H149.773L148.564 64.9758C148.519 65.0824 148.457 65.2419 148.378 65.453H148.36C148.334 65.3484 148.272 65.189 148.184 64.994L147.002 62.2759H146.401V66.1444H146.835V63.5511L146.842 63.5492ZM151.325 63.5564H151.714V65.9658H151.325V63.5564ZM151.519 62.673C151.6 62.673 151.669 62.6455 151.722 62.5918C151.775 62.539 151.811 62.4699 151.811 62.3888C151.811 62.3095 151.785 62.2384 151.723 62.1857C151.668 62.1319 151.598 62.1044 151.518 62.1044C151.439 62.1044 151.369 62.1319 151.316 62.1857C151.262 62.2384 151.227 62.3095 151.227 62.3888C151.227 62.4771 151.254 62.539 151.316 62.5918C151.377 62.6455 151.44 62.673 151.519 62.673ZM154.485 66.0186V65.5942C154.273 65.7536 154.044 65.8329 153.807 65.8329C153.524 65.8329 153.294 65.7354 153.126 65.5487C152.959 65.3638 152.87 65.1068 152.87 64.787C152.87 64.452 152.959 64.1859 153.143 63.9828C153.32 63.7879 153.55 63.6904 153.831 63.6904C154.061 63.6904 154.282 63.7616 154.485 63.9038V63.4519C154.3 63.3545 154.089 63.3097 153.85 63.3097C153.408 63.3097 153.064 63.4519 152.807 63.7262C152.552 64.0003 152.42 64.3729 152.42 64.8227C152.42 65.2227 152.535 65.5589 152.773 65.8158C153.021 66.0797 153.337 66.2138 153.726 66.2138C154.027 66.2054 154.273 66.1424 154.485 66.0186ZM155.598 64.7342C155.598 64.4164 155.668 64.1595 155.8 63.9827C155.924 63.8234 156.073 63.7432 156.251 63.7432C156.4 63.7432 156.507 63.7706 156.584 63.8326V63.3715C156.524 63.3452 156.436 63.3361 156.321 63.3361C156.162 63.3361 156.021 63.3897 155.896 63.4884C155.765 63.5928 155.659 63.7523 155.598 63.9554H155.588V63.3898H155.147V66.1516H155.589V64.7342H155.598ZM158.131 66.2064C158.546 66.2064 158.88 66.0724 159.128 65.8064C159.375 65.5423 159.499 65.187 159.499 64.7442C159.499 64.2925 159.385 63.9473 159.155 63.6903C158.926 63.4335 158.608 63.3095 158.193 63.3095C157.778 63.3095 157.444 63.4334 157.196 63.673C156.931 63.9371 156.791 64.3098 156.791 64.788C156.791 65.2043 156.904 65.5495 157.143 65.8064C157.39 66.0724 157.717 66.2054 158.131 66.2054V66.2064ZM157.504 63.9564C157.672 63.7787 157.892 63.6903 158.166 63.6903C158.449 63.6903 158.662 63.7787 158.82 63.9564C158.979 64.1422 158.82 63.9564 159.058 64.7616C159.058 65.0986 158.987 65.3637 158.837 65.5413C158.687 65.7272 158.466 65.8256 158.175 65.8256C157.891 65.8256 157.672 65.7271 157.504 65.5413C157.337 65.3545 157.257 65.0986 157.257 64.7616C157.24 64.4265 157.328 64.1524 157.504 63.9564ZM161.431 65.9658C161.599 65.8156 161.688 65.6308 161.688 65.3991C161.688 65.1961 161.617 65.0276 161.486 64.8946C161.379 64.788 161.213 64.6915 160.973 64.594C160.76 64.5048 160.629 64.4255 160.558 64.3635C160.487 64.2925 160.443 64.2042 160.443 64.0793C160.443 63.9645 160.488 63.8762 160.575 63.8051C160.664 63.7341 160.777 63.6996 160.929 63.6996C161.167 63.6996 161.371 63.7625 161.557 63.8956V63.4528C161.379 63.3636 161.185 63.3209 160.965 63.3209C160.681 63.3209 160.442 63.3992 160.266 63.5503C160.081 63.7007 159.993 63.8956 159.993 64.125C159.993 64.3281 160.053 64.4967 160.169 64.6205C160.266 64.7261 160.432 64.8338 160.663 64.9301C160.884 65.0277 161.033 65.1159 161.113 65.187C161.192 65.2581 161.228 65.3464 161.228 65.4511C161.228 65.7089 161.052 65.842 160.707 65.842C160.442 65.842 160.204 65.7546 159.992 65.578V66.0551C160.184 66.171 160.415 66.2237 160.67 66.2237C160.997 66.2064 161.253 66.1262 161.429 65.9668L161.431 65.9658ZM163.533 63.3096C163.118 63.3096 162.784 63.4335 162.536 63.6731C162.272 63.9372 162.131 64.3099 162.131 64.7881C162.131 65.2044 162.245 65.5496 162.483 65.8065C162.731 66.0724 163.057 66.2055 163.472 66.2055C163.897 66.2055 164.221 66.0715 164.469 65.8054C164.717 65.5414 164.84 65.1861 164.84 64.7433C164.84 64.2915 164.725 63.9463 164.496 63.6894C164.257 63.4325 163.939 63.3086 163.535 63.3086L163.533 63.3096ZM164.389 64.7616C164.389 65.0986 164.318 65.3637 164.168 65.5414C164.018 65.7272 163.798 65.8256 163.506 65.8256C163.223 65.8256 163.003 65.7271 162.835 65.5414C162.668 65.3546 162.588 65.0986 162.588 64.7616C162.588 64.4063 162.676 64.1322 162.853 63.9473C163.02 63.7706 163.241 63.6812 163.515 63.6812C163.789 63.6812 164.008 63.7705 164.167 63.9473C164.309 64.1422 164.388 64.4072 164.388 64.7616H164.389ZM165.581 66.1435H166.022V63.7524H166.667V63.3807H166.022V62.9543C166.022 62.5665 166.171 62.3715 166.481 62.3715C166.586 62.3715 166.692 62.3979 166.771 62.4426V62.0436C166.692 62.0081 166.586 62 166.453 62C166.215 62 166.021 62.0711 165.862 62.2213C165.676 62.398 165.578 62.6275 165.578 62.9383V63.3911H165.113V63.7627H165.578V66.1448L165.581 66.1435ZM167.39 65.3901C167.39 65.9303 167.628 66.2054 168.114 66.2054C168.29 66.2054 168.423 66.177 168.529 66.1141V65.7343C168.448 65.7953 168.352 65.8238 168.246 65.8238C168.096 65.8238 167.991 65.7881 167.929 65.7079C167.866 65.6288 167.831 65.4947 167.831 65.3099V63.7514H168.529V63.3797H167.831V62.5655C167.679 62.6182 167.53 62.6629 167.389 62.7075V63.3796H166.914V63.7513H167.389V65.3891L167.39 65.3901ZM214.763 72.481C214.613 72.3389 214.436 72.2678 214.217 72.2678C213.994 72.2678 213.81 72.3389 213.66 72.4912C213.51 72.6404 213.439 72.8262 213.439 73.0395C213.439 73.2609 213.51 73.4457 213.659 73.5877C213.809 73.7299 213.993 73.8011 214.215 73.8011C214.435 73.8011 214.62 73.7299 214.772 73.5796C214.921 73.4273 215 73.2517 215 73.0314C214.992 72.808 214.912 72.6232 214.762 72.4811L214.763 72.481ZM214.692 73.5269C214.561 73.6588 214.401 73.7197 214.206 73.7197C214.014 73.7197 213.854 73.6588 213.721 73.5269C213.589 73.3928 213.518 73.2253 213.518 73.0293C213.518 72.8364 213.579 72.676 213.712 72.542C213.844 72.4101 214.003 72.349 214.206 72.349C214.399 72.349 214.559 72.4101 214.692 72.542C214.824 72.676 214.895 72.8364 214.895 73.0293C214.895 73.2345 214.834 73.3928 214.692 73.5269ZM214.295 73.075C214.374 73.0567 214.437 73.0212 214.481 72.9776C214.525 72.9318 214.542 72.8698 214.542 72.7989C214.542 72.7197 214.516 72.6567 214.463 72.6131C214.402 72.5623 214.304 72.5349 214.179 72.5349H213.898V73.5258H214.04V73.1095H214.128C214.188 73.1095 214.249 73.1704 214.304 73.2862L214.409 73.5248H214.577L214.446 73.2587C214.4 73.1429 214.347 73.0901 214.294 73.0728L214.295 73.075ZM214.198 72.9857H214.047V72.6507H214.171C214.259 72.6507 214.321 72.6669 214.356 72.6943C214.392 72.7207 214.4 72.7553 214.4 72.8182C214.4 72.9329 214.33 72.9857 214.198 72.9857Z" fill="white"/>
<path fill-rule="evenodd" clip-rule="evenodd" d="M80.4656 116.013C80.3734 116.022 80.0903 116.049 79.8366 116.073C78.7857 116.174 77.5491 116.444 76.5028 116.8C74.1731 117.593 72.2518 118.784 70.5054 120.519C67.9869 123.02 66.4806 126.137 66.0537 129.73C65.9827 130.328 65.9819 132.408 66.0526 133.015C66.3457 135.533 67.2096 137.889 68.591 139.938C69.872 141.837 71.7438 143.569 73.756 144.715C74.666 145.234 76.2914 145.934 76.7211 145.992C77.0708 146.04 77.4243 145.869 77.5828 145.577C77.646 145.46 77.652 145.288 77.6403 143.929C77.6331 143.094 77.6207 142.405 77.6128 142.397C77.6049 142.389 77.4321 142.404 77.2288 142.431C75.7288 142.63 74.6945 142.534 73.8217 142.114C73.4943 141.957 73.3679 141.866 73.0879 141.586C72.7407 141.238 72.7156 141.198 72.2727 140.27C71.8744 139.436 71.3004 138.693 70.8074 138.374C70.4135 138.119 70.2057 137.936 70.1436 137.788C70.0266 137.511 70.2115 137.401 70.7954 137.402C71.3965 137.403 71.8322 137.57 72.3558 138.002C72.6833 138.272 72.8737 138.495 73.2689 139.073C73.9978 140.14 74.829 140.616 75.9576 140.613C76.4603 140.611 76.925 140.526 77.3834 140.351L77.6979 140.23L77.8073 139.783C77.9397 139.241 78.1595 138.782 78.4584 138.422L78.6812 138.154L78.4831 138.128C76.1316 137.811 74.6696 137.208 73.5444 136.093C72.4022 134.961 71.8177 133.473 71.6746 131.333C71.5458 129.406 71.9664 127.964 73.0362 126.663L73.2329 126.424L73.1483 126.165C72.8379 125.211 72.8761 123.84 73.2429 122.77C73.3783 122.375 73.3789 122.374 73.5436 122.34C73.6388 122.321 73.8469 122.325 74.0357 122.351C75.0184 122.484 76.0208 122.903 77.2969 123.713L77.6506 123.938L77.9049 123.872C78.3871 123.746 78.916 123.643 79.564 123.549C80.131 123.466 80.3801 123.453 81.514 123.452C82.3576 123.452 82.9538 123.471 83.2123 123.506C83.8675 123.595 84.5497 123.72 84.9878 123.83L85.4004 123.933L85.9104 123.616C86.5349 123.227 87.5482 122.731 88.0558 122.565C88.5383 122.407 89.2353 122.29 89.478 122.326C89.6529 122.352 89.6666 122.364 89.7503 122.57C89.8739 122.874 90.0373 123.535 90.0884 123.939C90.1797 124.661 90.1255 125.442 89.9401 126.077L89.835 126.436L90.0036 126.635C90.2611 126.937 90.6481 127.532 90.8194 127.887C91.2993 128.883 91.4739 129.919 91.3914 131.281C91.2606 133.44 90.6756 134.947 89.5236 136.093C88.4655 137.146 86.9942 137.776 84.8702 138.087C84.6172 138.124 84.4025 138.162 84.393 138.171C84.3836 138.18 84.4636 138.285 84.5708 138.403C84.8106 138.667 85.1152 139.27 85.2219 139.691C85.3836 140.328 85.4028 140.73 85.3871 143.139C85.3727 145.342 85.3757 145.454 85.4519 145.606C85.4959 145.694 85.6078 145.816 85.7005 145.877C85.8444 145.971 85.9126 145.987 86.1657 145.985C86.416 145.983 86.5442 145.952 86.9865 145.784C87.6199 145.543 88.7198 145.021 89.2809 144.695C93.7333 142.109 96.5792 137.594 96.9708 132.495C97.0244 131.797 97.001 130.32 96.9263 129.688C96.338 124.715 93.5166 120.469 89.1467 117.981C87.4192 116.998 85.4088 116.343 83.3382 116.088C82.8444 116.027 80.8546 115.975 80.4656 116.013Z" fill="white"/>
<path d="M45.5 137.666L39 144L32.5 137.666L26 144V119L39 131.668L52 119V144L45.5 137.666Z" fill="white"/>
<path fill-rule="evenodd" clip-rule="evenodd" d="M257.274 146.867C257.746 147.059 258.285 147.046 258.762 146.808L264.938 143.721C265.587 143.397 266 142.714 266 141.966V121.034C266 120.286 265.587 119.603 264.938 119.279L258.762 116.192C258.136 115.879 257.403 115.956 256.854 116.371C256.776 116.43 256.701 116.496 256.631 116.569L244.807 127.774L239.656 123.713C239.177 123.335 238.506 123.366 238.061 123.786L236.409 125.347C235.864 125.862 235.864 126.752 236.408 127.267L240.874 131.5L236.408 135.733C235.864 136.248 235.864 137.138 236.409 137.653L238.061 139.214C238.506 139.634 239.177 139.665 239.656 139.287L244.807 135.226L256.631 146.431C256.818 146.626 257.037 146.772 257.274 146.867ZM258.505 124.426L249.533 131.5L258.505 138.574V124.426Z" fill="white"/>
<path d="M264.938 119.284L258.757 116.193C258.041 115.835 257.186 115.986 256.625 116.569L236.389 135.733C235.845 136.248 235.846 137.138 236.391 137.653L238.043 139.214C238.489 139.634 239.16 139.665 239.64 139.287L264.008 120.086C264.825 119.442 266 120.047 266 121.113V121.039C266 120.291 265.587 119.609 264.938 119.284Z" fill="white"/>
<path d="M264.939 143.716L258.758 146.807C258.042 147.165 257.187 147.014 256.626 146.431L236.39 127.267C235.846 126.752 235.847 125.862 236.392 125.347L238.044 123.786C238.49 123.366 239.161 123.335 239.641 123.713L264.009 142.914C264.826 143.558 266.001 142.953 266.001 141.887V141.961C266.001 142.71 265.588 143.392 264.939 143.716Z" fill="white"/>
<path d="M258.758 146.807C258.042 147.165 257.187 147.014 256.626 146.431C257.318 147.15 258.5 146.641 258.5 145.624V117.376C258.5 116.359 257.317 115.85 256.625 116.569C257.186 115.986 258.041 115.835 258.757 116.193L264.938 119.279C265.587 119.603 266 120.286 266 121.034V141.966C266 142.714 265.587 143.397 264.938 143.721L258.758 146.807Z" fill="white"/>
<path fill-rule="evenodd" clip-rule="evenodd" d="M257.256 146.868C257.728 147.059 258.267 147.046 258.744 146.808L264.921 143.721C265.57 143.397 265.982 142.714 265.982 141.966V121.034C265.982 120.286 265.57 119.603 264.921 119.279L258.744 116.192C258.118 115.879 257.386 115.956 256.836 116.371C256.758 116.43 256.683 116.496 256.613 116.569L244.789 127.774L239.639 123.713C239.159 123.335 238.489 123.366 238.043 123.786L236.392 125.347C235.847 125.862 235.846 126.752 236.39 127.267L240.857 131.5L236.389 135.733C235.845 136.248 235.846 137.138 236.391 137.653L238.043 139.214C238.489 139.634 239.159 139.665 239.639 139.287L244.789 135.226L256.613 146.431C256.8 146.626 257.02 146.772 257.256 146.868ZM258.487 124.426L249.515 131.5L258.487 138.574V124.426Z" fill="white"/>
<path d="M116.75 148C119.924 148 122.5 145.461 122.5 142.333V136.667H116.75C113.576 136.667 111 139.205 111 142.333C111 145.461 113.576 148 116.75 148Z" fill="white"/>
<path d="M111 131C111 127.872 113.576 125.333 116.75 125.333H122.5V136.667H116.75C113.576 136.667 111 134.128 111 131Z" fill="white"/>
<path d="M111 119.667C111 116.539 113.576 114 116.75 114H122.5V125.333H116.75C113.576 125.333 111 122.795 111 119.667Z" fill="white"/>
<path d="M122.5 114H128.25C131.424 114 134 116.539 134 119.667C134 122.795 131.424 125.333 128.25 125.333H122.5V114Z" fill="white"/>
<path d="M134 131C134 134.128 131.424 136.667 128.25 136.667C125.076 136.667 122.5 134.128 122.5 131C122.5 127.872 125.076 125.333 128.25 125.333C131.424 125.333 134 127.872 134 131Z" fill="white"/>
<path d="M237.319 55.1035L238.322 57.0096C238.539 57.3538 238.793 57.6733 239.078 57.9626C239.918 58.812 240.715 59.7022 241.431 60.6553C243.13 62.913 244.275 65.408 245.093 68.1316C245.584 69.7881 245.851 71.4869 245.871 73.2052C245.953 78.342 244.213 82.7525 240.706 86.4182C240.135 86.9995 239.519 87.5329 238.862 88.0129C238.515 88.0129 238.351 87.7434 238.207 87.4948C237.941 87.0399 237.778 86.5204 237.696 86.0037C237.573 85.3824 237.491 84.7607 237.531 84.119V83.8291C237.503 83.7554 237.197 55.238 237.319 55.1035Z" fill="white" fill-opacity="0.45"/>
<path d="M237.319 55.0408C237.278 54.9577 237.237 55.0209 237.196 55.0608C237.216 55.4767 237.073 55.8475 236.849 56.2016C236.614 56.5533 236.276 56.8228 235.948 57.1128C234.129 58.7075 232.697 60.6339 231.55 62.7881C230.024 65.6871 229.237 68.7943 229.014 72.0654C228.912 73.2452 229.383 77.409 229.75 78.6101C230.753 81.7991 232.553 84.4718 234.886 86.7909C235.459 87.3494 236.06 87.8675 236.705 88.3651C236.89 88.3651 236.91 88.1988 236.94 88.0752C237.021 87.8107 237.082 87.5407 237.124 87.2672L237.535 84.1609L237.319 55.0408Z" fill="white"/>
<path d="M238.321 89.2745C238.362 88.7991 238.588 88.4046 238.833 88.0115C238.598 87.9084 238.404 87.7026 238.26 87.4735C238.137 87.2667 238.035 87.0186 237.955 86.7904C237.669 85.9206 237.608 85.008 237.525 84.1191V83.5811C237.424 83.6642 237.402 84.3677 237.402 84.4723C237.343 85.4115 237.22 86.346 237.034 87.2681C236.973 87.6413 236.932 88.013 236.705 88.3447C236.705 88.3861 236.705 88.4279 236.725 88.4897C237.093 89.5877 237.194 90.7056 237.256 91.845V92.2609C237.256 92.7576 237.237 92.653 237.644 92.8194C237.808 92.8812 237.991 92.9026 238.156 93.0262C238.279 93.0262 238.299 92.923 238.299 92.8398L238.238 92.1568V90.2508C238.218 89.918 238.279 89.5877 238.32 89.2764L238.321 89.2745Z" fill="white"/>
<path d="M253.129 62.3912C253.129 62.7148 253.137 62.969 253.152 63.1539C253.167 63.3388 253.205 63.4813 253.266 63.5815C253.335 63.6739 253.431 63.7355 253.553 63.7664C253.675 63.7972 253.846 63.8203 254.068 63.8357V64.2401H251.023V63.8357C251.244 63.8203 251.42 63.7972 251.549 63.7664C251.679 63.7355 251.778 63.6739 251.847 63.5815C251.916 63.489 251.958 63.358 251.973 63.1886C251.996 63.0114 252.007 62.7764 252.007 62.4837V61.0045C252.007 60.5654 252 60.1995 251.984 59.9067C251.977 59.614 251.958 59.4137 251.927 59.3058C251.904 59.2057 251.878 59.1286 251.847 59.0747C251.817 59.0131 251.767 58.9668 251.698 58.936C251.63 58.8975 251.538 58.8744 251.424 58.8667C251.317 58.8513 251.176 58.8436 251 58.8436V58.4391L252.866 58L253.015 59.1556H253.072C253.415 58.7627 253.774 58.4738 254.148 58.2889C254.529 58.0963 254.949 58 255.407 58C255.888 58 256.292 58.1002 256.62 58.3005C256.949 58.4931 257.178 58.7742 257.307 59.144H257.353C257.635 58.7819 257.979 58.5008 258.383 58.3005C258.788 58.1002 259.219 58 259.677 58C260.035 58 260.36 58.0616 260.65 58.1849C260.947 58.3005 261.173 58.4622 261.325 58.6702C261.462 58.8474 261.558 59.0824 261.611 59.3751C261.672 59.6602 261.703 60.0531 261.703 60.5538V62.3912C261.703 62.7071 261.711 62.9574 261.726 63.1423C261.749 63.3272 261.791 63.4698 261.852 63.5699C261.913 63.6701 262.004 63.7355 262.126 63.7664C262.256 63.7972 262.432 63.8203 262.653 63.8357V64.2401H259.608V63.8357C259.822 63.828 259.993 63.8087 260.123 63.7779C260.253 63.7394 260.352 63.6739 260.421 63.5815C260.49 63.4813 260.531 63.3465 260.547 63.177C260.57 63.0075 260.581 62.7764 260.581 62.4837V61.0276C260.581 60.5885 260.558 60.2187 260.512 59.9183C260.467 59.6101 260.39 59.3636 260.283 59.1787C260.177 58.9861 260.035 58.8474 259.86 58.7627C259.692 58.6779 259.486 58.6356 259.242 58.6356C258.906 58.6356 258.589 58.7319 258.292 58.9245C258.002 59.1094 257.773 59.3597 257.605 59.6756C257.567 59.7526 257.532 59.8297 257.502 59.9067C257.479 59.976 257.46 60.0569 257.445 60.1494C257.429 60.2341 257.418 60.3381 257.41 60.4614C257.41 60.5847 257.41 60.7387 257.41 60.9236V62.3912C257.41 62.7071 257.418 62.9574 257.433 63.1423C257.448 63.3272 257.487 63.4698 257.548 63.5699C257.616 63.6701 257.716 63.7355 257.845 63.7664C257.975 63.7972 258.151 63.8203 258.372 63.8357V64.2401H255.327V63.8357C255.541 63.8203 255.712 63.7972 255.842 63.7664C255.972 63.7355 256.067 63.6739 256.128 63.5815C256.197 63.489 256.239 63.358 256.254 63.1886C256.277 63.0114 256.288 62.7764 256.288 62.4837V61.0276C256.288 60.5808 256.266 60.2072 256.22 59.9067C256.174 59.5986 256.098 59.352 255.991 59.1671C255.892 58.9745 255.758 58.8397 255.59 58.7627C255.422 58.6779 255.216 58.6356 254.972 58.6356C254.629 58.6356 254.304 58.7319 253.999 58.9245C253.701 59.1094 253.476 59.3597 253.324 59.6756C253.286 59.7526 253.251 59.8297 253.221 59.9067C253.198 59.976 253.179 60.0569 253.163 60.1494C253.148 60.2341 253.137 60.3381 253.129 60.4614C253.129 60.5847 253.129 60.7387 253.129 60.9236V62.3912Z" fill="white"/>
<path d="M266.605 58C267.04 58 267.452 58.0809 267.841 58.2427C268.23 58.3967 268.57 58.6125 268.86 58.8898C269.158 59.1671 269.39 59.4984 269.558 59.8836C269.734 60.2611 269.822 60.6771 269.822 61.1316C269.822 61.6016 269.734 62.033 269.558 62.4259C269.39 62.8188 269.158 63.1578 268.86 63.4428C268.57 63.7278 268.23 63.9512 267.841 64.113C267.452 64.2748 267.04 64.3557 266.605 64.3557C266.178 64.3557 265.769 64.2787 265.38 64.1246C264.999 63.9628 264.663 63.7394 264.373 63.4543C264.083 63.1693 263.854 62.8303 263.686 62.4374C263.518 62.0368 263.434 61.6016 263.434 61.1316C263.434 60.6771 263.518 60.2572 263.686 59.872C263.854 59.4868 264.083 59.1556 264.373 58.8782C264.663 58.6009 264.999 58.3852 265.38 58.2311C265.769 58.077 266.178 58 266.605 58ZM266.605 58.5547C266.323 58.5547 266.063 58.6163 265.827 58.7396C265.598 58.8628 265.399 59.04 265.231 59.2711C265.071 59.4946 264.945 59.768 264.854 60.0916C264.77 60.4075 264.728 60.758 264.728 61.1432C264.728 61.5438 264.77 61.9059 264.854 62.2294C264.945 62.553 265.071 62.8303 265.231 63.0615C265.399 63.2849 265.598 63.4582 265.827 63.5815C266.056 63.7047 266.315 63.7664 266.605 63.7664C266.895 63.7664 267.158 63.7047 267.395 63.5815C267.631 63.4582 267.834 63.281 268.001 63.0499C268.169 62.8188 268.299 62.5414 268.391 62.2179C268.482 61.8943 268.528 61.5361 268.528 61.1432C268.528 60.758 268.482 60.4075 268.391 60.0916C268.299 59.7757 268.169 59.5061 268.001 59.2827C267.834 59.0516 267.631 58.8744 267.395 58.7511C267.158 58.6202 266.895 58.5547 266.605 58.5547Z" fill="white"/>
<path d="M272.847 62.4259C272.847 62.7417 272.855 62.9921 272.87 63.177C272.885 63.3542 272.923 63.4929 272.984 63.593C273.053 63.6855 273.148 63.7471 273.27 63.7779C273.4 63.8087 273.576 63.8318 273.797 63.8472V64.2401H270.798V63.8472C271.012 63.8318 271.18 63.8087 271.302 63.7779C271.431 63.7471 271.531 63.6855 271.599 63.593C271.668 63.5006 271.71 63.3696 271.725 63.2001C271.748 63.0306 271.759 62.7995 271.759 62.5068V60.9698C271.759 60.0531 271.737 59.4946 271.691 59.2943C271.668 59.1941 271.637 59.1132 271.599 59.0516C271.569 58.9822 271.519 58.9322 271.45 58.9014C271.382 58.8628 271.294 58.8397 271.187 58.832C271.08 58.8166 270.943 58.8089 270.775 58.8089V58.4391L272.607 58L272.744 59.144H272.79C273.08 58.7819 273.419 58.5008 273.808 58.3005C274.198 58.1002 274.621 58 275.079 58C275.43 58 275.751 58.0578 276.041 58.1733C276.331 58.2889 276.552 58.4468 276.705 58.6471C276.834 58.8243 276.926 59.0554 276.979 59.3405C277.033 59.6178 277.059 60.003 277.059 60.4961V62.4259C277.059 62.7417 277.067 62.9921 277.082 63.177C277.105 63.3542 277.147 63.4929 277.208 63.593C277.269 63.6855 277.361 63.7471 277.483 63.7779C277.613 63.8087 277.781 63.8318 277.987 63.8472V64.2401H275.022V63.8472C275.236 63.8395 275.403 63.8203 275.526 63.7895C275.655 63.7509 275.751 63.6855 275.812 63.593C275.88 63.5006 275.922 63.3696 275.938 63.2001C275.961 63.0229 275.972 62.7918 275.972 62.5068V60.9814C275.972 60.5423 275.949 60.1725 275.903 59.872C275.857 59.5716 275.781 59.3289 275.674 59.144C275.575 58.9591 275.442 58.8282 275.274 58.7511C275.106 58.6664 274.904 58.624 274.667 58.624C274.324 58.624 274.007 58.7165 273.717 58.9014C273.435 59.0785 273.213 59.3251 273.053 59.6409C273.015 59.718 272.98 59.7912 272.95 59.8605C272.927 59.9298 272.908 60.0107 272.893 60.1032C272.877 60.1956 272.866 60.3035 272.858 60.4267C272.851 60.5423 272.847 60.6925 272.847 60.8774V62.4259Z" fill="white"/>
<path d="M281.403 61.7556C281.723 61.7556 281.972 61.6093 282.147 61.3165C282.33 61.0238 282.422 60.6116 282.422 60.08C282.422 59.5562 282.33 59.1517 282.147 58.8667C281.972 58.5739 281.72 58.4276 281.392 58.4276C281.063 58.4276 280.8 58.5739 280.602 58.8667C280.411 59.1594 280.316 59.56 280.316 60.0685C280.316 60.5769 280.415 60.9853 280.613 61.2934C280.812 61.6016 281.075 61.7556 281.403 61.7556ZM280.773 63.1077C280.957 63.1231 281.124 63.1385 281.277 63.1539C281.43 63.1693 281.579 63.1847 281.724 63.2001C281.876 63.2155 282.025 63.2348 282.17 63.2579C282.323 63.281 282.487 63.3041 282.662 63.3272C283.212 63.412 283.65 63.6277 283.979 63.9744C284.314 64.3133 284.482 64.7409 284.482 65.2571C284.482 65.9042 284.227 66.3972 283.715 66.7362C283.212 67.0752 282.479 67.2447 281.517 67.2447C281.09 67.2447 280.697 67.2061 280.338 67.1291C279.987 67.0521 279.686 66.9404 279.434 66.794C279.182 66.6553 278.984 66.4858 278.839 66.2855C278.702 66.0852 278.633 65.8657 278.633 65.6268C278.633 65.4651 278.66 65.3148 278.713 65.1762C278.766 65.0375 278.839 64.9142 278.93 64.8064C279.022 64.7062 279.129 64.6253 279.251 64.5637C279.381 64.5021 279.514 64.4713 279.652 64.4713C279.911 64.4713 280.144 64.5522 280.35 64.7139C280.144 64.7602 279.976 64.8719 279.846 65.049C279.716 65.2339 279.652 65.4419 279.652 65.6731C279.652 66.012 279.816 66.274 280.144 66.4589C280.48 66.6438 280.953 66.7362 281.563 66.7362C282.868 66.7362 283.521 66.3318 283.521 65.5228C283.521 65.2147 283.418 64.9566 283.212 64.7486C283.006 64.5483 282.761 64.4289 282.479 64.3904C282.296 64.3673 282.105 64.3403 281.907 64.3095C281.716 64.2864 281.525 64.2633 281.334 64.2401C281.151 64.217 280.979 64.1978 280.819 64.1824C280.659 64.167 280.529 64.1515 280.43 64.1361C280.003 64.0899 279.678 63.9744 279.457 63.7895C279.236 63.6046 279.125 63.3503 279.125 63.0268C279.125 62.7571 279.236 62.5183 279.457 62.3103C279.678 62.1023 279.957 61.9714 280.293 61.9174V61.8712C280.125 61.8019 279.968 61.7056 279.823 61.5823C279.678 61.4513 279.552 61.305 279.446 61.1432C279.346 60.9814 279.266 60.8081 279.205 60.6232C279.144 60.4306 279.114 60.2341 279.114 60.0338C279.114 59.7411 279.167 59.4714 279.274 59.2249C279.388 58.9784 279.545 58.7665 279.743 58.5893C279.949 58.4045 280.19 58.2619 280.464 58.1618C280.739 58.0539 281.041 58 281.369 58C281.704 58 282.021 58.0539 282.319 58.1618C282.616 58.2619 282.872 58.4122 283.086 58.6125C283.345 58.3967 283.574 58.2427 283.773 58.1502C283.971 58.0501 284.158 58 284.333 58C284.608 58 284.826 58.0655 284.986 58.1964C285.154 58.3197 285.238 58.4892 285.238 58.7049C285.238 58.8359 285.192 58.9399 285.1 59.0169C285.016 59.094 284.91 59.1325 284.78 59.1325C284.673 59.1325 284.585 59.1132 284.517 59.0747C284.448 59.0362 284.383 58.9977 284.322 58.9591C284.269 58.9129 284.211 58.8705 284.15 58.832C284.089 58.7935 284.013 58.7742 283.921 58.7742C283.738 58.7742 283.551 58.8397 283.36 58.9707C283.544 59.2557 283.635 59.614 283.635 60.0454C283.635 60.7002 283.433 61.2164 283.028 61.5939C282.624 61.9636 282.017 62.1794 281.208 62.241C280.743 62.2795 280.419 62.3296 280.235 62.3912C280.052 62.4528 279.961 62.5646 279.961 62.7263C279.961 62.8496 280.029 62.942 280.167 63.0037C280.304 63.0576 280.506 63.0923 280.773 63.1077Z" fill="white"/>
<path d="M288.783 58C289.218 58 289.63 58.0809 290.02 58.2427C290.409 58.3967 290.748 58.6125 291.038 58.8898C291.336 59.1671 291.569 59.4984 291.737 59.8836C291.912 60.2611 292 60.6771 292 61.1316C292 61.6016 291.912 62.033 291.737 62.4259C291.569 62.8188 291.336 63.1578 291.038 63.4428C290.748 63.7278 290.409 63.9512 290.02 64.113C289.63 64.2748 289.218 64.3557 288.783 64.3557C288.356 64.3557 287.948 64.2787 287.559 64.1246C287.177 63.9628 286.841 63.7394 286.551 63.4543C286.261 63.1693 286.032 62.8303 285.864 62.4374C285.697 62.0368 285.613 61.6016 285.613 61.1316C285.613 60.6771 285.697 60.2572 285.864 59.872C286.032 59.4868 286.261 59.1556 286.551 58.8782C286.841 58.6009 287.177 58.3852 287.559 58.2311C287.948 58.077 288.356 58 288.783 58ZM288.783 58.5547C288.501 58.5547 288.242 58.6163 288.005 58.7396C287.776 58.8628 287.578 59.04 287.41 59.2711C287.25 59.4946 287.124 59.768 287.032 60.0916C286.948 60.4075 286.906 60.758 286.906 61.1432C286.906 61.5438 286.948 61.9059 287.032 62.2294C287.124 62.553 287.25 62.8303 287.41 63.0615C287.578 63.2849 287.776 63.4582 288.005 63.5815C288.234 63.7047 288.493 63.7664 288.783 63.7664C289.073 63.7664 289.337 63.7047 289.573 63.5815C289.81 63.4582 290.012 63.281 290.18 63.0499C290.348 62.8188 290.478 62.5414 290.569 62.2179C290.661 61.8943 290.706 61.5361 290.706 61.1432C290.706 60.758 290.661 60.4075 290.569 60.0916C290.478 59.7757 290.348 59.5061 290.18 59.2827C290.012 59.0516 289.81 58.8744 289.573 58.7511C289.337 58.6202 289.073 58.5547 288.783 58.5547Z" fill="white"/>
<path d="M251.583 90V89.0074C252.238 88.99 252.764 88.9465 253.161 88.8768C253.575 88.7897 253.894 88.6417 254.118 88.4327C254.343 88.2064 254.489 87.9103 254.558 87.5446C254.644 87.1615 254.688 86.6565 254.688 86.0296V73.8572C254.688 73.2477 254.653 72.7602 254.584 72.3945C254.532 72.0114 254.412 71.7153 254.222 71.5063C254.049 71.28 253.791 71.132 253.446 71.0623C253.101 70.9752 252.652 70.9143 252.1 70.8794V69.8868H261.182C262.735 69.8868 264.166 70.1481 265.477 70.6705C266.806 71.1929 267.944 71.9156 268.893 72.8385C269.859 73.7615 270.609 74.8585 271.144 76.1298C271.679 77.401 271.946 78.7854 271.946 80.283C271.946 81.7109 271.696 83.0257 271.196 84.2273C270.695 85.4114 269.988 86.4301 269.074 87.2834C268.177 88.1367 267.099 88.8071 265.84 89.2947C264.58 89.7649 263.2 90 261.7 90H251.583ZM257.844 71.1668C257.551 71.1668 257.404 71.3148 257.404 71.6108V85.7423C257.404 87.7275 258.69 88.7201 261.26 88.7201C263.623 88.7201 265.434 88.0148 266.694 86.6043C267.953 85.1763 268.582 83.0866 268.582 80.3352C268.582 78.8899 268.41 77.6012 268.065 76.4693C267.72 75.3374 267.22 74.3797 266.564 73.596C265.926 72.8124 265.15 72.2116 264.235 71.7937C263.321 71.3757 262.286 71.1668 261.13 71.1668H257.844Z" fill="white"/>
<path d="M274.122 90V89.0074C274.795 88.99 275.33 88.9377 275.726 88.8507C276.14 88.7636 276.451 88.6156 276.658 88.4066C276.882 88.1976 277.029 87.9016 277.098 87.5185C277.184 87.1354 277.227 86.6391 277.227 86.0296V73.8572C277.227 73.2477 277.193 72.7602 277.124 72.3945C277.072 72.0114 276.951 71.7153 276.761 71.5063C276.589 71.28 276.33 71.132 275.985 71.0623C275.64 70.9752 275.192 70.9143 274.64 70.8794V69.8868H282.376C284.705 69.8868 286.516 70.3048 287.81 71.1407C289.104 71.9765 289.75 73.152 289.75 74.667C289.75 75.8163 289.388 76.7567 288.664 77.4881C287.956 78.2194 286.827 78.8202 285.274 79.2904V79.3949C285.809 79.4471 286.275 79.5081 286.671 79.5777C287.068 79.6474 287.422 79.7345 287.732 79.8389C288.043 79.926 288.327 80.0392 288.586 80.1785C288.862 80.3178 289.129 80.4745 289.388 80.6487C290.923 81.7458 291.691 83.1215 291.691 84.7758C291.691 85.6987 291.432 86.5607 290.915 87.3618C290.415 88.1454 289.707 88.7636 288.793 89.2164C288.5 89.3731 288.198 89.5037 287.887 89.6082C287.577 89.6953 287.215 89.7736 286.801 89.8433C286.387 89.8955 285.904 89.939 285.352 89.9739C284.817 89.9913 284.179 90 283.437 90H274.122ZM283.515 88.8768C286.637 88.8768 288.198 87.5272 288.198 84.828C288.198 82.8603 287.396 81.4846 285.792 80.7009C285.516 80.579 285.248 80.4746 284.989 80.3875C284.731 80.3004 284.429 80.2395 284.084 80.2046C283.739 80.1524 283.325 80.1176 282.842 80.1002C282.376 80.0827 281.798 80.074 281.108 80.074H279.944V85.899C279.944 86.9613 280.22 87.7275 280.772 88.1977C281.324 88.6504 282.238 88.8768 283.515 88.8768ZM281.393 78.768C281.928 78.768 282.376 78.7593 282.738 78.7419C283.101 78.7244 283.411 78.6983 283.67 78.6635C283.929 78.6113 284.153 78.5503 284.343 78.4807C284.55 78.3936 284.757 78.2804 284.964 78.1411C285.516 77.7928 285.904 77.3749 286.128 76.8873C286.369 76.3997 286.49 75.7641 286.49 74.9804C286.49 73.6047 286.154 72.6208 285.481 72.0288C284.826 71.4193 283.791 71.1145 282.376 71.1145H280.384C280.091 71.1145 279.944 71.2626 279.944 71.5586V78.768H281.393Z" fill="white"/>
<path fill-rule="evenodd" clip-rule="evenodd" d="M71.2353 4.23565C66.7153 5.09125 63.7272 7.92927 62.2803 12.7409L62.0695 13.4421L63.2434 12.2773C63.9957 11.5308 64.8356 10.9053 65.5821 10.5356C66.6881 9.98781 66.8106 9.72251 68.6143 9.72251C71.2513 9.72251 71.8428 10.2514 74.964 13.2635C76.2743 14.5282 77.9013 15.934 78.5793 16.3875C82.3294 18.8959 88.272 19.2257 92.3544 17.1524C94.8126 15.9039 97.3289 12.5451 97.9551 9.67654C98.0726 9.13811 98.0327 9.16117 96.912 10.2776C96.1671 11.0198 95.336 11.6408 94.608 11.9992C93.5344 12.5277 93.3603 12.5598 91.5731 12.5598C88.9592 12.5598 88.387 12.2598 85.2757 9.25863C82.7239 6.79743 81.0771 5.58304 79.3806 4.91212C77.1524 4.03068 73.7924 3.75166 71.2353 4.23565ZM59.1705 18.802C54.728 19.6431 51.7082 22.4502 50.2963 27.0515L50 28.0172L51.1482 26.8619C53.0741 24.9243 55.1765 24.1418 57.5774 24.4696C59.3054 24.7054 60.3049 25.3176 62.6095 27.5516C65.1962 30.0593 66.2441 30.8961 67.7568 31.6626C69.7711 32.6833 71.2193 32.9895 74.0791 32.9998C76.9009 33.01 78.4487 32.6835 80.3641 31.6744C81.6062 31.02 83.8563 28.8412 84.4346 27.7332C85.0826 26.4908 85.7474 24.8981 85.8868 24.2528L86.0154 23.658L85.1274 24.5631C83.1286 26.6003 81.5581 27.2884 79.1636 27.1756C76.9065 27.0693 76.0319 26.5713 73.1212 23.735C70.7337 21.4086 69.0736 20.1843 67.3516 19.4802C65.2239 18.6104 61.7182 18.3198 59.1705 18.802Z" fill="white"/>
<path fill-rule="evenodd" clip-rule="evenodd" d="M33.9918 0H2.00816C0.881633 0 0 0.882834 0 1.96185V34.0381C0 35.1172 0.881633 36 2.00816 36H33.9918C35.0694 36 36 35.1172 36 34.0381V1.96185C35.951 0.882834 35.0694 0 33.9918 0ZM18.7102 26.7793C18.7102 27.7602 18.5143 28.6431 18.0735 29.3297C17.6816 30.0654 17.0939 30.6049 16.3102 30.9973C15.5755 31.3896 14.6939 31.5858 13.7143 31.5858C12.8327 31.5858 12 31.4387 11.2653 31.0954C10.5306 30.752 9.99184 30.3106 9.55102 29.673C9.1102 29.0354 8.91429 28.2507 8.91429 27.3188H11.7061C11.7061 27.7112 11.8041 28.1035 11.951 28.3978C12.1469 28.6921 12.3918 28.9373 12.6857 29.0845C13.0286 29.2316 13.3714 29.3297 13.7633 29.3297C14.2041 29.3297 14.5959 29.2316 14.8898 29.0354C15.1837 28.8392 15.4286 28.545 15.5755 28.2016C15.7224 27.8093 15.8204 27.3678 15.8204 26.8283V16.0381H18.5633V26.7793H18.7102ZM32.2776 29.3787C31.8367 30.0654 31.151 30.6049 30.2694 30.9482C29.3878 31.3406 28.3592 31.5368 27.1347 31.5368C25.9592 31.5368 24.8816 31.3406 24 30.9973C23.1184 30.6049 22.4327 30.0654 21.9429 29.3787C21.4531 28.6921 21.2082 27.8093 21.1592 26.7793H23.902C23.951 27.3188 24.098 27.7602 24.3918 28.1035C24.6857 28.4469 25.0776 28.7411 25.5184 28.8883C26.0082 29.0845 26.498 29.1335 27.0857 29.1335C27.6735 29.1335 28.2122 29.0354 28.6531 28.8883C29.0939 28.6921 29.4857 28.4469 29.7306 28.1035C29.9755 27.7602 30.1224 27.3678 30.1224 26.9264C30.1224 26.5341 30.0245 26.1907 29.7796 25.9455C29.5347 25.7003 29.2408 25.455 28.8 25.2589C28.4082 25.0627 27.9184 24.9155 27.3796 24.7684L25.6163 24.327C24.3429 23.9836 23.3633 23.4932 22.6286 22.8556C21.8939 22.1689 21.551 21.2861 21.551 20.2071C21.551 19.3243 21.7959 18.4905 22.2857 17.8529C22.7755 17.1662 23.4612 16.6267 24.2939 16.2834C25.1265 15.891 26.1061 15.6948 27.1837 15.6948C28.2612 15.6948 29.2408 15.891 30.0245 16.2834C30.8571 16.6757 31.4939 17.1662 31.9837 17.8529C32.4735 18.5395 32.7184 19.2752 32.7184 20.158H30.0245C29.9755 19.5204 29.6327 18.9809 29.1429 18.6376C28.6531 18.2943 27.9673 18.0981 27.1347 18.0981C26.5469 18.0981 26.0571 18.1962 25.6653 18.3433C25.2245 18.5395 24.9306 18.7357 24.7347 19.079C24.4898 19.3733 24.3918 19.7166 24.3918 20.109C24.3918 20.4523 24.4408 20.6975 24.5878 20.9428C24.7347 21.188 24.9306 21.3842 25.1755 21.5313C25.4204 21.6785 25.7143 21.8256 26.0082 21.9237C26.302 22.0218 26.6449 22.1199 26.9388 22.218L28.3592 22.5613C28.9469 22.7084 29.4857 22.8556 30.0245 23.1008C30.5633 23.346 31.0531 23.6403 31.4939 23.9837C31.9347 24.327 32.2776 24.7684 32.5224 25.2589C32.7673 25.7493 32.9143 26.3379 32.9143 26.9755C32.9633 27.9074 32.7673 28.6921 32.2776 29.3787Z" fill="white"/>
<path fill-rule="evenodd" clip-rule="evenodd" d="M286.992 0H255.008C253.931 0 253 0.882834 253 1.96185V34.0381C253 35.1172 253.882 36 255.008 36H286.992C288.069 36 289 35.1172 289 34.0381V1.96185C289 0.882834 288.118 0 286.992 0ZM272.837 18.1471H268.233V30.3597H265.588V18.1471H260.984V15.9401H272.837V18.1471ZM285.327 28.545C284.886 29.1826 284.249 29.673 283.416 30.0163C282.584 30.3597 281.555 30.5559 280.38 30.5559C279.204 30.5559 278.224 30.3597 277.392 30.0163C276.559 29.673 275.873 29.1826 275.384 28.4959C274.894 27.8093 274.649 27.0245 274.6 26.0436H277.245C277.294 26.5341 277.441 26.9755 277.735 27.2698C278.029 27.6131 278.371 27.8583 278.812 28.0054C279.253 28.1526 279.792 28.2507 280.331 28.2507C280.918 28.2507 281.408 28.1526 281.849 28.0054C282.29 27.8093 282.633 27.6131 282.878 27.2698C283.122 26.9755 283.269 26.5831 283.269 26.1907C283.269 25.7984 283.171 25.5041 282.927 25.2589C282.682 25.0136 282.388 24.8174 281.996 24.6213C281.604 24.4741 281.114 24.327 280.625 24.1798L278.91 23.7384C277.686 23.4441 276.706 22.9537 276.02 22.3651C275.335 21.7275 274.943 20.8937 274.943 19.9128C274.943 19.079 275.188 18.3433 275.678 17.7057C276.167 17.0681 276.804 16.5777 277.637 16.2343C278.469 15.891 279.4 15.6948 280.429 15.6948C281.506 15.6948 282.388 15.891 283.22 16.2343C284.004 16.5777 284.641 17.0681 285.082 17.7057C285.522 18.3433 285.767 19.03 285.767 19.8638H283.22C283.171 19.2752 282.878 18.7847 282.388 18.4414C281.898 18.0981 281.261 17.951 280.429 17.951C279.89 17.951 279.4 18.049 278.959 18.1962C278.567 18.3433 278.273 18.5886 278.029 18.8828C277.833 19.1771 277.686 19.4714 277.686 19.8638C277.686 20.158 277.735 20.4033 277.882 20.6485C278.029 20.8447 278.224 21.0409 278.469 21.188C278.714 21.3352 279.008 21.4823 279.302 21.5804C279.596 21.6785 279.89 21.7766 280.184 21.8256L281.555 22.1689C282.094 22.3161 282.633 22.4632 283.171 22.6594C283.71 22.8556 284.151 23.1499 284.592 23.4932C284.984 23.8365 285.327 24.2289 285.571 24.6703C285.816 25.1117 285.914 25.6512 285.914 26.2888C286.012 27.1717 285.767 27.9074 285.327 28.545Z" fill="white"/>
<path d="M205.317 127.067C205.512 127.461 205.609 127.91 205.609 128.36C205.609 128.978 205.463 129.483 205.219 129.876C204.926 130.214 204.585 130.494 204.195 130.663C203.756 130.831 203.268 130.944 202.78 130.944H202.097C201.951 130.944 201.804 130.944 201.609 130.888V125.944C201.707 125.944 201.853 125.944 202.097 125.944C202.341 125.944 202.634 125.944 202.926 125.944C203.414 125.944 203.951 126 204.39 126.225C204.78 126.393 205.073 126.73 205.317 127.067Z" fill="white"/>
<path d="M216.697 116H197.303C194.357 116 192 118.451 192 121.441V140.559C192 143.598 194.357 146 197.303 146H216.697C219.643 146 222 143.549 222 140.559V121.441C222 118.451 219.594 116 216.697 116ZM207.417 130.951C206.926 131.686 206.19 132.225 205.404 132.52C204.57 132.863 203.588 132.961 202.606 132.961C202.311 132.961 202.115 132.961 201.967 132.961C201.82 132.961 201.673 132.961 201.427 132.961V137.078C201.427 137.176 201.378 137.226 201.28 137.275H198.825C198.727 137.275 198.678 137.225 198.678 137.127V123.941C198.678 123.843 198.727 123.794 198.825 123.794C199.021 123.794 199.218 123.794 199.512 123.794C199.807 123.794 200.101 123.794 200.445 123.745C200.789 123.745 201.133 123.745 201.525 123.696C201.918 123.696 202.262 123.696 202.655 123.696C203.686 123.696 204.52 123.843 205.208 124.088C205.846 124.284 206.386 124.676 206.877 125.118C207.27 125.51 207.614 126.049 207.81 126.588C208.007 127.127 208.105 127.667 208.105 128.255C208.154 129.333 207.908 130.216 207.417 130.951ZM216.304 135.951C215.961 136.441 215.47 136.882 214.881 137.078C214.291 137.324 213.506 137.471 212.622 137.471C212.033 137.471 211.493 137.422 210.903 137.324C210.462 137.225 210.02 137.127 209.627 136.931C209.529 136.882 209.48 136.784 209.48 136.686V134.48C209.48 134.431 209.48 134.382 209.529 134.382C209.578 134.382 209.627 134.382 209.627 134.382C210.118 134.676 210.609 134.873 211.198 135.02C211.689 135.167 212.18 135.216 212.671 135.216C213.162 135.216 213.506 135.167 213.702 135.02C213.899 134.922 214.046 134.725 214.046 134.48C214.046 134.284 213.948 134.137 213.751 133.99C213.555 133.843 213.162 133.647 212.524 133.402C211.885 133.157 211.296 132.863 210.756 132.471C210.363 132.176 210.02 131.833 209.823 131.392C209.627 131 209.529 130.51 209.529 130.069C209.529 129.529 209.676 128.99 209.971 128.5C210.265 128.01 210.756 127.569 211.296 127.324C211.885 127.029 212.622 126.882 213.506 126.882C213.997 126.882 214.537 126.931 215.077 126.98C215.47 127.029 215.813 127.127 216.157 127.275C216.206 127.275 216.255 127.324 216.304 127.373C216.304 127.422 216.304 127.471 216.304 127.52V129.627C216.304 129.676 216.304 129.725 216.255 129.775C216.157 129.775 216.059 129.775 216.01 129.775C215.617 129.578 215.224 129.431 214.831 129.333C214.34 129.235 213.899 129.186 213.408 129.186C213.162 129.186 212.917 129.186 212.671 129.284C212.524 129.333 212.376 129.431 212.278 129.529C212.229 129.627 212.18 129.775 212.18 129.873C212.18 129.971 212.229 130.118 212.327 130.216C212.426 130.363 212.573 130.461 212.769 130.559C213.064 130.706 213.358 130.853 213.653 131C214.34 131.245 214.979 131.539 215.568 131.931C215.961 132.176 216.304 132.569 216.55 133.01C216.746 133.402 216.845 133.892 216.845 134.333C216.795 134.824 216.599 135.412 216.304 135.951Z" fill="white"/>
<path d="M161.723 130.136C161.815 130.455 161.908 130.727 162 131H159C159.185 130.5 159.369 129.955 159.508 129.318C159.692 128.727 159.877 128.136 160.062 127.545C160.246 127.045 160.338 126.545 160.477 126H160.523C160.615 126.273 160.708 126.591 160.8 126.909C160.892 127.273 160.985 127.591 161.123 127.955C161.215 128.318 161.354 128.682 161.446 129.045C161.492 129.5 161.585 129.818 161.723 130.136Z" fill="white"/>
<path d="M172.697 116H153.303C150.357 116 148 118.451 148 121.441V140.559C148 143.598 150.357 146 153.303 146H172.697C175.643 146 178 143.549 178 140.559V121.441C178 118.451 175.643 116 172.697 116ZM166.314 137.127H163.712C163.614 137.127 163.516 137.078 163.516 136.98L162.484 133.941H157.82L156.887 136.931C156.838 137.029 156.74 137.127 156.642 137.127H154.285C154.137 137.127 154.088 137.029 154.137 136.882L158.164 125.02C158.213 124.873 158.262 124.775 158.262 124.578C158.311 124.333 158.36 124.039 158.36 123.745C158.36 123.696 158.409 123.598 158.458 123.598H161.699C161.797 123.598 161.846 123.647 161.846 123.696L166.412 136.882C166.462 137.078 166.462 137.127 166.314 137.127ZM170.635 136.98C170.635 137.127 170.586 137.176 170.488 137.176H168.033C167.935 137.176 167.836 137.127 167.836 136.98V127.127C167.836 126.98 167.885 126.931 167.984 126.931H170.439C170.537 126.931 170.586 126.98 170.586 127.127V136.98H170.635ZM170.39 125.412C170.095 125.706 169.653 125.902 169.26 125.853C168.867 125.853 168.426 125.706 168.131 125.412C167.836 125.118 167.689 124.676 167.689 124.235C167.689 123.794 167.836 123.402 168.131 123.108C168.426 122.814 168.818 122.667 169.26 122.667C169.751 122.667 170.144 122.814 170.39 123.108C170.684 123.402 170.831 123.843 170.782 124.235C170.831 124.676 170.684 125.118 170.39 125.412Z" fill="white"/>
<path d="M69.2912 79.3376C69.1933 79.1417 69.0954 79.0438 68.9485 78.9459C68.8015 78.8479 68.6546 78.799 68.4588 78.799C68.2629 78.799 68.116 78.8479 67.9691 78.9459C67.8222 79.0438 67.7242 79.1907 67.6263 79.3376C67.5284 79.5335 67.5283 79.7294 67.5283 79.9742C67.5283 80.2191 67.5773 80.4639 67.6263 80.6108C67.7242 80.8067 67.8222 80.9046 67.9691 81.0026C68.116 81.1005 68.2629 81.1495 68.4588 81.1495C68.6546 81.1495 68.8015 81.1005 68.9485 81.0026C69.0954 80.9046 69.1933 80.7577 69.2912 80.6108C69.3892 80.4149 69.4381 80.2191 69.4381 79.9742C69.4381 79.7294 69.3892 79.5335 69.2912 79.3376ZM69.2912 79.3376C69.1933 79.1417 69.0954 79.0438 68.9485 78.9459C68.8015 78.8479 68.6546 78.799 68.4588 78.799C68.2629 78.799 68.116 78.8479 67.9691 78.9459C67.8222 79.0438 67.7242 79.1907 67.6263 79.3376C67.5284 79.5335 67.5283 79.7294 67.5283 79.9742C67.5283 80.2191 67.5773 80.4639 67.6263 80.6108C67.7242 80.8067 67.8222 80.9046 67.9691 81.0026C68.116 81.1005 68.2629 81.1495 68.4588 81.1495C68.6546 81.1495 68.8015 81.1005 68.9485 81.0026C69.0954 80.9046 69.1933 80.7577 69.2912 80.6108C69.3892 80.4149 69.4381 80.2191 69.4381 79.9742C69.4381 79.7294 69.3892 79.5335 69.2912 79.3376ZM69.2912 79.3376C69.1933 79.1417 69.0954 79.0438 68.9485 78.9459C68.8015 78.8479 68.6546 78.799 68.4588 78.799C68.2629 78.799 68.116 78.8479 67.9691 78.9459C67.8222 79.0438 67.7242 79.1907 67.6263 79.3376C67.5284 79.5335 67.5283 79.7294 67.5283 79.9742C67.5283 80.2191 67.5773 80.4639 67.6263 80.6108C67.7242 80.8067 67.8222 80.9046 67.9691 81.0026C68.116 81.1005 68.2629 81.1495 68.4588 81.1495C68.6546 81.1495 68.8015 81.1005 68.9485 81.0026C69.0954 80.9046 69.1933 80.7577 69.2912 80.6108C69.3892 80.4149 69.4381 80.2191 69.4381 79.9742C69.4381 79.7294 69.3892 79.5335 69.2912 79.3376ZM72.5232 79.0928C72.4742 78.9948 72.4253 78.9459 72.2784 78.8969C72.1804 78.8479 72.0335 78.8479 71.8866 78.8479H71.299V79.9742H71.8866C72.0335 79.9742 72.1804 79.9253 72.2784 79.9253C72.3763 79.8763 72.4742 79.8273 72.5232 79.7294C72.5722 79.6314 72.6211 79.5335 72.6211 79.4356C72.6211 79.3376 72.5722 79.1418 72.5232 79.0928ZM72.5232 79.0928C72.4742 78.9948 72.4253 78.9459 72.2784 78.8969C72.1804 78.8479 72.0335 78.8479 71.8866 78.8479H71.299V79.9742H71.8866C72.0335 79.9742 72.1804 79.9253 72.2784 79.9253C72.3763 79.8763 72.4742 79.8273 72.5232 79.7294C72.5722 79.6314 72.6211 79.5335 72.6211 79.4356C72.6211 79.3376 72.5722 79.1418 72.5232 79.0928ZM69.2912 79.3376C69.1933 79.1417 69.0954 79.0438 68.9485 78.9459C68.8015 78.8479 68.6546 78.799 68.4588 78.799C68.2629 78.799 68.116 78.8479 67.9691 78.9459C67.8222 79.0438 67.7242 79.1907 67.6263 79.3376C67.5284 79.5335 67.5283 79.7294 67.5283 79.9742C67.5283 80.2191 67.5773 80.4639 67.6263 80.6108C67.7242 80.8067 67.8222 80.9046 67.9691 81.0026C68.116 81.1005 68.2629 81.1495 68.4588 81.1495C68.6546 81.1495 68.8015 81.1005 68.9485 81.0026C69.0954 80.9046 69.1933 80.7577 69.2912 80.6108C69.3892 80.4149 69.4381 80.2191 69.4381 79.9742C69.4381 79.7294 69.3892 79.5335 69.2912 79.3376ZM69.2912 79.3376C69.1933 79.1417 69.0954 79.0438 68.9485 78.9459C68.8015 78.8479 68.6546 78.799 68.4588 78.799C68.2629 78.799 68.116 78.8479 67.9691 78.9459C67.8222 79.0438 67.7242 79.1907 67.6263 79.3376C67.5284 79.5335 67.5283 79.7294 67.5283 79.9742C67.5283 80.2191 67.5773 80.4639 67.6263 80.6108C67.7242 80.8067 67.8222 80.9046 67.9691 81.0026C68.116 81.1005 68.2629 81.1495 68.4588 81.1495C68.6546 81.1495 68.8015 81.1005 68.9485 81.0026C69.0954 80.9046 69.1933 80.7577 69.2912 80.6108C69.3892 80.4149 69.4381 80.2191 69.4381 79.9742C69.4381 79.7294 69.3892 79.5335 69.2912 79.3376ZM72.5232 79.0928C72.4742 78.9948 72.4253 78.9459 72.2784 78.8969C72.1804 78.8479 72.0335 78.8479 71.8866 78.8479H71.299V79.9742H71.8866C72.0335 79.9742 72.1804 79.9253 72.2784 79.9253C72.3763 79.8763 72.4742 79.8273 72.5232 79.7294C72.5722 79.6314 72.6211 79.5335 72.6211 79.4356C72.6211 79.3376 72.5722 79.1418 72.5232 79.0928ZM72.5232 79.0928C72.4742 78.9948 72.4253 78.9459 72.2784 78.8969C72.1804 78.8479 72.0335 78.8479 71.8866 78.8479H71.299V79.9742H71.8866C72.0335 79.9742 72.1804 79.9253 72.2784 79.9253C72.3763 79.8763 72.4742 79.8273 72.5232 79.7294C72.5722 79.6314 72.6211 79.5335 72.6211 79.4356C72.6211 79.3376 72.5722 79.1418 72.5232 79.0928ZM69.2912 79.3376C69.1933 79.1417 69.0954 79.0438 68.9485 78.9459C68.8015 78.8479 68.6546 78.799 68.4588 78.799C68.2629 78.799 68.116 78.8479 67.9691 78.9459C67.8222 79.0438 67.7242 79.1907 67.6263 79.3376C67.5284 79.5335 67.5283 79.7294 67.5283 79.9742C67.5283 80.2191 67.5773 80.4639 67.6263 80.6108C67.7242 80.8067 67.8222 80.9046 67.9691 81.0026C68.116 81.1005 68.2629 81.1495 68.4588 81.1495C68.6546 81.1495 68.8015 81.1005 68.9485 81.0026C69.0954 80.9046 69.1933 80.7577 69.2912 80.6108C69.3892 80.4149 69.4381 80.2191 69.4381 79.9742C69.4381 79.7294 69.3892 79.5335 69.2912 79.3376ZM76 55C65.5206 55 57 63.5206 57 74C57 84.4794 65.5206 93 76 93C86.4794 93 95 84.4794 95 74C95 63.5206 86.4794 55 76 55ZM75.6572 67.2423H80.4562V68.0747H76.6366V70.7191H80.2113V71.5515H76.6366V74.2448H80.5541V75.0773H75.7062V67.2423H75.6572ZM64.4923 74C64.6392 73.8531 64.7861 73.8041 64.982 73.8041C65.1778 73.8041 65.3247 73.8531 65.4716 74C65.6186 74.1469 65.6675 74.2938 65.6675 74.4897C65.6675 74.6366 65.6185 74.7345 65.5696 74.8325C65.5206 74.9304 65.4227 75.0283 65.3247 75.0773C65.2268 75.1263 65.1289 75.1753 64.982 75.1753C64.7861 75.1753 64.6392 75.1263 64.4923 74.9794C64.3454 74.8325 64.2964 74.6856 64.2964 74.4897C64.2964 74.2938 64.3454 74.1469 64.4923 74ZM64.0026 80.6598C64.1005 80.8557 64.1985 80.9536 64.3454 81.0515C64.4923 81.1495 64.6881 81.1984 64.835 81.1984C64.933 81.1984 65.0309 81.1985 65.1289 81.1495C65.2268 81.1005 65.3247 81.1005 65.3737 81.0515C65.4716 81.0026 65.5206 80.9536 65.5696 80.8557C65.6185 80.7577 65.6675 80.7088 65.6675 80.6108H66.3041C66.3041 80.7577 66.2552 80.9536 66.1572 81.0515C66.0593 81.1985 65.9613 81.2964 65.8634 81.4433C65.7165 81.5412 65.5696 81.6392 65.4227 81.6881C65.2758 81.7371 65.0799 81.7861 64.835 81.7861C64.5412 81.7861 64.2474 81.7371 64.0026 81.5902C63.7577 81.4433 63.5619 81.2474 63.4149 81.0026C63.268 80.7577 63.2191 80.4149 63.2191 80.0722C63.2191 79.7294 63.268 79.3866 63.4149 79.1418C63.5619 78.8969 63.7577 78.6521 64.0026 78.5541C64.2474 78.4072 64.5412 78.3582 64.835 78.3582C65.0309 78.3582 65.2268 78.4072 65.3737 78.4562C65.5206 78.5052 65.7165 78.6031 65.8144 78.701C65.9613 78.799 66.0593 78.9459 66.1572 79.0928C66.2552 79.2397 66.3041 79.3866 66.3041 79.5825H65.6675C65.6675 79.4845 65.6185 79.3866 65.5696 79.3376C65.5206 79.2397 65.4716 79.1907 65.3737 79.1418C65.2758 79.0928 65.2268 79.0438 65.1289 79.0438C65.0309 78.9948 64.933 78.9948 64.835 78.9948C64.6392 78.9948 64.4923 79.0438 64.3454 79.1418C64.1985 79.2397 64.1005 79.3866 64.0026 79.5335C63.9046 79.7294 63.9046 79.9253 63.9046 80.1701C63.9046 80.268 63.9046 80.4639 64.0026 80.6598ZM69.8789 80.9536C69.732 81.1985 69.5361 81.3943 69.2912 81.5412C69.0464 81.6881 68.7526 81.7371 68.4588 81.7371C68.1649 81.7371 67.8711 81.6881 67.6263 81.5412C67.3814 81.3943 67.1856 81.1985 67.0387 80.9536C66.8918 80.7088 66.8428 80.366 66.8428 80.0232C66.8428 79.6804 66.9407 79.3376 67.0387 79.0928C67.1856 78.8479 67.3814 78.6031 67.6263 78.5051C67.8711 78.3582 68.1649 78.3093 68.4588 78.3093C68.7526 78.3093 69.0464 78.4072 69.2912 78.5051C69.5361 78.6521 69.732 78.8479 69.8789 79.0928C70.0258 79.3376 70.0747 79.6804 70.0747 80.0232C70.0747 80.366 70.0258 80.7088 69.8789 80.9536ZM72.6701 81.7371L71.9845 80.5129H71.3479V81.7371H70.7113V78.3093H72.0335C72.3273 78.3093 72.5232 78.3583 72.7191 78.4562C72.9149 78.5541 73.0619 78.701 73.1108 78.8479C73.2088 78.9948 73.2577 79.1907 73.2577 79.4356C73.2577 79.6804 73.2088 79.8273 73.1108 80.0232C73.0129 80.1701 72.866 80.317 72.6701 80.415C72.6701 80.415 72.6211 80.4149 72.6211 80.4639L73.4046 81.8351H72.6701V81.7371ZM73.7474 75.1263H72.817L68.5077 68.9562H68.4098V75.1263H67.4304V67.2912H68.3608L72.7191 73.4613H72.817V67.2912H73.7474V75.1263ZM76.1469 81.7371H73.8454V78.3093H76.1469V78.8479H74.482V79.7784H76V80.317H74.482V81.2474H76.1469V81.7371ZM81.6804 81.7371H81.0928V79.3866H81.0438L80.0644 81.7371H79.6237L78.6443 79.3866H78.5954V81.7371H77.9588V78.3093H78.7423L79.7706 80.8067H79.8196L80.8479 78.3093H81.6314V81.7371H81.6804ZM81.7784 67.2423H87.7526V68.0747H85.2062V75.0773H84.2268V68.1237H81.7784V67.2423ZM84.1778 81.7371H83.3943L82.1701 78.3093H82.8557L83.7861 81.0026H83.8351L84.7655 78.3093H85.451L84.1778 81.7371ZM86.3814 80.6598C86.4794 80.8557 86.5773 80.9536 86.7242 81.0515C86.8711 81.1495 87.067 81.1984 87.2139 81.1984C87.3119 81.1984 87.4098 81.1985 87.5077 81.1495C87.6057 81.1005 87.7036 81.1005 87.7526 81.0515C87.8015 81.0026 87.8995 80.9536 87.9485 80.8557C87.9974 80.7577 88.0464 80.7088 88.0464 80.6108H88.683C88.683 80.7577 88.585 80.9536 88.5361 81.0515C88.4381 81.1985 88.3402 81.2964 88.2423 81.4433C88.0954 81.5412 87.9485 81.6392 87.8015 81.6881C87.6546 81.7371 87.4588 81.7861 87.2139 81.7861C86.9201 81.7861 86.6263 81.7371 86.3814 81.5902C86.1366 81.4433 85.9407 81.2474 85.7938 81.0026C85.6469 80.7577 85.5979 80.4149 85.5979 80.0722C85.5979 79.7294 85.6469 79.3866 85.7938 79.1418C85.9407 78.8969 86.1366 78.6521 86.3814 78.5541C86.6263 78.4072 86.9201 78.3582 87.2139 78.3582C87.4098 78.3582 87.6057 78.4072 87.7526 78.4562C87.8995 78.5052 88.0954 78.6031 88.1933 78.701C88.3402 78.799 88.4381 78.9459 88.5361 79.0928C88.634 79.2397 88.683 79.3866 88.683 79.5825H88.0464C88.0464 79.4845 87.9974 79.3866 87.9485 79.3376C87.8995 79.2397 87.8505 79.1907 87.7526 79.1418C87.6546 79.0928 87.6057 79.0438 87.5077 79.0438C87.4098 78.9948 87.3119 78.9948 87.2139 78.9948C87.018 78.9948 86.8711 79.0438 86.7242 79.1418C86.5773 79.2397 86.4794 79.3866 86.3814 79.5335C86.2835 79.7294 86.2345 79.9253 86.2345 80.1701C86.2345 80.268 86.2835 80.4639 86.3814 80.6598ZM72.3273 78.8969C72.2294 78.8479 72.0825 78.8479 71.9356 78.8479H71.3479V79.9742H71.9356C72.0825 79.9742 72.2294 79.9253 72.3273 79.9253C72.4253 79.8763 72.5232 79.8273 72.5722 79.7294C72.6211 79.6314 72.6701 79.5335 72.6701 79.4356C72.6701 79.3376 72.6701 79.1907 72.5722 79.1418C72.4742 78.9948 72.4253 78.9459 72.3273 78.8969ZM68.9485 78.9459C68.8015 78.8479 68.6546 78.799 68.4588 78.799C68.2629 78.799 68.116 78.8479 67.9691 78.9459C67.8222 79.0438 67.7242 79.1907 67.6263 79.3376C67.5284 79.5335 67.5283 79.7294 67.5283 79.9742C67.5283 80.2191 67.5773 80.4639 67.6263 80.6108C67.7242 80.8067 67.8222 80.9046 67.9691 81.0026C68.116 81.1005 68.2629 81.1495 68.4588 81.1495C68.6546 81.1495 68.8015 81.1005 68.9485 81.0026C69.0954 80.9046 69.1933 80.7577 69.2912 80.6108C69.3892 80.4149 69.4381 80.2191 69.4381 79.9742C69.4381 79.7294 69.3892 79.4845 69.2912 79.3376C69.2423 79.1417 69.1443 79.0438 68.9485 78.9459ZM69.2912 79.3376C69.1933 79.1417 69.0954 79.0438 68.9485 78.9459C68.8015 78.8479 68.6546 78.799 68.4588 78.799C68.2629 78.799 68.116 78.8479 67.9691 78.9459C67.8222 79.0438 67.7242 79.1907 67.6263 79.3376C67.5284 79.5335 67.5283 79.7294 67.5283 79.9742C67.5283 80.2191 67.5773 80.4639 67.6263 80.6108C67.7242 80.8067 67.8222 80.9046 67.9691 81.0026C68.116 81.1005 68.2629 81.1495 68.4588 81.1495C68.6546 81.1495 68.8015 81.1005 68.9485 81.0026C69.0954 80.9046 69.1933 80.7577 69.2912 80.6108C69.3892 80.4149 69.4381 80.2191 69.4381 79.9742C69.4381 79.7294 69.3892 79.5335 69.2912 79.3376ZM72.5232 79.0928C72.4742 78.9948 72.4253 78.9459 72.2784 78.8969C72.1804 78.8479 72.0335 78.8479 71.8866 78.8479H71.299V79.9742H71.8866C72.0335 79.9742 72.1804 79.9253 72.2784 79.9253C72.3763 79.8763 72.4742 79.8273 72.5232 79.7294C72.5722 79.6314 72.6211 79.5335 72.6211 79.4356C72.6211 79.3376 72.5722 79.1418 72.5232 79.0928ZM72.5232 79.0928C72.4742 78.9948 72.4253 78.9459 72.2784 78.8969C72.1804 78.8479 72.0335 78.8479 71.8866 78.8479H71.299V79.9742H71.8866C72.0335 79.9742 72.1804 79.9253 72.2784 79.9253C72.3763 79.8763 72.4742 79.8273 72.5232 79.7294C72.5722 79.6314 72.6211 79.5335 72.6211 79.4356C72.6211 79.3376 72.5722 79.1418 72.5232 79.0928ZM69.2912 79.3376C69.1933 79.1417 69.0954 79.0438 68.9485 78.9459C68.8015 78.8479 68.6546 78.799 68.4588 78.799C68.2629 78.799 68.116 78.8479 67.9691 78.9459C67.8222 79.0438 67.7242 79.1907 67.6263 79.3376C67.5284 79.5335 67.5283 79.7294 67.5283 79.9742C67.5283 80.2191 67.5773 80.4639 67.6263 80.6108C67.7242 80.8067 67.8222 80.9046 67.9691 81.0026C68.116 81.1005 68.2629 81.1495 68.4588 81.1495C68.6546 81.1495 68.8015 81.1005 68.9485 81.0026C69.0954 80.9046 69.1933 80.7577 69.2912 80.6108C69.3892 80.4149 69.4381 80.2191 69.4381 79.9742C69.4381 79.7294 69.3892 79.5335 69.2912 79.3376ZM69.2912 79.3376C69.1933 79.1417 69.0954 79.0438 68.9485 78.9459C68.8015 78.8479 68.6546 78.799 68.4588 78.799C68.2629 78.799 68.116 78.8479 67.9691 78.9459C67.8222 79.0438 67.7242 79.1907 67.6263 79.3376C67.5284 79.5335 67.5283 79.7294 67.5283 79.9742C67.5283 80.2191 67.5773 80.4639 67.6263 80.6108C67.7242 80.8067 67.8222 80.9046 67.9691 81.0026C68.116 81.1005 68.2629 81.1495 68.4588 81.1495C68.6546 81.1495 68.8015 81.1005 68.9485 81.0026C69.0954 80.9046 69.1933 80.7577 69.2912 80.6108C69.3892 80.4149 69.4381 80.2191 69.4381 79.9742C69.4381 79.7294 69.3892 79.5335 69.2912 79.3376ZM72.5232 79.0928C72.4742 78.9948 72.4253 78.9459 72.2784 78.8969C72.1804 78.8479 72.0335 78.8479 71.8866 78.8479H71.299V79.9742H71.8866C72.0335 79.9742 72.1804 79.9253 72.2784 79.9253C72.3763 79.8763 72.4742 79.8273 72.5232 79.7294C72.5722 79.6314 72.6211 79.5335 72.6211 79.4356C72.6211 79.3376 72.5722 79.1418 72.5232 79.0928ZM72.5232 79.0928C72.4742 78.9948 72.4253 78.9459 72.2784 78.8969C72.1804 78.8479 72.0335 78.8479 71.8866 78.8479H71.299V79.9742H71.8866C72.0335 79.9742 72.1804 79.9253 72.2784 79.9253C72.3763 79.8763 72.4742 79.8273 72.5232 79.7294C72.5722 79.6314 72.6211 79.5335 72.6211 79.4356C72.6211 79.3376 72.5722 79.1418 72.5232 79.0928ZM69.2912 79.3376C69.1933 79.1417 69.0954 79.0438 68.9485 78.9459C68.8015 78.8479 68.6546 78.799 68.4588 78.799C68.2629 78.799 68.116 78.8479 67.9691 78.9459C67.8222 79.0438 67.7242 79.1907 67.6263 79.3376C67.5284 79.5335 67.5283 79.7294 67.5283 79.9742C67.5283 80.2191 67.5773 80.4639 67.6263 80.6108C67.7242 80.8067 67.8222 80.9046 67.9691 81.0026C68.116 81.1005 68.2629 81.1495 68.4588 81.1495C68.6546 81.1495 68.8015 81.1005 68.9485 81.0026C69.0954 80.9046 69.1933 80.7577 69.2912 80.6108C69.3892 80.4149 69.4381 80.2191 69.4381 79.9742C69.4381 79.7294 69.3892 79.5335 69.2912 79.3376Z" fill="white"/>
</svg>
