<?xml version="1.0" encoding="utf-8"?>
<!-- Generator: Adobe Illustrator 26.0.0, SVG Export Plug-In . SVG Version: 6.00 Build 0)  -->
<svg version="1.1" id="Layer_1" xmlns="http://www.w3.org/2000/svg" xmlns:xlink="http://www.w3.org/1999/xlink" x="0px" y="0px"
	 viewBox="0 0 596 302" style="enable-background:new 0 0 596 302;" xml:space="preserve">
<style type="text/css">
	.st0{fill-rule:evenodd;clip-rule:evenodd;fill:#FFFFFF;filter:url(#Adobe_OpacityMaskFilter);}
	.st1{mask:url(#mask0_484_43_00000037677438218453150110000001853412348561091741_);}
	.st2{fill:#0065A9;}
	.st3{fill:#007ACC;}
	.st4{fill:#1F9CF0;}
	.st5{opacity:0.25;}
	.st6{fill-rule:evenodd;clip-rule:evenodd;fill:url(#SVGID_1_);}
	.st7{fill:#001E36;}
	.st8{fill:#330000;}
	.st9{fill:#0ACF83;}
	.st10{fill:#A259FF;}
	.st11{fill:#F24E1E;}
	.st12{fill:#FF7262;}
	.st13{fill:#1ABCFE;}
	.st14{fill-rule:evenodd;clip-rule:evenodd;fill:#FFFFFF;}
	.st15{fill:#599636;}
	.st16{fill:#6CAC48;}
	.st17{fill:#C2BFBF;}
	.st18{fill:#4D3528;}
	.st19{fill:#94795D;}
	.st20{fill:#FFFFFF;}
	.st21{fill:#FFA000;}
	.st22{fill:#F57F17;}
	.st23{fill:#FFCA28;}
	.st24{fill:#5C2D91;}
	.st25{fill-rule:evenodd;clip-rule:evenodd;fill:url(#SVGID_00000065768914386363307890000016255703729150853809_);}
	.st26{fill-rule:evenodd;clip-rule:evenodd;fill:url(#SVGID_00000072992692225256331420000013562597838070697868_);}
	.st27{fill-rule:evenodd;clip-rule:evenodd;fill:#007ACC;}
	.st28{fill-rule:evenodd;clip-rule:evenodd;fill:#00D8FF;}
	.st29{fill-rule:evenodd;clip-rule:evenodd;fill:#38BDF8;}
	.st30{fill-rule:evenodd;clip-rule:evenodd;fill:#F7DF1E;}
</style>
<defs>
	<filter id="Adobe_OpacityMaskFilter" filterUnits="userSpaceOnUse" x="426.5" y="236.7" width="61.3" height="63.3">
		<feColorMatrix  type="matrix" values="1 0 0 0 0  0 1 0 0 0  0 0 1 0 0  0 0 0 1 0"/>
	</filter>
</defs>
<mask maskUnits="userSpaceOnUse" x="426.5" y="236.7" width="61.3" height="63.3" id="mask0_484_43_00000037677438218453150110000001853412348561091741_">
	<path class="st0" d="M470,299.7c1,0.4,2.1,0.4,3-0.1l12.6-6.3c1.3-0.7,2.2-2.1,2.2-3.6V247c0-1.5-0.8-2.9-2.2-3.6l-12.6-6.3
		c-1.3-0.6-2.8-0.5-3.9,0.4c-0.2,0.1-0.3,0.3-0.5,0.4l-24.1,22.9l-10.5-8.3c-1-0.8-2.3-0.7-3.3,0.2l-3.4,3.2c-1.1,1-1.1,2.9,0,3.9
		l9.1,8.6l-9.1,8.6c-1.1,1.1-1.1,2.9,0,3.9l3.4,3.2c0.9,0.9,2.3,0.9,3.3,0.1l10.5-8.3l24.1,22.9C469,299.2,469.5,299.5,470,299.7z
		 M472.5,253.9l-18.3,14.4l18.3,14.4V253.9z"/>
</mask>
<g class="st1">
	<path class="st2" d="M485.6,243.4l-12.6-6.3c-1.5-0.7-3.2-0.4-4.4,0.8L427.3,277c-1.1,1.1-1.1,2.9,0,3.9l3.4,3.2
		c0.9,0.9,2.3,0.9,3.3,0.2l49.7-39.2c1.7-1.3,4.1-0.1,4.1,2.1V247C487.8,245.5,486.9,244.1,485.6,243.4z"/>
	<g>
		<path class="st3" d="M485.6,293.3l-12.6,6.3c-1.5,0.7-3.2,0.4-4.4-0.8l-41.3-39.1c-1.1-1.1-1.1-2.9,0-3.9l3.4-3.2
			c0.9-0.9,2.3-0.9,3.3-0.2l49.7,39.2c1.7,1.3,4.1,0.1,4.1-2.1v0.2C487.8,291.2,486.9,292.6,485.6,293.3z"/>
	</g>
	<g>
		<path class="st4" d="M473,299.6c-1.5,0.7-3.2,0.4-4.4-0.8c1.4,1.5,3.8,0.4,3.8-1.6v-57.6c0-2.1-2.4-3.1-3.8-1.6
			c1.1-1.2,2.9-1.5,4.4-0.8l12.6,6.3c1.3,0.7,2.2,2.1,2.2,3.6v42.7c0,1.5-0.8,2.9-2.2,3.6L473,299.6z"/>
	</g>
	<g class="st5">
		
			<linearGradient id="SVGID_1_" gradientUnits="userSpaceOnUse" x1="457.1258" y1="67.2974" x2="457.1258" y2="4.0407" gradientTransform="matrix(1 0 0 -1 0 304)">
			<stop  offset="0" style="stop-color:#FFFFFF"/>
			<stop  offset="1" style="stop-color:#FFFFFF;stop-opacity:0"/>
		</linearGradient>
		<path class="st6" d="M469.9,299.7c1,0.4,2.1,0.4,3-0.1l12.6-6.3c1.3-0.7,2.2-2.1,2.2-3.6V247c0-1.5-0.8-2.9-2.2-3.6l-12.6-6.3
			c-1.3-0.6-2.8-0.5-3.9,0.4c-0.2,0.1-0.3,0.3-0.5,0.4l-24.1,22.9l-10.5-8.3c-1-0.8-2.3-0.7-3.3,0.2l-3.4,3.2c-1.1,1-1.1,2.9,0,3.9
			l9.1,8.6l-9.1,8.6c-1.1,1.1-1.1,2.9,0,3.9l3.4,3.2c0.9,0.9,2.3,0.9,3.3,0.1l10.5-8.3l24.1,22.9C469,299.2,469.4,299.5,469.9,299.7
			z M472.4,253.9l-18.3,14.4l18.3,14.4V253.9z"/>
	</g>
</g>
<path class="st7" d="M363.7,259.4c0.4,0.7,0.6,1.5,0.6,2.3c0,1.1-0.3,2-0.8,2.7c-0.6,0.6-1.3,1.1-2.1,1.4c-0.9,0.3-1.9,0.5-2.9,0.5
	h-1.4c-0.3,0-0.6,0-1-0.1v-8.8c0.2,0,0.5,0,1,0c0.5,0,1.1,0,1.7,0c1,0,2.1,0.1,3,0.5C362.6,258.2,363.2,258.8,363.7,259.4z"/>
<path class="st7" d="M387.2,236.7h-39.5c-6,0-10.8,5-10.8,11.1v39c0,6.2,4.8,11.1,10.8,11.1h39.5c6,0,10.8-5,10.8-11.1v-39
	C398,241.7,393.1,236.7,387.2,236.7z M368.3,267.2c-1,1.5-2.5,2.6-4.1,3.2c-1.7,0.7-3.7,0.9-5.7,0.9c-0.6,0-1,0-1.3,0
	c-0.3,0-0.6,0-1.1,0v8.4c0,0.2-0.1,0.3-0.3,0.4h-5c-0.2,0-0.3-0.1-0.3-0.3v-26.9c0-0.2,0.1-0.3,0.3-0.3c0.4,0,0.8,0,1.4,0
	c0.6,0,1.2,0,1.9-0.1c0.7,0,1.4,0,2.2-0.1c0.8,0,1.5,0,2.3,0c2.1,0,3.8,0.3,5.2,0.8c1.3,0.4,2.4,1.2,3.4,2.1c0.8,0.8,1.5,1.9,1.9,3
	c0.4,1.1,0.6,2.2,0.6,3.4C369.8,263.9,369.3,265.7,368.3,267.2z M386.4,277.4c-0.7,1-1.7,1.9-2.9,2.3c-1.2,0.5-2.8,0.8-4.6,0.8
	c-1.2,0-2.3-0.1-3.5-0.3c-0.9-0.2-1.8-0.4-2.6-0.8c-0.2-0.1-0.3-0.3-0.3-0.5v-4.5c0-0.1,0-0.2,0.1-0.2c0.1,0,0.2,0,0.2,0
	c1,0.6,2,1,3.2,1.3c1,0.3,2,0.4,3,0.4c1,0,1.7-0.1,2.1-0.4c0.4-0.2,0.7-0.6,0.7-1.1c0-0.4-0.2-0.7-0.6-1c-0.4-0.3-1.2-0.7-2.5-1.2
	c-1.3-0.5-2.5-1.1-3.6-1.9c-0.8-0.6-1.5-1.3-1.9-2.2c-0.4-0.8-0.6-1.8-0.6-2.7c0-1.1,0.3-2.2,0.9-3.2c0.6-1,1.6-1.9,2.7-2.4
	c1.2-0.6,2.7-0.9,4.5-0.9c1,0,2.1,0.1,3.2,0.2c0.8,0.1,1.5,0.3,2.2,0.6c0.1,0,0.2,0.1,0.3,0.2c0,0.1,0,0.2,0,0.3v4.3
	c0,0.1,0,0.2-0.1,0.3c-0.2,0-0.4,0-0.5,0c-0.8-0.4-1.6-0.7-2.4-0.9c-1-0.2-1.9-0.3-2.9-0.3c-0.5,0-1,0-1.5,0.2
	c-0.3,0.1-0.6,0.3-0.8,0.5c-0.1,0.2-0.2,0.5-0.2,0.7c0,0.2,0.1,0.5,0.3,0.7c0.2,0.3,0.5,0.5,0.9,0.7c0.6,0.3,1.2,0.6,1.8,0.9
	c1.4,0.5,2.7,1.1,3.9,1.9c0.8,0.5,1.5,1.3,2,2.2c0.4,0.8,0.6,1.8,0.6,2.7C387.4,275.1,387,276.3,386.4,277.4z"/>
<path class="st8" d="M274.5,266.1c0.2,0.7,0.4,1.3,0.6,1.9h-6.5c0.4-1.1,0.8-2.3,1.1-3.7c0.4-1.3,0.8-2.6,1.2-3.9
	c0.4-1.1,0.6-2.2,0.9-3.4h0.1c0.2,0.6,0.4,1.3,0.6,2c0.2,0.8,0.4,1.5,0.7,2.3c0.2,0.8,0.5,1.6,0.7,2.4
	C274,264.7,274.2,265.4,274.5,266.1z"/>
<path class="st8" d="M297.4,236.7h-39.5c-6,0-10.8,5-10.8,11.1v39c0,6.2,4.8,11.1,10.8,11.1h39.5c6,0,10.8-5,10.8-11.1v-39
	C308.2,241.7,303.4,236.7,297.4,236.7z M284.4,279.8h-5.3c-0.2,0-0.4-0.1-0.4-0.3l-2.1-6.2h-9.5l-1.9,6.1c-0.1,0.2-0.3,0.4-0.5,0.4
	h-4.8c-0.3,0-0.4-0.2-0.3-0.5l8.2-24.2c0.1-0.3,0.2-0.5,0.2-0.9c0.1-0.5,0.2-1.1,0.2-1.7c0-0.1,0.1-0.3,0.2-0.3h6.6
	c0.2,0,0.3,0.1,0.3,0.2l9.3,26.9C284.7,279.7,284.7,279.8,284.4,279.8z M293.2,279.5c0,0.3-0.1,0.4-0.3,0.4h-5
	c-0.2,0-0.4-0.1-0.4-0.4v-20.1c0-0.3,0.1-0.4,0.3-0.4h5c0.2,0,0.3,0.1,0.3,0.4V279.5z M292.7,255.9c-0.6,0.6-1.5,1-2.3,0.9
	c-0.8,0-1.7-0.3-2.3-0.9c-0.6-0.6-0.9-1.5-0.9-2.4c0-0.9,0.3-1.7,0.9-2.3c0.6-0.6,1.4-0.9,2.3-0.9c1,0,1.8,0.3,2.3,0.9
	c0.6,0.6,0.9,1.5,0.8,2.3C293.6,254.4,293.3,255.3,292.7,255.9z"/>
<path class="st9" d="M183.2,302c6.5,0,11.7-5.2,11.7-11.6v-11.6h-11.7c-6.5,0-11.7,5.2-11.7,11.6C171.5,296.8,176.7,302,183.2,302z"
	/>
<path class="st10" d="M171.5,267.3c0-6.4,5.3-11.6,11.7-11.6H195v23.1h-11.7C176.7,278.9,171.5,273.7,171.5,267.3z"/>
<path class="st11" d="M171.5,244.2c0-6.4,5.3-11.6,11.7-11.6H195v23.1h-11.7C176.7,255.7,171.5,250.6,171.5,244.2z"/>
<path class="st12" d="M195,232.6h11.7c6.5,0,11.7,5.2,11.7,11.6c0,6.4-5.3,11.6-11.7,11.6H195V232.6z"/>
<path class="st13" d="M218.4,267.3c0,6.4-5.3,11.6-11.7,11.6c-6.5,0-11.7-5.2-11.7-11.6s5.3-11.6,11.7-11.6
	C213.2,255.7,218.4,260.9,218.4,267.3z"/>
<path class="st14" d="M109.2,236.7c-0.2,0-0.8,0.1-1.3,0.1c-2.1,0.2-4.7,0.8-6.8,1.5c-4.8,1.6-8.7,4-12.2,7.6
	c-5.1,5.1-8.2,11.5-9.1,18.8c-0.1,1.2-0.1,5.5,0,6.7c0.6,5.1,2.4,9.9,5.2,14.1c2.6,3.9,6.4,7.4,10.5,9.7c1.9,1.1,5.2,2.5,6.1,2.6
	c0.7,0.1,1.4-0.3,1.8-0.8c0.1-0.2,0.1-0.6,0.1-3.4c0-1.7,0-3.1-0.1-3.1c0,0-0.4,0-0.8,0.1c-3.1,0.4-5.2,0.2-7-0.6
	c-0.7-0.3-0.9-0.5-1.5-1.1c-0.7-0.7-0.8-0.8-1.7-2.7c-0.8-1.7-2-3.2-3-3.9c-0.8-0.5-1.2-0.9-1.4-1.2c-0.2-0.6,0.1-0.8,1.3-0.8
	c1.2,0,2.1,0.3,3.2,1.2c0.7,0.6,1.1,1,1.9,2.2c1.5,2.2,3.2,3.1,5.5,3.1c1,0,2-0.2,2.9-0.5l0.6-0.2l0.2-0.9c0.3-1.1,0.7-2,1.3-2.8
	l0.5-0.5l-0.4-0.1c-4.8-0.6-7.8-1.9-10.1-4.2c-2.3-2.3-3.5-5.3-3.8-9.7c-0.3-3.9,0.6-6.9,2.8-9.5l0.4-0.5l-0.2-0.5
	c-0.6-1.9-0.6-4.7,0.2-6.9c0.3-0.8,0.3-0.8,0.6-0.9c0.2,0,0.6,0,1,0c2,0.3,4.1,1.1,6.7,2.8l0.7,0.5l0.5-0.1c1-0.3,2.1-0.5,3.4-0.7
	c1.2-0.2,1.7-0.2,4-0.2c1.7,0,2.9,0,3.5,0.1c1.3,0.2,2.7,0.4,3.6,0.7l0.8,0.2l1-0.6c1.3-0.8,3.3-1.8,4.4-2.1c1-0.3,2.4-0.6,2.9-0.5
	c0.4,0.1,0.4,0.1,0.6,0.5c0.3,0.6,0.6,2,0.7,2.8c0.2,1.5,0.1,3.1-0.3,4.4l-0.2,0.7l0.3,0.4c0.5,0.6,1.3,1.8,1.7,2.6
	c1,2,1.3,4.1,1.2,6.9c-0.3,4.4-1.5,7.5-3.8,9.8c-2.2,2.1-5.2,3.4-9.5,4.1c-0.5,0.1-1,0.2-1,0.2c0,0,0.1,0.2,0.4,0.5
	c0.5,0.5,1.1,1.8,1.3,2.6c0.3,1.3,0.4,2.1,0.3,7c0,4.5,0,4.7,0.1,5c0.1,0.2,0.3,0.4,0.5,0.6c0.3,0.2,0.4,0.2,0.9,0.2
	c0.5,0,0.8-0.1,1.7-0.4c1.3-0.5,3.5-1.6,4.7-2.2c9.1-5.3,14.9-14.5,15.7-24.9c0.1-1.4,0.1-4.4-0.1-5.7c-1.2-10.1-7-18.8-15.9-23.9
	c-3.5-2-7.6-3.3-11.9-3.9C114,236.8,110,236.7,109.2,236.7z"/>
<path class="st15" d="M484.3,112.4l2,3.9c0.4,0.7,1,1.4,1.5,1.9c1.7,1.7,3.3,3.5,4.8,5.5c3.5,4.6,5.8,9.7,7.5,15.3
	c1,3.4,1.5,6.8,1.6,10.4c0.2,10.5-3.4,19.5-10.5,27c-1.2,1.2-2.4,2.3-3.8,3.3c-0.7,0-1-0.5-1.3-1.1c-0.5-0.9-0.9-2-1-3
	c-0.3-1.3-0.4-2.5-0.3-3.8v-0.6C484.7,170.9,484.1,112.7,484.3,112.4z"/>
<path class="st16" d="M484.3,112.3c-0.1-0.2-0.2,0-0.3,0c0,0.8-0.3,1.6-0.7,2.3c-0.5,0.7-1.2,1.3-1.8,1.9c-3.7,3.3-6.6,7.2-9,11.6
	c-3.1,5.9-4.7,12.3-5.2,18.9c-0.2,2.4,0.8,10.9,1.5,13.4c2,6.5,5.7,12,10.5,16.7c1.2,1.1,2.4,2.2,3.7,3.2c0.4,0,0.4-0.3,0.5-0.6
	c0.2-0.5,0.3-1.1,0.4-1.6l0.8-6.3L484.3,112.3z"/>
<path class="st17" d="M486.4,182.2c0.1-1,0.5-1.8,1-2.6c-0.5-0.2-0.9-0.6-1.2-1.1c-0.3-0.4-0.5-0.9-0.6-1.4
	c-0.6-1.8-0.7-3.6-0.9-5.5v-1.1c-0.2,0.2-0.3,1.6-0.3,1.8c-0.1,1.9-0.4,3.8-0.8,5.7c-0.1,0.8-0.2,1.5-0.7,2.2c0,0.1,0,0.2,0,0.3
	c0.8,2.2,1,4.5,1.1,6.8v0.8c0,1,0,0.8,0.8,1.1c0.3,0.1,0.7,0.2,1,0.4c0.3,0,0.3-0.2,0.3-0.4l-0.1-1.4v-3.9
	C486.2,183.5,486.3,182.8,486.4,182.2L486.4,182.2z"/>
<path class="st18" d="M516.6,127.3c0,0.7,0,1.2,0,1.6c0,0.4,0.1,0.7,0.2,0.9c0.1,0.2,0.3,0.3,0.6,0.4c0.2,0.1,0.6,0.1,1.1,0.1v0.8
	h-6.2v-0.8c0.5,0,0.8-0.1,1.1-0.1s0.5-0.2,0.6-0.4c0.1-0.2,0.2-0.5,0.3-0.8c0-0.4,0.1-0.8,0.1-1.4v-3c0-0.9,0-1.6,0-2.2
	c0-0.6-0.1-1-0.1-1.2c0-0.2-0.1-0.4-0.2-0.5c-0.1-0.1-0.2-0.2-0.3-0.3c-0.1-0.1-0.3-0.1-0.6-0.1c-0.2,0-0.5,0-0.9,0v-0.8l3.8-0.9
	l0.3,2.4h0.1c0.7-0.8,1.4-1.4,2.2-1.8c0.8-0.4,1.6-0.6,2.6-0.6c1,0,1.8,0.2,2.5,0.6c0.7,0.4,1.1,1,1.4,1.7h0.1
	c0.6-0.7,1.3-1.3,2.1-1.7c0.8-0.4,1.7-0.6,2.6-0.6c0.7,0,1.4,0.1,2,0.4c0.6,0.2,1.1,0.6,1.4,1c0.3,0.4,0.5,0.8,0.6,1.4
	c0.1,0.6,0.2,1.4,0.2,2.4v3.7c0,0.6,0,1.2,0,1.5c0,0.4,0.1,0.7,0.3,0.9c0.1,0.2,0.3,0.3,0.6,0.4c0.3,0.1,0.6,0.1,1.1,0.1v0.8h-6.2
	v-0.8c0.4,0,0.8-0.1,1.1-0.1c0.3-0.1,0.5-0.2,0.6-0.4c0.1-0.2,0.2-0.5,0.3-0.8c0-0.3,0.1-0.8,0.1-1.4v-3c0-0.9,0-1.7-0.1-2.3
	c-0.1-0.6-0.2-1.1-0.5-1.5c-0.2-0.4-0.5-0.7-0.9-0.8c-0.3-0.2-0.8-0.3-1.3-0.3c-0.7,0-1.3,0.2-1.9,0.6c-0.6,0.4-1.1,0.9-1.4,1.5
	c-0.1,0.2-0.1,0.3-0.2,0.5c0,0.1-0.1,0.3-0.1,0.5c0,0.2-0.1,0.4-0.1,0.6c0,0.3,0,0.6,0,0.9v3c0,0.6,0,1.2,0,1.5
	c0,0.4,0.1,0.7,0.2,0.9c0.1,0.2,0.3,0.3,0.6,0.4s0.6,0.1,1.1,0.1v0.8h-6.2v-0.8c0.4,0,0.8-0.1,1.1-0.1c0.3-0.1,0.5-0.2,0.6-0.4
	c0.1-0.2,0.2-0.5,0.3-0.8c0-0.4,0.1-0.8,0.1-1.4v-3c0-0.9,0-1.7-0.1-2.3c-0.1-0.6-0.2-1.1-0.5-1.5c-0.2-0.4-0.5-0.7-0.8-0.8
	c-0.3-0.2-0.8-0.3-1.3-0.3c-0.7,0-1.4,0.2-2,0.6c-0.6,0.4-1.1,0.9-1.4,1.5c-0.1,0.2-0.1,0.3-0.2,0.5c0,0.1-0.1,0.3-0.1,0.5
	c0,0.2-0.1,0.4-0.1,0.6c0,0.3,0,0.6,0,0.9V127.3z"/>
<path class="st18" d="M544.1,118.4c0.9,0,1.7,0.2,2.5,0.5c0.8,0.3,1.5,0.8,2.1,1.3c0.6,0.6,1.1,1.2,1.4,2c0.4,0.8,0.5,1.6,0.5,2.5
	c0,1-0.2,1.8-0.5,2.6c-0.3,0.8-0.8,1.5-1.4,2.1c-0.6,0.6-1.3,1-2.1,1.4c-0.8,0.3-1.6,0.5-2.5,0.5c-0.9,0-1.7-0.2-2.5-0.5
	c-0.8-0.3-1.5-0.8-2.1-1.4c-0.6-0.6-1.1-1.3-1.4-2.1c-0.3-0.8-0.5-1.7-0.5-2.7c0-0.9,0.2-1.8,0.5-2.6c0.3-0.8,0.8-1.5,1.4-2
	c0.6-0.6,1.3-1,2.1-1.3C542.4,118.5,543.2,118.4,544.1,118.4z M544.1,119.5c-0.6,0-1.1,0.1-1.6,0.4c-0.5,0.3-0.9,0.6-1.2,1.1
	c-0.3,0.5-0.6,1-0.8,1.7c-0.2,0.6-0.3,1.4-0.3,2.1c0,0.8,0.1,1.6,0.3,2.2c0.2,0.7,0.4,1.2,0.8,1.7c0.3,0.5,0.7,0.8,1.2,1.1
	c0.5,0.3,1,0.4,1.6,0.4c0.6,0,1.1-0.1,1.6-0.4c0.5-0.3,0.9-0.6,1.2-1.1c0.3-0.5,0.6-1,0.8-1.7c0.2-0.7,0.3-1.4,0.3-2.2
	c0-0.8-0.1-1.5-0.3-2.1c-0.2-0.6-0.5-1.2-0.8-1.7c-0.3-0.5-0.8-0.8-1.2-1.1C545.2,119.6,544.7,119.5,544.1,119.5z"/>
<path class="st18" d="M556.8,127.4c0,0.6,0,1.2,0,1.5c0,0.4,0.1,0.6,0.2,0.8c0.1,0.2,0.3,0.3,0.6,0.4c0.3,0.1,0.6,0.1,1.1,0.1v0.8
	h-6.1v-0.8c0.4,0,0.8-0.1,1-0.1c0.3-0.1,0.5-0.2,0.6-0.4c0.1-0.2,0.2-0.5,0.3-0.8c0-0.3,0.1-0.8,0.1-1.4v-3.1c0-1.9,0-3-0.1-3.4
	c0-0.2-0.1-0.4-0.2-0.5c-0.1-0.1-0.2-0.2-0.3-0.3c-0.1-0.1-0.3-0.1-0.5-0.1c-0.2,0-0.5,0-0.8,0v-0.8l3.7-0.9l0.3,2.3h0.1
	c0.6-0.7,1.3-1.3,2.1-1.7c0.8-0.4,1.7-0.6,2.6-0.6c0.7,0,1.4,0.1,2,0.4c0.6,0.2,1,0.6,1.4,1c0.3,0.4,0.5,0.8,0.6,1.4
	c0.1,0.6,0.2,1.4,0.2,2.4v3.9c0,0.6,0,1.2,0,1.5c0,0.4,0.1,0.6,0.3,0.8c0.1,0.2,0.3,0.3,0.6,0.4c0.3,0.1,0.6,0.1,1,0.1v0.8h-6v-0.8
	c0.4,0,0.8-0.1,1-0.1c0.3-0.1,0.5-0.2,0.6-0.4c0.1-0.2,0.2-0.5,0.3-0.8c0-0.4,0.1-0.8,0.1-1.4v-3.1c0-0.9,0-1.7-0.1-2.3
	c-0.1-0.6-0.2-1.1-0.5-1.5c-0.2-0.4-0.5-0.6-0.8-0.8c-0.3-0.2-0.8-0.3-1.2-0.3c-0.7,0-1.3,0.2-1.9,0.6c-0.6,0.4-1,0.9-1.4,1.5
	c-0.1,0.2-0.1,0.3-0.2,0.4c0,0.1-0.1,0.3-0.1,0.5c0,0.2-0.1,0.4-0.1,0.7c0,0.2,0,0.5,0,0.9V127.4z"/>
<path class="st18" d="M574.3,126c0.7,0,1.2-0.3,1.5-0.9c0.4-0.6,0.6-1.4,0.6-2.5c0-1.1-0.2-1.9-0.6-2.5c-0.4-0.6-0.9-0.9-1.5-0.9
	s-1.2,0.3-1.6,0.9c-0.4,0.6-0.6,1.4-0.6,2.5c0,1,0.2,1.9,0.6,2.5C573.1,125.7,573.6,126,574.3,126z M573,128.8c0.4,0,0.7,0.1,1,0.1
	c0.3,0,0.6,0.1,0.9,0.1c0.3,0,0.6,0.1,0.9,0.1c0.3,0,0.6,0.1,1,0.1c1.1,0.2,2,0.6,2.7,1.3c0.7,0.7,1,1.6,1,2.6c0,1.3-0.5,2.3-1.6,3
	c-1,0.7-2.5,1-4.5,1c-0.9,0-1.7-0.1-2.4-0.2c-0.7-0.2-1.3-0.4-1.8-0.7c-0.5-0.3-0.9-0.6-1.2-1c-0.3-0.4-0.4-0.9-0.4-1.3
	c0-0.3,0.1-0.6,0.2-0.9c0.1-0.3,0.3-0.5,0.4-0.8c0.2-0.2,0.4-0.4,0.7-0.5c0.3-0.1,0.5-0.2,0.8-0.2c0.5,0,1,0.2,1.4,0.5
	c-0.4,0.1-0.8,0.3-1,0.7c-0.3,0.4-0.4,0.8-0.4,1.3c0,0.7,0.3,1.2,1,1.6c0.7,0.4,1.7,0.6,2.9,0.6c2.7,0,4-0.8,4-2.5
	c0-0.6-0.2-1.2-0.6-1.6c-0.4-0.4-0.9-0.7-1.5-0.7c-0.4,0-0.8-0.1-1.2-0.2c-0.4,0-0.8-0.1-1.2-0.1c-0.4,0-0.7-0.1-1.1-0.1
	c-0.3,0-0.6-0.1-0.8-0.1c-0.9-0.1-1.5-0.3-2-0.7c-0.5-0.4-0.7-0.9-0.7-1.6c0-0.6,0.2-1,0.7-1.5c0.5-0.4,1-0.7,1.7-0.8v-0.1
	c-0.3-0.1-0.7-0.3-1-0.6c-0.3-0.3-0.6-0.6-0.8-0.9c-0.2-0.3-0.4-0.7-0.5-1.1c-0.1-0.4-0.2-0.8-0.2-1.2c0-0.6,0.1-1.1,0.3-1.7
	c0.2-0.5,0.6-0.9,1-1.3c0.4-0.4,0.9-0.7,1.5-0.9c0.6-0.2,1.2-0.3,1.8-0.3c0.7,0,1.3,0.1,1.9,0.3c0.6,0.2,1.1,0.5,1.6,0.9
	c0.5-0.4,1-0.8,1.4-0.9c0.4-0.2,0.8-0.3,1.1-0.3c0.6,0,1,0.1,1.3,0.4c0.3,0.3,0.5,0.6,0.5,1c0,0.3-0.1,0.5-0.3,0.6
	c-0.2,0.2-0.4,0.2-0.7,0.2c-0.2,0-0.4,0-0.5-0.1c-0.1-0.1-0.3-0.2-0.4-0.2c-0.1-0.1-0.2-0.2-0.4-0.3c-0.1-0.1-0.3-0.1-0.5-0.1
	c-0.4,0-0.8,0.1-1.1,0.4c0.4,0.6,0.6,1.3,0.6,2.2c0,1.3-0.4,2.4-1.2,3.2c-0.8,0.8-2.1,1.2-3.7,1.3c-0.9,0.1-1.6,0.2-2,0.3
	c-0.4,0.1-0.6,0.4-0.6,0.7c0,0.3,0.1,0.4,0.4,0.6C572.1,128.7,572.5,128.7,573,128.8z"/>
<path class="st18" d="M589.4,118.4c0.9,0,1.7,0.2,2.5,0.5c0.8,0.3,1.5,0.8,2.1,1.3c0.6,0.6,1.1,1.2,1.4,2c0.4,0.8,0.5,1.6,0.5,2.5
	c0,1-0.2,1.8-0.5,2.6c-0.3,0.8-0.8,1.5-1.4,2.1c-0.6,0.6-1.3,1-2.1,1.4s-1.6,0.5-2.5,0.5c-0.9,0-1.7-0.2-2.5-0.5
	c-0.8-0.3-1.5-0.8-2.1-1.4c-0.6-0.6-1.1-1.3-1.4-2.1c-0.3-0.8-0.5-1.7-0.5-2.7c0-0.9,0.2-1.8,0.5-2.6c0.3-0.8,0.8-1.5,1.4-2
	c0.6-0.6,1.3-1,2.1-1.3C587.6,118.5,588.5,118.4,589.4,118.4z M589.4,119.5c-0.6,0-1.1,0.1-1.6,0.4c-0.5,0.3-0.9,0.6-1.2,1.1
	c-0.3,0.5-0.6,1-0.8,1.7c-0.2,0.6-0.3,1.4-0.3,2.1c0,0.8,0.1,1.6,0.3,2.2c0.2,0.7,0.4,1.2,0.8,1.7c0.3,0.5,0.7,0.8,1.2,1.1
	c0.5,0.3,1,0.4,1.6,0.4c0.6,0,1.1-0.1,1.6-0.4c0.5-0.3,0.9-0.6,1.2-1.1c0.3-0.5,0.6-1,0.8-1.7c0.2-0.7,0.3-1.4,0.3-2.2
	c0-0.8-0.1-1.5-0.3-2.1c-0.2-0.6-0.5-1.2-0.8-1.7c-0.3-0.5-0.8-0.8-1.2-1.1C590.5,119.6,589.9,119.5,589.4,119.5z"/>
<path class="st19" d="M513.4,183.6v-2c1.3,0,2.4-0.1,3.2-0.3c0.8-0.2,1.5-0.5,2-0.9c0.5-0.5,0.8-1.1,0.9-1.8
	c0.2-0.8,0.3-1.8,0.3-3.1v-24.8c0-1.2-0.1-2.2-0.2-3c-0.1-0.8-0.4-1.4-0.7-1.8c-0.4-0.5-0.9-0.8-1.6-0.9c-0.7-0.2-1.6-0.3-2.7-0.4
	v-2H533c3.2,0,6.1,0.5,8.8,1.6c2.7,1.1,5,2.5,7,4.4c2,1.9,3.5,4.1,4.6,6.7c1.1,2.6,1.6,5.4,1.6,8.5c0,2.9-0.5,5.6-1.5,8
	c-1,2.4-2.5,4.5-4.3,6.2c-1.8,1.7-4,3.1-6.6,4.1c-2.6,1-5.4,1.4-8.4,1.4H513.4z M526.2,145.2c-0.6,0-0.9,0.3-0.9,0.9V175
	c0,4.1,2.6,6.1,7.9,6.1c4.8,0,8.5-1.4,11.1-4.3c2.6-2.9,3.9-7.2,3.9-12.8c0-2.9-0.4-5.6-1.1-7.9c-0.7-2.3-1.7-4.3-3.1-5.9
	c-1.3-1.6-2.9-2.8-4.8-3.7c-1.9-0.9-4-1.3-6.3-1.3H526.2z"/>
<path class="st19" d="M559.4,183.6v-2c1.4,0,2.5-0.1,3.3-0.3c0.8-0.2,1.5-0.5,1.9-0.9c0.5-0.4,0.8-1,0.9-1.8c0.2-0.8,0.3-1.8,0.3-3
	v-24.8c0-1.2-0.1-2.2-0.2-3c-0.1-0.8-0.4-1.4-0.7-1.8c-0.4-0.5-0.9-0.8-1.6-0.9c-0.7-0.2-1.6-0.3-2.7-0.4v-2h15.8
	c4.8,0,8.4,0.9,11.1,2.6c2.6,1.7,4,4.1,4,7.2c0,2.3-0.7,4.3-2.2,5.8c-1.4,1.5-3.7,2.7-6.9,3.7v0.2c1.1,0.1,2,0.2,2.9,0.4
	c0.8,0.1,1.5,0.3,2.2,0.5c0.6,0.2,1.2,0.4,1.7,0.7c0.6,0.3,1.1,0.6,1.6,1c3.1,2.2,4.7,5,4.7,8.4c0,1.9-0.5,3.6-1.6,5.3
	c-1,1.6-2.5,2.9-4.3,3.8c-0.6,0.3-1.2,0.6-1.8,0.8c-0.6,0.2-1.4,0.3-2.2,0.5c-0.8,0.1-1.8,0.2-3,0.3c-1.1,0-2.4,0.1-3.9,0.1H559.4z
	 M578.6,181.4c6.4,0,9.6-2.8,9.6-8.3c0-4-1.6-6.8-4.9-8.4c-0.6-0.2-1.1-0.5-1.6-0.6c-0.5-0.2-1.1-0.3-1.8-0.4
	c-0.7-0.1-1.5-0.2-2.5-0.2c-0.9,0-2.1-0.1-3.5-0.1h-2.4v11.9c0,2.2,0.6,3.7,1.7,4.7C574.1,180.9,576,181.4,578.6,181.4z
	 M574.3,160.7c1.1,0,2,0,2.7-0.1c0.7,0,1.4-0.1,1.9-0.2c0.5-0.1,1-0.2,1.4-0.4c0.4-0.2,0.8-0.4,1.3-0.7c1.1-0.7,1.9-1.6,2.4-2.6
	c0.5-1,0.7-2.3,0.7-3.9c0-2.8-0.7-4.8-2.1-6c-1.3-1.2-3.5-1.9-6.3-1.9h-4.1c-0.6,0-0.9,0.3-0.9,0.9v14.7H574.3z"/>
<path class="st20" d="M323.3,141.2c-0.2,0-0.4,0-0.6,0c-4.4,0.2-7.3,2.2-9.1,5.9c-1.5,3.4-1.3,7.9,0,11.3c1.5,3.4,4.1,5.1,8.2,5.8
	c0.9,0.1,1.5,0.6,3.2,2.6l2.1,2.5h3.8l-2.5-2.6c-1.4-1.4-2.5-2.6-2.5-2.7c0-0.1,0.5-0.3,1.2-0.5c2.1-0.7,3.9-2.3,5.2-4.9
	c1-2,1.2-2.7,1.3-5.2C333.9,145.9,329.9,141.1,323.3,141.2L323.3,141.2z M326.7,161c-1.9,0.9-4.6,1.1-6.3,0.4
	c-1.8-0.7-3.6-2.6-4.4-4.7c-0.9-2.3-0.8-6.7,0.3-8.6c1.6-3.1,3.8-4.5,6.9-4.5c4.6,0,7.3,2.9,7.6,8.2
	C331,156.2,329.5,159.6,326.7,161L326.7,161z M392.7,147.6c-1.6,0-2.8,0.7-3.7,1.9l-0.6,1V148h-2.8v15.8h2.8v-5.1
	c0-4.6,0.1-5.2,0.7-6.4c0.9-1.7,2.4-2.6,3.9-2.2l1,0.3v-2.7L392.7,147.6L392.7,147.6z M376.4,147.5c-0.5,0-1.1,0.1-1.7,0.2
	c-3.7,1-5.8,4.5-5.7,8.2c0,3.1,0.6,4.6,2.1,6.2c3,2.5,5.8,2.7,9.5,1.4c0.6-0.3,1.3-0.6,1.3-0.6v-2.5l-1.3,0.7c-3,1.3-5.2,1.3-7-0.2
	c-1.2-1.2-1.7-2.6-1.9-4.2h11.2v-2.1C382.8,150.2,380.2,147.4,376.4,147.5L376.4,147.5z M371.9,154.4c0,0,0.4-2.7,1.9-3.8
	c0.7-0.5,1.6-0.8,2.4-0.8c0.8,0,1.7,0.3,2.3,0.8c1.4,1.1,1.6,3.7,1.6,3.7L371.9,154.4L371.9,154.4L371.9,154.4z M305,151.6
	c-3-1.8-4.3-3.1-4.2-4.7c0.5-4.3,5.8-3.7,8.7-2.1l0-2.9c0,0-1.6-0.7-3.9-0.7c-3.6-0.1-5.9,1.1-7,3.5c-1.6,3.5-0.2,6.2,4.9,9.1
	c2.9,1.7,4.1,3.1,4.1,4.7c0,3.3-3.9,4.4-7.9,2.3c-0.8-0.4-1.5-0.8-1.6-0.8c-0.1,0.9-0.1,3.1-0.1,3.1s1.2,0.5,3.1,0.9
	c4.6,0.9,8.8-1.2,9.2-4.8C310.7,156,309.5,154.3,305,151.6L305,151.6z M417.2,147.5c-0.5,0-1.1,0.1-1.7,0.2c-3.7,1-5.8,4.5-5.7,8.2
	c0,3.1,0.6,4.6,2.1,6.2c3,2.5,5.8,2.7,9.5,1.4c0.6-0.3,1.3-0.6,1.3-0.6v-2.5l-1.3,0.7c-3,1.3-5.2,1.3-7-0.2
	c-1.2-1.2-1.7-2.6-1.9-4.2h11.2v-2.1C423.6,150.1,421,147.4,417.2,147.5L417.2,147.5z M412.7,154.4c0,0,0.4-2.7,1.9-3.8
	c0.7-0.5,1.6-0.8,2.4-0.8c0.8,0,1.7,0.3,2.3,0.8c1.4,1.1,1.6,3.8,1.6,3.8L412.7,154.4L412.7,154.4z M361.9,151.6
	c-3-1.8-4.3-3.1-4.2-4.7c0.5-4.3,5.8-3.7,8.7-2.1l0-2.9c0,0-1.6-0.7-3.9-0.7c-3.6-0.1-5.9,1.1-7,3.5c-1.6,3.5-0.2,6.2,4.9,9.1
	c2.8,1.7,4.1,3.1,4.1,4.7c0,3.3-3.9,4.4-7.9,2.3c-0.8-0.4-1.5-0.8-1.6-0.8c-0.1,0.9-0.1,3.1-0.1,3.1s1.2,0.5,3.1,0.9
	c4.6,0.9,8.8-1.2,9.2-4.8C367.5,156.1,366.4,154.3,361.9,151.6L361.9,151.6L361.9,151.6z M433.5,147.6c-1.6,0-2.8,0.7-3.7,1.9
	l-0.6,1v-2.6h-2.8v15.8h2.8v-5.1c0-4.6,0.1-5.2,0.7-6.4c0.9-1.7,2.4-2.6,3.9-2.2l1,0.3v-2.7H433.5z M339.8,151.5v-10.1H337v22.3
	h11.8v-2.6h-9V151.5L339.8,151.5z M404.5,154.7l-2.3,6l-2.2-6.1l-2.3-6.7h-2.9c1.9,5.3,3.9,10.6,5.9,15.8c0.9,0,1.8,0,2.6,0l3.1-7.8
	l3.2-8h-2.7C406.9,147.9,405.7,151.1,404.5,154.7L404.5,154.7z M346.2,135.4c0.5,0,0.8-0.1,1.1-0.5c0.3-0.3,0.5-0.7,0.5-1.1
	s-0.2-0.8-0.5-1.1c-0.3-0.3-0.7-0.4-1.1-0.4c-0.5,0-0.8,0.1-1.1,0.5c-0.3,0.3-0.4,0.7-0.4,1.1c0,0.5,0.1,0.8,0.4,1.1
	C345.4,135.2,345.8,135.4,346.2,135.4L346.2,135.4z M345.2,132.8c0.3-0.3,0.6-0.4,1-0.4c0.4,0,0.7,0.1,1,0.4c0.3,0.3,0.4,0.6,0.4,1
	s-0.1,0.7-0.4,1c-0.3,0.3-0.6,0.4-1,0.4c-0.4,0-0.7-0.1-1-0.4c-0.3-0.3-0.4-0.6-0.4-1S345,133.1,345.2,132.8z M345.9,133.9h0.2
	c0.1,0,0.3,0.1,0.4,0.4l0.2,0.5h0.3l-0.3-0.5c-0.1-0.2-0.2-0.3-0.3-0.4c0.2,0,0.3-0.1,0.4-0.2c0.1-0.1,0.1-0.2,0.1-0.4
	c0-0.2-0.1-0.3-0.2-0.4c-0.1-0.1-0.3-0.2-0.6-0.2h-0.6v2h0.3L345.9,133.9L345.9,133.9z M345.9,133h0.3c0.2,0,0.3,0,0.4,0.1
	c0.1,0.1,0.1,0.1,0.1,0.3c0,0.2-0.1,0.3-0.4,0.3h-0.3L345.9,133L345.9,133z M299.7,133.8c0-0.7,0-1.2,0-1.5h0
	c0.1,0.4,0.2,0.6,0.2,0.8l2.7,6h0.5l2.7-6.1c0.1-0.2,0.1-0.4,0.2-0.8h0c-0.1,0.6-0.1,1.1-0.1,1.5v5.3h0.9v-7.9h-1.2l-2.5,5.5
	c-0.1,0.2-0.2,0.5-0.4,1h0c-0.1-0.2-0.2-0.5-0.4-0.9l-2.4-5.5h-1.2v7.9h0.9L299.7,133.8L299.7,133.8z M308.9,133.8h0.8v4.9h-0.8
	V133.8z M309.3,132c0.2,0,0.3-0.1,0.4-0.2c0.1-0.1,0.2-0.2,0.2-0.4c0-0.2-0.1-0.3-0.2-0.4c-0.1-0.1-0.3-0.2-0.4-0.2
	c-0.2,0-0.3,0.1-0.4,0.2c-0.1,0.1-0.2,0.3-0.2,0.4c0,0.2,0.1,0.3,0.2,0.4C309,131.9,309.1,132,309.3,132L309.3,132z M315.3,138.8
	v-0.9c-0.4,0.3-0.9,0.5-1.4,0.5c-0.6,0-1-0.2-1.4-0.6c-0.3-0.4-0.5-0.9-0.5-1.6c0-0.7,0.2-1.2,0.6-1.6c0.4-0.4,0.8-0.6,1.4-0.6
	c0.5,0,0.9,0.1,1.3,0.4v-0.9c-0.4-0.2-0.8-0.3-1.3-0.3c-0.9,0-1.6,0.3-2.1,0.9c-0.5,0.6-0.8,1.3-0.8,2.2c0,0.8,0.2,1.5,0.7,2
	c0.5,0.5,1.2,0.8,1.9,0.8C314.4,139.2,314.9,139,315.3,138.8z M317.6,136.2c0-0.6,0.1-1.2,0.4-1.5c0.3-0.3,0.6-0.5,0.9-0.5
	c0.3,0,0.5,0.1,0.7,0.2v-0.9c-0.1-0.1-0.3-0.1-0.5-0.1c-0.3,0-0.6,0.1-0.9,0.3c-0.3,0.2-0.5,0.5-0.6,1h0v-1.2h-0.9v5.6h0.9
	L317.6,136.2L317.6,136.2z M322.8,139.2c0.8,0,1.5-0.3,2-0.8c0.5-0.5,0.8-1.3,0.8-2.2c0-0.9-0.2-1.6-0.7-2.1c-0.5-0.5-1.1-0.8-2-0.8
	c-0.8,0-1.5,0.3-2,0.7c-0.5,0.5-0.8,1.3-0.8,2.3c0,0.8,0.2,1.6,0.7,2.1C321.2,138.9,321.9,139.2,322.8,139.2L322.8,139.2z
	 M321.5,134.6c0.3-0.4,0.8-0.5,1.4-0.5c0.6,0,1,0.2,1.3,0.5c0.3,0.4,0.5,0.9,0.5,1.6c0,0.7-0.1,1.2-0.5,1.6
	c-0.3,0.4-0.8,0.6-1.4,0.6c-0.6,0-1-0.2-1.4-0.6c-0.3-0.4-0.5-0.9-0.5-1.6C320.9,135.5,321.1,135,321.5,134.6z M329.5,138.7
	c0.3-0.3,0.5-0.7,0.5-1.2c0-0.4-0.1-0.8-0.4-1c-0.2-0.2-0.6-0.4-1-0.6c-0.4-0.2-0.7-0.3-0.8-0.5c-0.1-0.1-0.2-0.3-0.2-0.6
	c0-0.2,0.1-0.4,0.3-0.6c0.2-0.1,0.4-0.2,0.7-0.2c0.5,0,0.9,0.1,1.3,0.4v-0.9c-0.4-0.2-0.8-0.3-1.2-0.3c-0.6,0-1.1,0.2-1.4,0.5
	c-0.4,0.3-0.6,0.7-0.6,1.2c0,0.4,0.1,0.8,0.4,1c0.2,0.2,0.5,0.4,1,0.6c0.5,0.2,0.8,0.4,0.9,0.5c0.2,0.1,0.2,0.3,0.2,0.5
	c0,0.5-0.4,0.8-1.1,0.8c-0.5,0-1-0.2-1.5-0.5v1c0.4,0.2,0.9,0.3,1.4,0.3C328.6,139.2,329.1,139,329.5,138.7L329.5,138.7z
	 M333.8,133.3c-0.8,0-1.5,0.3-2,0.7c-0.5,0.5-0.8,1.3-0.8,2.3c0,0.8,0.2,1.6,0.7,2.1c0.5,0.5,1.2,0.8,2,0.8c0.9,0,1.5-0.3,2-0.8
	c0.5-0.5,0.8-1.3,0.8-2.2c0-0.9-0.2-1.6-0.7-2.1C335.3,133.5,334.6,133.3,333.8,133.3L333.8,133.3z M335.5,136.2
	c0,0.7-0.1,1.2-0.5,1.6c-0.3,0.4-0.8,0.6-1.4,0.6c-0.6,0-1-0.2-1.4-0.6c-0.3-0.4-0.5-0.9-0.5-1.6c0-0.7,0.2-1.3,0.5-1.7
	c0.3-0.4,0.8-0.5,1.4-0.5c0.6,0,1,0.2,1.3,0.5C335.4,135,335.5,135.5,335.5,136.2L335.5,136.2z M338,139.1h0.9v-4.9h1.3v-0.8h-1.3
	v-0.9c0-0.8,0.3-1.2,0.9-1.2c0.2,0,0.4,0.1,0.6,0.1v-0.8c-0.2-0.1-0.4-0.1-0.6-0.1c-0.5,0-0.9,0.1-1.2,0.5c-0.4,0.4-0.6,0.8-0.6,1.5
	v0.9h-1v0.8h1L338,139.1L338,139.1z M341.6,137.5c0,1.1,0.5,1.7,1.5,1.7c0.4,0,0.6-0.1,0.8-0.2v-0.8c-0.2,0.1-0.4,0.2-0.6,0.2
	c-0.3,0-0.5-0.1-0.6-0.2c-0.1-0.2-0.2-0.4-0.2-0.8v-3.2h1.4v-0.8h-1.4v-1.7c-0.3,0.1-0.6,0.2-0.9,0.3v1.4h-1v0.8h1L341.6,137.5
	L341.6,137.5z M438.3,147.9c-0.3-0.3-0.7-0.4-1.1-0.4c-0.5,0-0.8,0.1-1.1,0.5c-0.3,0.3-0.5,0.7-0.5,1.1c0,0.5,0.1,0.8,0.4,1.1
	c0.3,0.3,0.7,0.4,1.1,0.4c0.4,0,0.8-0.1,1.1-0.5c0.3-0.3,0.5-0.7,0.5-1.1C438.8,148.6,438.6,148.2,438.3,147.9L438.3,147.9z
	 M438.2,150c-0.3,0.3-0.6,0.4-1,0.4c-0.4,0-0.7-0.1-1-0.4c-0.3-0.3-0.4-0.6-0.4-1c0-0.4,0.1-0.7,0.4-1c0.3-0.3,0.6-0.4,1-0.4
	c0.4,0,0.7,0.1,1,0.4c0.3,0.3,0.4,0.6,0.4,1C438.6,149.4,438.5,149.8,438.2,150z M437.4,149.1c0.2,0,0.3-0.1,0.4-0.2
	c0.1-0.1,0.1-0.2,0.1-0.4c0-0.2-0.1-0.3-0.2-0.4c-0.1-0.1-0.3-0.2-0.6-0.2h-0.6v2h0.3v-0.8h0.2c0.1,0,0.2,0.1,0.4,0.4l0.2,0.5h0.3
	l-0.3-0.5C437.6,149.3,437.5,149.1,437.4,149.1L437.4,149.1z M437.2,148.9h-0.3v-0.7h0.3c0.2,0,0.3,0,0.4,0.1
	c0.1,0.1,0.1,0.1,0.1,0.3C437.6,148.8,437.4,148.9,437.2,148.9L437.2,148.9z M386.9,133.2h0.3v-2h0.7v-0.3h-1.6v0.3h0.7V133.2
	L386.9,133.2z M388.4,131.7c0-0.2,0-0.4,0-0.4c0,0.1,0.1,0.2,0.1,0.2l0.8,1.7h0.1l0.8-1.8c0-0.1,0-0.1,0.1-0.2c0,0.2,0,0.3,0,0.4
	v1.5h0.3v-2.3h-0.3l-0.7,1.6c0,0.1-0.1,0.2-0.1,0.3h0c0-0.1-0.1-0.1-0.1-0.3l-0.7-1.6h-0.4v2.3h0.3L388.4,131.7L388.4,131.7z"/>
<path class="st21" d="M253.4,142.2l-6.5,6.2l-6-12.4l3.1-7.1c0.8-1.4,2.1-1.4,2.9,0L253.4,142.2z"/>
<path class="st22" d="M240.8,136l6,12.4l-24.4,23L240.8,136z"/>
<path class="st23" d="M260.5,132.8c1.2-1.1,2.4-0.7,2.7,0.9l6.3,37.4l-21,12.8c-0.7,0.4-2.7,0.6-2.7,0.6s-1.8-0.2-2.5-0.6
	l-20.9-12.5L260.5,132.8z"/>
<path class="st21" d="M240.8,136l-18.3,35.4l8.2-51.7c0.3-1.6,1.2-1.8,2-0.3L240.8,136z"/>
<path class="st24" d="M141.5,161.9c-0.2-0.4-0.4-0.6-0.7-0.8c-0.3-0.2-0.6-0.3-1-0.3s-0.7,0.1-1,0.3c-0.3,0.2-0.5,0.5-0.7,0.8
	c-0.2,0.4-0.2,0.8-0.2,1.3c0,0.5,0.1,1,0.2,1.3c0.2,0.4,0.4,0.6,0.7,0.8c0.3,0.2,0.6,0.3,1,0.3s0.7-0.1,1-0.3
	c0.3-0.2,0.5-0.5,0.7-0.8c0.2-0.4,0.3-0.8,0.3-1.3C141.8,162.7,141.7,162.3,141.5,161.9z M141.5,161.9c-0.2-0.4-0.4-0.6-0.7-0.8
	c-0.3-0.2-0.6-0.3-1-0.3s-0.7,0.1-1,0.3c-0.3,0.2-0.5,0.5-0.7,0.8c-0.2,0.4-0.2,0.8-0.2,1.3c0,0.5,0.1,1,0.2,1.3
	c0.2,0.4,0.4,0.6,0.7,0.8c0.3,0.2,0.6,0.3,1,0.3s0.7-0.1,1-0.3c0.3-0.2,0.5-0.5,0.7-0.8c0.2-0.4,0.3-0.8,0.3-1.3
	C141.8,162.7,141.7,162.3,141.5,161.9z M141.5,161.9c-0.2-0.4-0.4-0.6-0.7-0.8c-0.3-0.2-0.6-0.3-1-0.3s-0.7,0.1-1,0.3
	c-0.3,0.2-0.5,0.5-0.7,0.8c-0.2,0.4-0.2,0.8-0.2,1.3c0,0.5,0.1,1,0.2,1.3c0.2,0.4,0.4,0.6,0.7,0.8c0.3,0.2,0.6,0.3,1,0.3
	s0.7-0.1,1-0.3c0.3-0.2,0.5-0.5,0.7-0.8c0.2-0.4,0.3-0.8,0.3-1.3C141.8,162.7,141.7,162.3,141.5,161.9z M148.1,161.4
	c-0.1-0.2-0.2-0.3-0.5-0.4c-0.2-0.1-0.5-0.1-0.8-0.1h-1.2v2.3h1.2c0.3,0,0.6-0.1,0.8-0.1c0.2-0.1,0.4-0.2,0.5-0.4
	c0.1-0.2,0.2-0.4,0.2-0.6S148.2,161.5,148.1,161.4z M148.1,161.4c-0.1-0.2-0.2-0.3-0.5-0.4c-0.2-0.1-0.5-0.1-0.8-0.1h-1.2v2.3h1.2
	c0.3,0,0.6-0.1,0.8-0.1c0.2-0.1,0.4-0.2,0.5-0.4c0.1-0.2,0.2-0.4,0.2-0.6S148.2,161.5,148.1,161.4z M141.5,161.9
	c-0.2-0.4-0.4-0.6-0.7-0.8c-0.3-0.2-0.6-0.3-1-0.3s-0.7,0.1-1,0.3c-0.3,0.2-0.5,0.5-0.7,0.8c-0.2,0.4-0.2,0.8-0.2,1.3
	c0,0.5,0.1,1,0.2,1.3c0.2,0.4,0.4,0.6,0.7,0.8c0.3,0.2,0.6,0.3,1,0.3s0.7-0.1,1-0.3c0.3-0.2,0.5-0.5,0.7-0.8
	c0.2-0.4,0.3-0.8,0.3-1.3C141.8,162.7,141.7,162.3,141.5,161.9z M141.5,161.9c-0.2-0.4-0.4-0.6-0.7-0.8c-0.3-0.2-0.6-0.3-1-0.3
	s-0.7,0.1-1,0.3c-0.3,0.2-0.5,0.5-0.7,0.8c-0.2,0.4-0.2,0.8-0.2,1.3c0,0.5,0.1,1,0.2,1.3c0.2,0.4,0.4,0.6,0.7,0.8
	c0.3,0.2,0.6,0.3,1,0.3s0.7-0.1,1-0.3c0.3-0.2,0.5-0.5,0.7-0.8c0.2-0.4,0.3-0.8,0.3-1.3C141.8,162.7,141.7,162.3,141.5,161.9z
	 M148.1,161.4c-0.1-0.2-0.2-0.3-0.5-0.4c-0.2-0.1-0.5-0.1-0.8-0.1h-1.2v2.3h1.2c0.3,0,0.6-0.1,0.8-0.1c0.2-0.1,0.4-0.2,0.5-0.4
	c0.1-0.2,0.2-0.4,0.2-0.6S148.2,161.5,148.1,161.4z M148.1,161.4c-0.1-0.2-0.2-0.3-0.5-0.4c-0.2-0.1-0.5-0.1-0.8-0.1h-1.2v2.3h1.2
	c0.3,0,0.6-0.1,0.8-0.1c0.2-0.1,0.4-0.2,0.5-0.4c0.1-0.2,0.2-0.4,0.2-0.6S148.2,161.5,148.1,161.4z M141.5,161.9
	c-0.2-0.4-0.4-0.6-0.7-0.8c-0.3-0.2-0.6-0.3-1-0.3s-0.7,0.1-1,0.3c-0.3,0.2-0.5,0.5-0.7,0.8c-0.2,0.4-0.2,0.8-0.2,1.3
	c0,0.5,0.1,1,0.2,1.3c0.2,0.4,0.4,0.6,0.7,0.8c0.3,0.2,0.6,0.3,1,0.3s0.7-0.1,1-0.3c0.3-0.2,0.5-0.5,0.7-0.8
	c0.2-0.4,0.3-0.8,0.3-1.3C141.8,162.7,141.7,162.3,141.5,161.9z M155.2,112.2c-21.4,0-38.8,17.4-38.8,38.8s17.4,38.8,38.8,38.8
	c21.4,0,38.8-17.4,38.8-38.8S176.6,112.2,155.2,112.2z M154.5,137.2h9.8v1.7h-7.8v5.4h7.3v1.7h-7.3v5.5h8v1.7h-9.9V137.2z
	 M131.7,151c0.3-0.3,0.6-0.4,1-0.4c0.4,0,0.7,0.1,1,0.4c0.3,0.3,0.4,0.6,0.4,1c0,0.3-0.1,0.5-0.2,0.7s-0.3,0.4-0.5,0.5
	c-0.2,0.1-0.4,0.2-0.7,0.2c-0.4,0-0.7-0.1-1-0.4c-0.3-0.3-0.4-0.6-0.4-1C131.3,151.6,131.4,151.3,131.7,151z M130.7,164.6
	c0.2,0.4,0.4,0.6,0.7,0.8c0.3,0.2,0.7,0.3,1,0.3c0.2,0,0.4,0,0.6-0.1s0.4-0.1,0.5-0.2c0.2-0.1,0.3-0.2,0.4-0.4
	c0.1-0.2,0.2-0.3,0.2-0.5l1.3,0c0,0.3-0.1,0.7-0.3,0.9c-0.2,0.3-0.4,0.5-0.6,0.8c-0.3,0.2-0.6,0.4-0.9,0.5c-0.3,0.1-0.7,0.2-1.2,0.2
	c-0.6,0-1.2-0.1-1.7-0.4c-0.5-0.3-0.9-0.7-1.2-1.2c-0.3-0.5-0.4-1.2-0.4-1.9s0.1-1.4,0.4-1.9c0.3-0.5,0.7-1,1.2-1.2
	c0.5-0.3,1.1-0.4,1.7-0.4c0.4,0,0.8,0.1,1.1,0.2c0.3,0.1,0.7,0.3,0.9,0.5c0.3,0.2,0.5,0.5,0.7,0.8c0.2,0.3,0.3,0.6,0.3,1h-1.3
	c0-0.2-0.1-0.4-0.2-0.5c-0.1-0.2-0.2-0.3-0.4-0.4c-0.2-0.1-0.3-0.2-0.5-0.2c-0.2-0.1-0.4-0.1-0.6-0.1c-0.4,0-0.7,0.1-1,0.3
	c-0.3,0.2-0.5,0.5-0.7,0.8c-0.2,0.4-0.2,0.8-0.2,1.3C130.5,163.8,130.5,164.2,130.7,164.6z M142.7,165.2c-0.3,0.5-0.7,0.9-1.2,1.2
	c-0.5,0.3-1.1,0.4-1.7,0.4s-1.2-0.1-1.7-0.4c-0.5-0.3-0.9-0.7-1.2-1.2s-0.4-1.2-0.4-1.9s0.2-1.4,0.4-1.9c0.3-0.5,0.7-1,1.2-1.2
	c0.5-0.3,1.1-0.4,1.7-0.4s1.2,0.2,1.7,0.4c0.5,0.3,0.9,0.7,1.2,1.2c0.3,0.5,0.4,1.2,0.4,1.9S143,164.7,142.7,165.2z M148.4,166.8
	l-1.4-2.5h-1.3v2.5h-1.3v-7h2.7c0.6,0,1,0.1,1.4,0.3c0.4,0.2,0.7,0.5,0.8,0.8c0.2,0.3,0.3,0.7,0.3,1.2c0,0.5-0.1,0.8-0.3,1.2
	c-0.2,0.3-0.5,0.6-0.9,0.8c0,0-0.1,0-0.1,0.1l1.6,2.8H148.4z M150.6,153.3h-1.9l-8.8-12.6h-0.2v12.6h-2v-16h1.9l8.9,12.6h0.2v-12.6
	h1.9V153.3z M155.5,166.8h-4.7v-7h4.7v1.1h-3.4v1.9h3.1v1.1h-3.1v1.9h3.4V166.8z M166.8,166.8h-1.2V162h-0.1l-2,4.8h-0.9l-2-4.8
	h-0.1v4.8h-1.3v-7h1.6l2.1,5.1h0.1l2.1-5.1h1.6V166.8z M167,137.2h12.2v1.7H174v14.3h-2V139H167V137.2z M171.9,166.8h-1.6l-2.5-7
	h1.4l1.9,5.5h0.1l1.9-5.5h1.4L171.9,166.8z M176.4,164.6c0.2,0.4,0.4,0.6,0.7,0.8c0.3,0.2,0.7,0.3,1,0.3c0.2,0,0.4,0,0.6-0.1
	c0.2-0.1,0.4-0.1,0.5-0.2c0.1-0.1,0.3-0.2,0.4-0.4c0.1-0.2,0.2-0.3,0.2-0.5l1.3,0c0,0.3-0.2,0.7-0.3,0.9c-0.2,0.3-0.4,0.5-0.6,0.8
	c-0.3,0.2-0.6,0.4-0.9,0.5c-0.3,0.1-0.7,0.2-1.2,0.2c-0.6,0-1.2-0.1-1.7-0.4c-0.5-0.3-0.9-0.7-1.2-1.2c-0.3-0.5-0.4-1.2-0.4-1.9
	s0.1-1.4,0.4-1.9c0.3-0.5,0.7-1,1.2-1.2c0.5-0.3,1.1-0.4,1.7-0.4c0.4,0,0.8,0.1,1.1,0.2c0.3,0.1,0.7,0.3,0.9,0.5
	c0.3,0.2,0.5,0.5,0.7,0.8c0.2,0.3,0.3,0.6,0.3,1h-1.3c0-0.2-0.1-0.4-0.2-0.5c-0.1-0.2-0.2-0.3-0.4-0.4c-0.2-0.1-0.3-0.2-0.5-0.2
	c-0.2-0.1-0.4-0.1-0.6-0.1c-0.4,0-0.7,0.1-1,0.3c-0.3,0.2-0.5,0.5-0.7,0.8c-0.2,0.4-0.3,0.8-0.3,1.3
	C176.1,163.8,176.2,164.2,176.4,164.6z M147.7,161c-0.2-0.1-0.5-0.1-0.8-0.1h-1.2v2.3h1.2c0.3,0,0.6-0.1,0.8-0.1
	c0.2-0.1,0.4-0.2,0.5-0.4c0.1-0.2,0.2-0.4,0.2-0.6s0-0.5-0.2-0.6C148,161.2,147.9,161.1,147.7,161z M140.8,161.1
	c-0.3-0.2-0.6-0.3-1-0.3s-0.7,0.1-1,0.3c-0.3,0.2-0.5,0.5-0.7,0.8c-0.2,0.4-0.2,0.8-0.2,1.3c0,0.5,0.1,1,0.2,1.3
	c0.2,0.4,0.4,0.6,0.7,0.8c0.3,0.2,0.6,0.3,1,0.3s0.7-0.1,1-0.3c0.3-0.2,0.5-0.5,0.7-0.8c0.2-0.4,0.3-0.8,0.3-1.3
	c0-0.5-0.1-1-0.3-1.3C141.4,161.5,141.2,161.3,140.8,161.1z M141.5,161.9c-0.2-0.4-0.4-0.6-0.7-0.8c-0.3-0.2-0.6-0.3-1-0.3
	s-0.7,0.1-1,0.3c-0.3,0.2-0.5,0.5-0.7,0.8c-0.2,0.4-0.2,0.8-0.2,1.3c0,0.5,0.1,1,0.2,1.3c0.2,0.4,0.4,0.6,0.7,0.8
	c0.3,0.2,0.6,0.3,1,0.3s0.7-0.1,1-0.3c0.3-0.2,0.5-0.5,0.7-0.8c0.2-0.4,0.3-0.8,0.3-1.3C141.8,162.7,141.7,162.3,141.5,161.9z
	 M148.1,161.4c-0.1-0.2-0.2-0.3-0.5-0.4c-0.2-0.1-0.5-0.1-0.8-0.1h-1.2v2.3h1.2c0.3,0,0.6-0.1,0.8-0.1c0.2-0.1,0.4-0.2,0.5-0.4
	c0.1-0.2,0.2-0.4,0.2-0.6S148.2,161.5,148.1,161.4z M148.1,161.4c-0.1-0.2-0.2-0.3-0.5-0.4c-0.2-0.1-0.5-0.1-0.8-0.1h-1.2v2.3h1.2
	c0.3,0,0.6-0.1,0.8-0.1c0.2-0.1,0.4-0.2,0.5-0.4c0.1-0.2,0.2-0.4,0.2-0.6S148.2,161.5,148.1,161.4z M141.5,161.9
	c-0.2-0.4-0.4-0.6-0.7-0.8c-0.3-0.2-0.6-0.3-1-0.3s-0.7,0.1-1,0.3c-0.3,0.2-0.5,0.5-0.7,0.8c-0.2,0.4-0.2,0.8-0.2,1.3
	c0,0.5,0.1,1,0.2,1.3c0.2,0.4,0.4,0.6,0.7,0.8c0.3,0.2,0.6,0.3,1,0.3s0.7-0.1,1-0.3c0.3-0.2,0.5-0.5,0.7-0.8
	c0.2-0.4,0.3-0.8,0.3-1.3C141.8,162.7,141.7,162.3,141.5,161.9z M141.5,161.9c-0.2-0.4-0.4-0.6-0.7-0.8c-0.3-0.2-0.6-0.3-1-0.3
	s-0.7,0.1-1,0.3c-0.3,0.2-0.5,0.5-0.7,0.8c-0.2,0.4-0.2,0.8-0.2,1.3c0,0.5,0.1,1,0.2,1.3c0.2,0.4,0.4,0.6,0.7,0.8
	c0.3,0.2,0.6,0.3,1,0.3s0.7-0.1,1-0.3c0.3-0.2,0.5-0.5,0.7-0.8c0.2-0.4,0.3-0.8,0.3-1.3C141.8,162.7,141.7,162.3,141.5,161.9z
	 M148.1,161.4c-0.1-0.2-0.2-0.3-0.5-0.4c-0.2-0.1-0.5-0.1-0.8-0.1h-1.2v2.3h1.2c0.3,0,0.6-0.1,0.8-0.1c0.2-0.1,0.4-0.2,0.5-0.4
	c0.1-0.2,0.2-0.4,0.2-0.6S148.2,161.5,148.1,161.4z M148.1,161.4c-0.1-0.2-0.2-0.3-0.5-0.4c-0.2-0.1-0.5-0.1-0.8-0.1h-1.2v2.3h1.2
	c0.3,0,0.6-0.1,0.8-0.1c0.2-0.1,0.4-0.2,0.5-0.4c0.1-0.2,0.2-0.4,0.2-0.6S148.2,161.5,148.1,161.4z M141.5,161.9
	c-0.2-0.4-0.4-0.6-0.7-0.8c-0.3-0.2-0.6-0.3-1-0.3s-0.7,0.1-1,0.3c-0.3,0.2-0.5,0.5-0.7,0.8c-0.2,0.4-0.2,0.8-0.2,1.3
	c0,0.5,0.1,1,0.2,1.3c0.2,0.4,0.4,0.6,0.7,0.8c0.3,0.2,0.6,0.3,1,0.3s0.7-0.1,1-0.3c0.3-0.2,0.5-0.5,0.7-0.8
	c0.2-0.4,0.3-0.8,0.3-1.3C141.8,162.7,141.7,162.3,141.5,161.9z"/>
<linearGradient id="SVGID_00000013173788450651168150000005369296846471433858_" gradientUnits="userSpaceOnUse" x1="53.2137" y1="318.1996" x2="-207.9764" y2="-6211.5283" gradientTransform="matrix(1 0 0 -1 0 304)">
	<stop  offset="0" style="stop-color:#387EB8"/>
	<stop  offset="1" style="stop-color:#366994"/>
</linearGradient>
<path style="fill-rule:evenodd;clip-rule:evenodd;fill:url(#SVGID_00000013173788450651168150000005369296846471433858_);" d="
	M54.9,120.4c-16.6,0-15.5,7.2-15.5,7.2l0,7.5h15.8v2.2H33.1c0,0-10.6-1.2-10.6,15.6c0,16.8,9.3,16.2,9.3,16.2h5.5v-7.8
	c0,0-0.3-9.3,9.1-9.3h15.7c0,0,8.8,0.1,8.8-8.6v-14.4C70.9,129.1,72.3,120.4,54.9,120.4z M46.2,125.4c0.8,0,1.5,0.3,2,0.8
	c0.5,0.5,0.8,1.3,0.8,2s-0.3,1.5-0.8,2c-0.5,0.5-1.3,0.8-2,0.8s-1.5-0.3-2-0.8c-0.5-0.5-0.8-1.3-0.8-2s0.3-1.5,0.8-2
	C44.7,125.7,45.5,125.4,46.2,125.4z"/>
<linearGradient id="SVGID_00000008147932466288739810000000074961146779596214_" gradientUnits="userSpaceOnUse" x1="63.6131" y1="167.0946" x2="63.6131" y2="-4711.2656" gradientTransform="matrix(1 0 0 -1 0 304)">
	<stop  offset="0" style="stop-color:#FFE052"/>
	<stop  offset="1" style="stop-color:#FFC331"/>
</linearGradient>
<path style="fill-rule:evenodd;clip-rule:evenodd;fill:url(#SVGID_00000008147932466288739810000000074961146779596214_);" d="
	M55.4,185.7c16.6,0,15.5-7.2,15.5-7.2l0-7.5H55.1v-2.2h22.1c0,0,10.6,1.2,10.6-15.6c0-16.8-9.3-16.2-9.3-16.2H73v7.8
	c0,0,0.3,9.3-9.1,9.3H48.2c0,0-8.8-0.1-8.8,8.6V177C39.4,177,38.1,185.7,55.4,185.7z M64.1,180.7c-0.8,0-1.5-0.3-2-0.8
	c-0.5-0.5-0.8-1.3-0.8-2c0-0.8,0.3-1.5,0.8-2c0.5-0.5,1.3-0.8,2-0.8c0.8,0,1.5,0.3,2,0.8c0.5,0.5,0.8,1.3,0.8,2c0,0.8-0.3,1.5-0.8,2
	C65.6,180.4,64.9,180.7,64.1,180.7z"/>
<path class="st27" d="M585.7,0h-65.3c-2.2,0-4.1,1.8-4.1,4v65.4c0,2.2,1.8,4,4.1,4h65.3c2.2,0,4.1-1.8,4.1-4V4
	C589.8,1.8,588,0,585.7,0z M556.8,37h-9.4v24.9H542V37h-9.4v-4.5h24.2V37z M582.3,58.2c-0.9,1.3-2.2,2.3-3.9,3
	c-1.7,0.7-3.8,1.1-6.2,1.1c-2.4,0-4.4-0.4-6.1-1.1c-1.7-0.7-3.1-1.7-4.1-3.1c-1-1.4-1.5-3-1.6-5h5.4c0.1,1,0.4,1.9,1,2.5
	c0.6,0.7,1.3,1.2,2.2,1.5c0.9,0.3,2,0.5,3.1,0.5c1.2,0,2.2-0.2,3.1-0.5c0.9-0.4,1.6-0.8,2.1-1.5c0.5-0.6,0.8-1.4,0.8-2.2
	c0-0.8-0.2-1.4-0.7-1.9c-0.5-0.5-1.1-0.9-1.9-1.3c-0.8-0.3-1.8-0.6-2.8-0.9l-3.5-0.9c-2.5-0.6-4.5-1.6-5.9-2.8c-1.4-1.3-2.2-3-2.2-5
	c0-1.7,0.5-3.2,1.5-4.5c1-1.3,2.3-2.3,4-3c1.7-0.7,3.6-1.1,5.7-1.1c2.2,0,4,0.4,5.7,1.1c1.6,0.7,2.9,1.7,3.8,3
	c0.9,1.3,1.4,2.7,1.4,4.4H578c-0.1-1.2-0.7-2.2-1.7-2.9c-1-0.7-2.3-1-4-1c-1.1,0-2.1,0.2-3,0.5c-0.8,0.3-1.4,0.8-1.9,1.4
	c-0.4,0.6-0.7,1.2-0.7,2c0,0.6,0.1,1.1,0.4,1.6c0.3,0.4,0.7,0.8,1.2,1.1c0.5,0.3,1.1,0.6,1.7,0.8c0.6,0.2,1.2,0.4,1.8,0.5l2.8,0.7
	c1.1,0.3,2.2,0.6,3.3,1c1.1,0.4,2,1,2.9,1.7c0.8,0.7,1.5,1.5,2,2.4c0.5,0.9,0.7,2,0.7,3.3C583.7,55.4,583.2,56.9,582.3,58.2z"/>
<path class="st20" d="M437.2,22.5h26.3v4.9H453V53h-5.2V27.3h-10.6V22.5z"/>
<path class="st20" d="M393.9,22.5v4.9h-21.1v7.9h17v4.9h-17v8.1h21.1V53h-26.3V27.3h0v-4.9H393.9z"/>
<path class="st20" d="M407,22.5h-6.8L424.7,53h6.8l-12.2-15.3l12.2-15.3l-6.8,0l-8.8,11L407,22.5z"/>
<path class="st20" d="M414,44.3l-3.4-4.3l-10.4,13h6.8L414,44.3z"/>
<path class="st14" d="M367.8,53l-24.5-30.6h-6.5V53h5.2V29l19.2,24H367.8z"/>
<path class="st20" d="M464.6,52.8c-0.4,0-0.7-0.1-1-0.4c-0.3-0.3-0.4-0.6-0.4-1c0-0.4,0.1-0.7,0.4-1s0.6-0.4,1-0.4
	c0.4,0,0.7,0.1,1,0.4c0.3,0.3,0.4,0.6,0.4,1c0,0.3-0.1,0.5-0.2,0.7c-0.1,0.2-0.3,0.4-0.5,0.5C465.1,52.8,464.9,52.8,464.6,52.8z"/>
<path class="st20" d="M473.5,40h2.3v9c0,0.8-0.2,1.5-0.5,2.1c-0.4,0.6-0.8,1-1.5,1.4c-0.6,0.3-1.3,0.5-2.2,0.5c-0.8,0-1.4-0.1-2-0.4
	c-0.6-0.3-1.1-0.7-1.4-1.2c-0.4-0.5-0.5-1.2-0.5-2h2.3c0,0.3,0.1,0.6,0.2,0.9c0.1,0.2,0.4,0.4,0.6,0.6c0.3,0.1,0.6,0.2,0.9,0.2
	c0.4,0,0.7-0.1,0.9-0.2c0.3-0.2,0.5-0.4,0.6-0.7c0.1-0.3,0.2-0.7,0.2-1.1V40z"/>
<path class="st20" d="M485.4,43.5c-0.1-0.5-0.3-1-0.7-1.3c-0.4-0.3-1-0.5-1.7-0.5c-0.5,0-0.9,0.1-1.2,0.2c-0.3,0.1-0.6,0.3-0.8,0.6
	c-0.2,0.2-0.3,0.5-0.3,0.9c0,0.3,0.1,0.5,0.2,0.7c0.1,0.2,0.3,0.4,0.5,0.5c0.2,0.1,0.4,0.2,0.7,0.3c0.3,0.1,0.5,0.2,0.8,0.2l1.2,0.3
	c0.5,0.1,1,0.3,1.4,0.5c0.4,0.2,0.9,0.4,1.2,0.7c0.4,0.3,0.6,0.6,0.8,1.1c0.2,0.4,0.3,0.9,0.3,1.4c0,0.7-0.2,1.4-0.6,2
	c-0.4,0.6-0.9,1-1.7,1.3c-0.7,0.3-1.6,0.5-2.6,0.5c-1,0-1.9-0.2-2.6-0.5c-0.7-0.3-1.3-0.8-1.7-1.3c-0.4-0.6-0.6-1.3-0.7-2.2h2.3
	c0,0.4,0.2,0.8,0.4,1.1c0.2,0.3,0.6,0.5,1,0.7c0.4,0.1,0.8,0.2,1.3,0.2c0.5,0,1-0.1,1.3-0.2c0.4-0.2,0.7-0.4,0.9-0.6
	c0.2-0.3,0.3-0.6,0.3-1c0-0.3-0.1-0.6-0.3-0.8c-0.2-0.2-0.5-0.4-0.8-0.5c-0.3-0.1-0.8-0.3-1.2-0.4l-1.5-0.4
	c-1.1-0.3-1.9-0.7-2.5-1.2c-0.6-0.5-0.9-1.3-0.9-2.2c0-0.7,0.2-1.4,0.6-2c0.4-0.6,1-1,1.7-1.3c0.7-0.3,1.5-0.5,2.4-0.5
	c0.9,0,1.7,0.2,2.4,0.5c0.7,0.3,1.2,0.7,1.6,1.3c0.4,0.6,0.6,1.2,0.6,1.9H485.4z"/>
<path class="st28" d="M270.6,13.3c2.3,2.5,4.6,5.3,6.8,8.5c3.8,0.4,7.4,1,10.6,1.8c2.2-8.7,1.8-15.3-1.7-17.4
	C282.8,4,276.9,7,270.6,13.3z M268.3,15.8c1.5,1.7,3.1,3.6,4.6,5.7c-1.5-0.1-3-0.1-4.6-0.1c-1.6,0-3.1,0-4.6,0.1
	C265.2,19.4,266.8,17.5,268.3,15.8z M265.9,13.3c-2.3,2.5-4.6,5.3-6.8,8.5c-3.8,0.4-7.4,1-10.7,1.8c-2.2-8.7-1.8-15.3,1.7-17.4
	C253.8,4,259.7,7,265.9,13.3z M268.3,10.9c-7.6-7.4-15.1-10.7-19.8-7.9c-4.8,2.8-5.7,11-3.2,21.4c-10.1,3-16.7,7.9-16.7,13.5
	s6.6,10.5,16.6,13.5c-2.5,10.4-1.6,18.6,3.2,21.4c4.8,2.8,12.2-0.5,19.8-7.9c7.6,7.4,15.1,10.7,19.8,7.9c4.8-2.8,5.7-11,3.2-21.4
	c10.1-3,16.6-7.9,16.6-13.5s-6.6-10.5-16.6-13.5c2.5-10.4,1.6-18.6-3.2-21.4C283.4,0.2,275.9,3.5,268.3,10.9z M287.1,26.8
	c-2.2-0.5-4.6-0.9-7.1-1.2c0.8,1.3,1.6,2.6,2.4,4c0.8,1.4,1.5,2.7,2.2,4.1C285.6,31.3,286.4,29,287.1,26.8z M286.6,37.9
	c1.6-3.5,2.9-7,3.8-10.2c8.5,2.4,14,6.1,14,10.2s-5.5,7.9-14,10.2C289.4,44.8,288.2,41.4,286.6,37.9z M282.7,37.9
	c-1-2.1-2.2-4.3-3.4-6.5c-1.2-2.2-2.5-4.2-3.8-6.2c-2.3-0.2-4.7-0.3-7.2-0.3c-2.5,0-4.9,0.1-7.2,0.3c-1.3,2-2.6,4-3.8,6.2
	c-1.2,2.2-2.4,4.3-3.4,6.5c1,2.1,2.2,4.3,3.4,6.5c1.2,2.2,2.5,4.2,3.8,6.2c2.3,0.2,4.7,0.3,7.2,0.3c2.5,0,4.9-0.1,7.2-0.3
	c1.3-2,2.6-4,3.8-6.2C280.6,42.2,281.7,40,282.7,37.9z M280,50.1c0.8-1.3,1.6-2.6,2.4-4c0.8-1.4,1.5-2.7,2.2-4.1
	c1,2.4,1.8,4.7,2.5,6.9C284.9,49.4,282.5,49.8,280,50.1z M272.9,54.3c-1.5,0.1-3,0.1-4.6,0.1c-1.6,0-3.1,0-4.6-0.1
	c1.5,2.1,3.1,4,4.6,5.7C269.8,58.3,271.4,56.4,272.9,54.3z M270.6,62.5c2.3-2.5,4.6-5.3,6.8-8.5c3.8-0.4,7.4-1,10.7-1.8
	c2.2,8.7,1.8,15.3-1.7,17.4C282.8,71.7,276.9,68.8,270.6,62.5z M265.9,62.5c-2.3-2.5-4.6-5.3-6.8-8.5c-3.8-0.4-7.4-1-10.7-1.8
	c-2.2,8.7-1.8,15.3,1.7,17.4C253.8,71.7,259.7,68.8,265.9,62.5z M249.4,48.9c2.2,0.5,4.6,0.9,7.1,1.2c-0.8-1.3-1.6-2.6-2.4-4
	c-0.8-1.4-1.5-2.7-2.2-4.1C251,44.4,250.1,46.7,249.4,48.9z M252,33.7c0.7-1.4,1.4-2.7,2.2-4.1c0.8-1.4,1.6-2.7,2.4-4
	c-2.5,0.3-4.9,0.7-7.1,1.2C250.1,29,251,31.3,252,33.7z M250,37.9c-1.6,3.5-2.9,7-3.8,10.2c-8.5-2.4-14-6.1-14-10.2
	c0-4.2,5.5-7.9,14-10.2C247.1,30.9,248.4,34.4,250,37.9z M275.3,37.8c0,4-3.2,7.2-7.1,7.2c-3.9,0-7.1-3.2-7.1-7.2
	c0-4,3.2-7.2,7.1-7.2C272.1,30.6,275.3,33.8,275.3,37.8z"/>
<path class="st29" d="M145.4,8.6c-9.2,1.7-15.3,7.5-18.3,17.4l-0.4,1.4l2.4-2.4c1.5-1.5,3.2-2.8,4.8-3.6c2.3-1.1,2.5-1.7,6.2-1.7
	c5.4,0,6.6,1.1,13,7.2c2.7,2.6,6,5.4,7.4,6.4c7.7,5.1,19.8,5.8,28.1,1.6c5-2.5,10.2-9.4,11.4-15.3c0.2-1.1,0.2-1.1-2.1,1.2
	c-1.5,1.5-3.2,2.8-4.7,3.5c-2.2,1.1-2.5,1.1-6.2,1.1c-5.3,0-6.5-0.6-12.9-6.7c-5.2-5-8.6-7.5-12-8.9C157.5,8.2,150.7,7.7,145.4,8.6z
	 M120.8,38.4c-9.1,1.7-15.2,7.4-18.1,16.8l-0.6,2l2.3-2.4c3.9-4,8.2-5.6,13.1-4.9c3.5,0.5,5.6,1.7,10.3,6.3
	c5.3,5.1,7.4,6.8,10.5,8.4c4.1,2.1,7.1,2.7,12.9,2.7c5.8,0,8.9-0.6,12.8-2.7c2.5-1.3,7.1-5.8,8.3-8c1.3-2.5,2.7-5.8,3-7.1l0.3-1.2
	l-1.8,1.8c-4.1,4.2-7.3,5.6-12.2,5.3c-4.6-0.2-6.4-1.2-12.3-7c-4.9-4.7-8.3-7.2-11.8-8.7C133.2,38,126,37.4,120.8,38.4z"/>
<path class="st30" d="M69.5,0H4.2C1.9,0,0.1,1.8,0.1,4v65.4c0,2.2,1.8,4,4.1,4h65.3c2.2,0,4.1-1.8,4.1-4V4C73.5,1.8,71.7,0,69.5,0z
	 M38.3,54.6c0,2-0.4,3.8-1.3,5.2c-0.8,1.5-2,2.6-3.6,3.4c-1.5,0.8-3.3,1.2-5.3,1.2c-1.8,0-3.5-0.3-5-1c-1.5-0.7-2.6-1.6-3.5-2.9
	c-0.9-1.3-1.3-2.9-1.3-4.8h5.7c0,0.8,0.2,1.6,0.5,2.2c0.4,0.6,0.9,1.1,1.5,1.4c0.7,0.3,1.4,0.5,2.2,0.5c0.9,0,1.7-0.2,2.3-0.6
	s1.1-1,1.4-1.7c0.3-0.8,0.5-1.7,0.5-2.8v-22h5.6V54.6z M66,59.9c-0.9,1.4-2.3,2.5-4.1,3.2c-1.8,0.8-3.9,1.2-6.4,1.2
	c-2.4,0-4.6-0.4-6.4-1.1c-1.8-0.8-3.2-1.9-4.2-3.3c-1-1.4-1.5-3.2-1.6-5.3h5.6c0.1,1.1,0.4,2,1,2.7c0.6,0.7,1.4,1.3,2.3,1.6
	c1,0.4,2,0.5,3.2,0.5c1.2,0,2.3-0.2,3.2-0.5c0.9-0.4,1.7-0.9,2.2-1.6c0.5-0.7,0.8-1.5,0.8-2.4c0-0.8-0.2-1.5-0.7-2
	c-0.5-0.5-1.1-1-2-1.4c-0.8-0.4-1.8-0.7-2.9-1l-3.6-0.9c-2.6-0.7-4.6-1.7-6.1-3c-1.5-1.4-2.2-3.2-2.2-5.4c0-1.8,0.5-3.5,1.5-4.8
	c1-1.4,2.4-2.5,4.1-3.2c1.7-0.8,3.7-1.2,5.9-1.2c2.2,0,4.2,0.4,5.8,1.2c1.7,0.8,3,1.8,4,3.2c1,1.4,1.5,2.9,1.5,4.7h-5.5
	c-0.1-1.3-0.8-2.4-1.8-3.1c-1-0.7-2.4-1.1-4.1-1.1c-1.2,0-2.2,0.2-3,0.5c-0.9,0.4-1.5,0.8-1.9,1.5c-0.5,0.6-0.7,1.3-0.7,2.1
	c0,0.7,0.1,1.2,0.4,1.7c0.3,0.5,0.7,0.9,1.2,1.2c0.5,0.3,1.1,0.6,1.7,0.8c0.6,0.2,1.3,0.4,1.9,0.6l2.9,0.7c1.2,0.3,2.3,0.6,3.4,1.1
	c1.1,0.5,2.1,1.1,3,1.8c0.9,0.7,1.6,1.6,2.1,2.6c0.5,1,0.8,2.2,0.8,3.5C67.4,56.9,67,58.5,66,59.9z"/>
</svg>
